<svg xmlns="http://www.w3.org/2000/svg" viewBox="0 0 126.24 191"><defs><style>.cls-1{fill:#5c503d;}.cls-1,.cls-2{stroke:#000;stroke-miterlimit:10;}.cls-2{fill:#c8c8c8;}</style></defs><title>barrel</title><g id="Layer_2" data-name="Layer 2"><g id="Layer_1-2" data-name="Layer 1"><path class="cls-1" d="M13.52.5a326.83,326.83,0,0,0-13,95,353.11,353.11,0,0,0,13,95h99a297.53,297.53,0,0,0,12-62,296,296,0,0,0,1-31,284.3,284.3,0,0,0-3-54,284.29,284.29,0,0,0-10-43Z"/><path class="cls-1" d="M25.52.5a480,480,0,0,0-9,48c-2.28,16.88-3.49,32.63-4,47,.39,12.44,1.31,25.82,3,40a459.52,459.52,0,0,0,10,55h75a376,376,0,0,0,11-59c1.26-12,1.86-23.4,2-34-.86-16.14-2.42-33.54-5-52-2.23-16-5-31-8-45Z"/><path class="cls-1" d="M42.52.5a367.5,367.5,0,0,0-13,95c1,15.36,2.61,31.74,5,49,2.26,16.31,5,31.67,8,46h41a339.88,339.88,0,0,0,10-48,338.27,338.27,0,0,0,3-45c-.78-16.35-2.32-34.1-5-53-2.22-15.7-5-30.4-8-44Z"/><path class="cls-1" d="M55.52.5c-3,14-5.75,29-8,45-2.49,17.69-4.07,34.42-5,50,.85,15.8,2.42,32.87,5,51,2.24,15.69,5,30.38,8,44h15a411.78,411.78,0,0,0,9-45,410.64,410.64,0,0,0,4-48c-.86-16.14-2.42-33.54-5-52-2.23-16-5-31-8-45Z"/><line class="cls-1" x1="62.52" y1="0.5" x2="62.52" y2="190.5"/><polygon class="cls-2" points="7.52 176.5 10.52 183.5 116.52 183.5 119.52 176.5 7.52 176.5"/><polygon class="cls-2" points="10.52 5.5 7.52 15.5 119.52 15.5 115.52 5.5 10.52 5.5"/></g></g></svg>