<svg xmlns="http://www.w3.org/2000/svg" viewBox="0 0 1920.5 1080"><defs><style>.cls-1{fill:#4779c9;}.cls-2{fill:#3f69a8;}.cls-3{fill:#355c96;}.cls-4{fill:#2f6b27;}.cls-5{fill:#3a8c31;}.cls-6{fill:#43b53a;}</style></defs><title>BG</title><g id="Layer_2" data-name="Layer 2"><g id="Layer_1-2" data-name="Layer 1"><rect class="cls-1" x="0.5" width="1920" height="1080"/><rect class="cls-2" x="0.5" width="1920" height="191"/><rect class="cls-3" x="0.5" width="1920" height="95"/><polygon class="cls-4" points="1 411.5 196.5 89 384.5 519 598.5 307 780.5 445 875.5 139 984.5 487 1108.5 191 1261.5 629 1472.5 367 1603.5 505 1768.5 209 1920.5 411 1920.5 1080 0.5 1080 1 411.5"/><polygon class="cls-5" points="0.5 701 152.5 475 270.5 766 392.5 605 522.5 734 646.5 513 758.5 854 866.5 540 935.5 763 1062.5 584 1190.5 778 1338.5 637 1466.5 738 1542.5 515 1708.5 840 1808.5 557 1920.5 701 1920.5 1080 0.5 1080 0.5 701"/><path class="cls-6" d="M0,920.5c15-4.62,42-13.25,75-26a1138.28,1138.28,0,0,0,121-55c114.26-58.11,350.67,78.32,584,83,181,3.63,134.51-61.5,342-68,259.39-8.13,405.27,91.38,758,69,17.31-1.1,31.38-2.25,40-3v159H0Z"/></g></g></svg>