<svg xmlns="http://www.w3.org/2000/svg" viewBox="0 0 111.07 98.06"><defs><style>.cls-1{fill:#5c503d;}.cls-1,.cls-2{stroke:#000;stroke-miterlimit:10;}.cls-2{fill:#c8c8c8;}</style></defs><title>Bo</title><g id="Layer_2" data-name="Layer 2"><g id="Layer_1-2" data-name="Layer 1"><rect class="cls-1" x="2.53" y="1.53" width="107" height="95" rx="2.5" ry="2.5"/><rect class="cls-1" x="12.53" y="8.53" width="87" height="81" rx="2.5" ry="2.5"/><path class="cls-1" d="M27.26,9.21,98.75,76.79a2.5,2.5,0,0,1,.78,1.82V87a2.49,2.49,0,0,1-2.5,2.5H90.5a2.49,2.49,0,0,1-1.68-.65L13.35,20.27a2.49,2.49,0,0,1-.82-1.85V11A2.5,2.5,0,0,1,15,8.53H25.54A2.51,2.51,0,0,1,27.26,9.21Z"/><path class="cls-1" d="M88.51,8.53H97a2.49,2.49,0,0,1,2.5,2.5v7.44a2.52,2.52,0,0,1-.75,1.8L28.26,88.82a2.46,2.46,0,0,1-1.74.71H15a2.5,2.5,0,0,1-2.5-2.5v-8.4a2.51,2.51,0,0,1,.81-1.84L86.82,9.19A2.51,2.51,0,0,1,88.51,8.53Z"/><path class="cls-2" d="M12.53,3h0A2.49,2.49,0,0,1,10,5.53H8A2.5,2.5,0,0,0,5.53,8v2A2.49,2.49,0,0,1,3,12.53H3A2.5,2.5,0,0,1,.53,10V3A2.5,2.5,0,0,1,3,.53h7A2.49,2.49,0,0,1,12.53,3Z"/><path class="cls-2" d="M3,85.56H3A2.5,2.5,0,0,1,5.5,88l0,2A2.5,2.5,0,0,0,8,92.52l2,0A2.5,2.5,0,0,1,12.57,95h0a2.52,2.52,0,0,1-2.48,2.53l-7,.06A2.49,2.49,0,0,1,.57,95.09l-.07-7A2.51,2.51,0,0,1,3,85.56Z"/><path class="cls-2" d="M98.56,95h0a2.5,2.5,0,0,1,2.51-2.5h2a2.5,2.5,0,0,0,2.5-2.5V88a2.5,2.5,0,0,1,2.5-2.5h0a2.5,2.5,0,0,1,2.5,2.5v7a2.5,2.5,0,0,1-2.5,2.5h-7A2.5,2.5,0,0,1,98.56,95Z"/><path class="cls-2" d="M108.05,12.5h0A2.49,2.49,0,0,1,105.54,10V8A2.5,2.5,0,0,0,103,5.53h-2A2.51,2.51,0,0,1,98.5,3.05h0A2.49,2.49,0,0,1,101,.54l7,0A2.5,2.5,0,0,1,110.5,3l0,7A2.51,2.51,0,0,1,108.05,12.5Z"/></g></g></svg>