<svg xmlns="http://www.w3.org/2000/svg" viewBox="0 0 124.14 257"><defs><style>.cls-1{fill:#5c503d;stroke:#000;stroke-miterlimit:10;}.cls-2{fill:#6e5342;}</style></defs><title>brokentree</title><g id="Layer_2" data-name="Layer 2"><g id="Layer_1-2" data-name="Layer 1"><path class="cls-1" d="M30.58,237.5c7.79-18.86,21.79-29.43,26-33C80.09,184.54,85.35,139.18,80,97c-.25-2-.78-7.17-29.39-27.51C48.27,67.86,2.72,46,.58,44.5c-2.35-1.68,50.07,19.5,48,18-9.28-6.71-21.88-22.24-22-23-.37-2.23,57.42,57.2,57,55-4.08-21-16.85-53.45-25-67,0,0-8.74-14.52-8-15,1-.66,20.73,31.13,25,29,3.21-1.61-3.83-21.74-3-22,1.1-.35,11.57,36.76,16,36,5.25-.91.23-54.94,1-55s4.31,62,9,62c3.57,0,5.7-36.09,7-36,2.1.15,9.86,97-9,147-1.62,4.28-5.35,13.31-3,24,4.82,22,31.47,33.51,30,36s-26.17-11.8-30-7c-3.44,4.29,11.65,21.58,10,23-1.88,1.6-19.53-21.78-29-18-8.13,3.25-6.52,25-9,25s-1.49-22.56-9-25c-9.19-3-24.74,26.28-29,24C25.42,254.35,27.2,245.67,30.58,237.5Z"/><path class="cls-2" d="M81.08,188c-5.29,9-10.37,14.33-20,32-2.44,4.48-4.53,8.57-6.38,12.32-9.3.9-23.14,26.31-27.12,24.18-2.16-1.15-.38-9.83,3-18,7.79-18.86,21.79-29.43,26-33C80.09,185.54,85.35,140.18,80,98c-.25-2-.77-7.17-29.39-27.51C48.27,68.86,2.72,47,.58,45.5c-2.34-1.68,50.07,19.5,48,18-9.28-6.71-21.87-22.24-22-23-.37-2.23,57.43,57.2,57,55-4.08-21-16.84-53.45-25-67,0,0-8.74-14.52-8-15,1-.66,20.73,31.13,25,29,1-.5,1-2.82.56-5.77q3,4.11,5.26,7.43c2.53,6.5,5.07,11.91,6.83,12.32C101.22,97.31,102.64,151.16,81.08,188Z"/></g></g></svg>