<svg xmlns="http://www.w3.org/2000/svg" viewBox="0 0 382 322.43"><defs><style>.cls-1{fill:#5c503d;}.cls-1,.cls-3{stroke:#000;stroke-miterlimit:10;}.cls-2{fill:#6e5342;}.cls-3{fill:#006e2b;}.cls-4{fill:#005f2b;}.cls-5{fill:#00522b;}</style></defs><title>bush</title><g id="Layer_2" data-name="Layer 2"><g id="Layer_1-2" data-name="Layer 1"><path class="cls-1" d="M157.5,265.5c-8.19-4.52-40.92,36.91-42,36s30.45-26.51,26-52c-2.83-16.23-18-20.07-18-36,0-13.16,10.44-22.91,18-30,22.25-20.86,50.57-24.19,66-26,75.74-8.87,133-15.57,140,4,7.67,21.47-55.29,46.25-50,82s75,55.82,74,58c-1.13,2.44-80.44-40.17-102-18-8.91,9.16-4.38,25.71-12,28-10.13,3-18.28-26.14-38-30-28.25-5.52-56.33,45.59-66,40C144.49,316.29,165.59,270,157.5,265.5Z"/><path class="cls-2" d="M162,303c-.83,5.49-1.72,11.67-3.09,17.65-2.17,1.27-4,1.67-5.41.85-9-5.21,12.09-51.53,4-56s-40.92,36.91-42,36,30.45-26.51,26-52c-2.83-16.23-18-20.07-18-36,0-13.16,10.44-22.91,18-30,17.43-16.34,38.58-21.92,54.34-24.45C198.3,189.22,177,204.34,162,303Z"/><path class="cls-3" d="M381.5,114.5a14,14,0,0,0-7.57-12.43,13.78,13.78,0,0,0-1.47-2.27,14.14,14.14,0,0,0,1-5.3,14,14,0,0,0-6.21-11.63,14.3,14.3,0,0,0,.21-2.37,14,14,0,0,0-14-14,14,14,0,0,0-14-14,14,14,0,0,0-22.09-11.41A14,14,0,0,0,304.5,32.5,13.84,13.84,0,0,0,298,34.13,14,14,0,0,0,273.72,33a13.94,13.94,0,0,0-16.46-3A14,14,0,0,0,243.5,18.5l-.33,0A14,14,0,0,0,219,12.25a13.95,13.95,0,0,0-19.92-5.61A14,14,0,0,0,179,3.39a14,14,0,0,0-21.63,6.29,14,14,0,0,0-24.29,4.85c-.19,0-.38,0-.58,0a14,14,0,0,0-13.9,12.36,13.77,13.77,0,0,0-3.1-.36,13.94,13.94,0,0,0-8.44,2.85,14,14,0,0,0-25.41.59A14,14,0,0,0,63.58,49.81,14,14,0,0,0,52.5,63.5,14.16,14.16,0,0,0,53,67,14,14,0,0,0,42.5,80.5a14.33,14.33,0,0,0,.33,3l-.33,0a14,14,0,0,0-14,14,13.69,13.69,0,0,0,.17,2,13.88,13.88,0,0,0-3.37,5.34A14,14,0,0,0,14.5,118.5,14,14,0,0,0,8.25,145a14,14,0,0,0,3.69,23.34A14,14,0,0,0,30.71,187,14,14,0,0,0,42.5,193.5h0a14,14,0,0,0,14,13c.2,0,.39,0,.58,0A14,14,0,0,0,75,215.75a14,14,0,0,0,19,1.86,13.84,13.84,0,0,0,11,2.65,13.95,13.95,0,0,0,19.62,8.8,14,14,0,0,0,19.82,6.57,14,14,0,0,0,22.6,2,13.92,13.92,0,0,0,15.43,1,13.94,13.94,0,0,0,16-1.43,13.77,13.77,0,0,0,3,.32,14,14,0,0,0,12.85-8.44,14,14,0,0,0,19.91-10,13.88,13.88,0,0,0,11.18.57,14,14,0,0,0,12.06,6.91,13.69,13.69,0,0,0,2-.17,14,14,0,0,0,18.66,1.13,14.14,14.14,0,0,0,5.3,1,13.86,13.86,0,0,0,7-1.89,13.86,13.86,0,0,0,7,1.89,14,14,0,0,0,12.67-8.07c.44,0,.88.07,1.33.07a14,14,0,0,0,12.92-8.61,13.75,13.75,0,0,0,4.08.61A14,14,0,0,0,342,202.27,14,14,0,0,0,353.5,188.5a13.79,13.79,0,0,0-.6-4l.6,0a14,14,0,0,0,11.5-22,1.08,1.08,0,0,1,.08-.19,14,14,0,0,0,8.42-12.84,13.75,13.75,0,0,0-.61-4.08,14,14,0,0,0,5.33-21.92A14,14,0,0,0,381.5,114.5Z"/><path class="cls-4" d="M355.5,115.37A12.29,12.29,0,0,0,349,104.48a12.45,12.45,0,0,0-1.27-2,12.39,12.39,0,0,0-4.46-14.84,12.75,12.75,0,0,0,.18-2.07,12.17,12.17,0,0,0-12.09-12.26,12.18,12.18,0,0,0-12.09-12.27,12.17,12.17,0,0,0-12.09-12.26,11.9,11.9,0,0,0-7,2.26A12.1,12.1,0,0,0,289,43.53,11.85,11.85,0,0,0,283.36,45a12,12,0,0,0-20.93-1A12,12,0,0,0,253.6,40a11.77,11.77,0,0,0-5.38,1.3,12.14,12.14,0,0,0-11.89-10.06h-.28a12.13,12.13,0,0,0-11.8-9.65,12,12,0,0,0-9.06,4.16A12.06,12.06,0,0,0,204.38,19a11.91,11.91,0,0,0-6.4,1.88,12,12,0,0,0-10-5.38A11.85,11.85,0,0,0,180.64,18a11.89,11.89,0,0,0-7.34-2.54,12.1,12.1,0,0,0-11.34,8,12,12,0,0,0-21,4.25l-.51,0a12.15,12.15,0,0,0-12,10.83,11.87,11.87,0,0,0-10,2.18,12,12,0,0,0-21.94.52A11.91,11.91,0,0,0,91.26,40,12.18,12.18,0,0,0,79.17,52.29,12.36,12.36,0,0,0,81,58.7a12.23,12.23,0,0,0-9.57,12,12.66,12.66,0,0,0,.39,3,12.29,12.29,0,0,0-8.73,14.5l-.29,0a12.18,12.18,0,0,0-12.09,12.27,13.08,13.08,0,0,0,.14,1.78,12.34,12.34,0,0,0-2.91,4.68,12.23,12.23,0,0,0-9.32,11.93,12.29,12.29,0,0,0-5.4,23.23,12.34,12.34,0,0,0,3.19,20.44,12.3,12.3,0,0,0-1.24,5.39,12.17,12.17,0,0,0,12.08,12.26,12,12,0,0,0,5.37-1.28,12,12,0,0,0,10.18,5.66h0a12.15,12.15,0,0,0,12,11.39l.5,0A12.12,12.12,0,0,0,87,204.72a12,12,0,0,0,3.89-.66,11.9,11.9,0,0,0,16.4,1.63,11.87,11.87,0,0,0,7.34,2.54,12.11,12.11,0,0,0,2.18-.21,12.12,12.12,0,0,0,11.64,9,11.9,11.9,0,0,0,5.31-1.26,12.08,12.08,0,0,0,11.09,7.39,11.86,11.86,0,0,0,6-1.64,12,12,0,0,0,19.52,1.78,11.86,11.86,0,0,0,13.32.83,11.89,11.89,0,0,0,13.85-1.25,12,12,0,0,0,13.65-7.11,11.87,11.87,0,0,0,5.31,1.26,12.14,12.14,0,0,0,11.89-10.06,11.79,11.79,0,0,0,9.65.5,12,12,0,0,0,10.41,6,12.94,12.94,0,0,0,1.77-.14,11.93,11.93,0,0,0,16.11,1,11.84,11.84,0,0,0,10.62-.74,11.85,11.85,0,0,0,6,1.66,12.07,12.07,0,0,0,10.94-7.07c.38,0,.77.06,1.15.06a12.1,12.1,0,0,0,11.16-7.54,12,12,0,0,0,15.16-8.43,12.22,12.22,0,0,0,9.95-12.07,12.5,12.5,0,0,0-.51-3.53l.51,0a12.17,12.17,0,0,0,12.09-12.26,12.31,12.31,0,0,0-2.16-7l.07-.16a12.37,12.37,0,0,0,6.75-14.82,12.36,12.36,0,0,0,4.6-19.21A12.34,12.34,0,0,0,355.5,115.37Z"/><path class="cls-5" d="M335.5,120.88a10.19,10.19,0,0,0-5.74-9.09,9.86,9.86,0,0,0-1.12-1.66,9.89,9.89,0,0,0,.79-3.88,10.14,10.14,0,0,0-4.71-8.51,9.85,9.85,0,0,0,.16-1.73,10.44,10.44,0,0,0-10.62-10.24,10.44,10.44,0,0,0-10.62-10.24A10.44,10.44,0,0,0,293,65.29a10.85,10.85,0,0,0-6.13,1.89,10.66,10.66,0,0,0-9.8-6.28,10.84,10.84,0,0,0-5,1.2,10.8,10.8,0,0,0-18.38-.86A10.77,10.77,0,0,0,246,58a11,11,0,0,0-4.73,1.08,10.52,10.52,0,0,0-10.44-8.39h-.24a10.54,10.54,0,0,0-10.38-8.06,10.75,10.75,0,0,0-7.95,3.47,10.65,10.65,0,0,0-9.49-5.66A10.84,10.84,0,0,0,197.13,42a10.85,10.85,0,0,0-15.23-2.37,10.77,10.77,0,0,0-6.45-2.12,10.6,10.6,0,0,0-10,6.72,10.73,10.73,0,0,0-8.24-3.79,10.57,10.57,0,0,0-10.18,7.33l-.44,0a10.48,10.48,0,0,0-10.54,9,10.87,10.87,0,0,0-8.76,1.82,10.78,10.78,0,0,0-19.27.43A10.84,10.84,0,0,0,103.39,58,10.43,10.43,0,0,0,92.77,68.22a9.87,9.87,0,0,0,1.58,5.35,10.34,10.34,0,0,0-8.41,10,9.73,9.73,0,0,0,.35,2.54A10.31,10.31,0,0,0,78.36,96a10,10,0,0,0,.25,2.21h-.25a10.43,10.43,0,0,0-10.62,10.24,10.57,10.57,0,0,0,.12,1.49,10.25,10.25,0,0,0-2.55,3.91,10.32,10.32,0,0,0-8.19,10A10.43,10.43,0,0,0,46.5,134.05a10.21,10.21,0,0,0,5.88,9.15,10,10,0,0,0-3.6,7.67,10.22,10.22,0,0,0,6.4,9.39,9.8,9.8,0,0,0-1.09,4.5A10.43,10.43,0,0,0,64.7,175a10.9,10.9,0,0,0,4.72-1.07,10.69,10.69,0,0,0,8.94,4.73h0A10.46,10.46,0,0,0,89,188.17l.44,0a10.57,10.57,0,0,0,10.18,7.33,11,11,0,0,0,3.41-.55,10.86,10.86,0,0,0,14.41,1.36,10.84,10.84,0,0,0,6.45,2.12,11.06,11.06,0,0,0,1.92-.18A10.55,10.55,0,0,0,136,205.72a10.83,10.83,0,0,0,4.66-1.05,10.65,10.65,0,0,0,9.75,6.17,10.85,10.85,0,0,0,5.28-1.36A10.83,10.83,0,0,0,172.85,211a10.88,10.88,0,0,0,11.7.7,10.93,10.93,0,0,0,5.31,1.38,10.82,10.82,0,0,0,6.86-2.43,11,11,0,0,0,2.24.23,10.64,10.64,0,0,0,9.75-6.17,10.84,10.84,0,0,0,4.67,1.05,10.53,10.53,0,0,0,10.44-8.39,10.92,10.92,0,0,0,4.73,1.08,10.74,10.74,0,0,0,3.74-.67,10.7,10.7,0,0,0,9.15,5.06,11.31,11.31,0,0,0,1.55-.12,10.92,10.92,0,0,0,14.16.82,10.93,10.93,0,0,0,9.32-.62,10.93,10.93,0,0,0,5.31,1.38,10.64,10.64,0,0,0,9.61-5.9c.33,0,.67,0,1,0a10.62,10.62,0,0,0,9.8-6.3,10.91,10.91,0,0,0,3.1.45,10.57,10.57,0,0,0,10.22-7.49A10.34,10.34,0,0,0,314.26,175a9.87,9.87,0,0,0-.45-2.94l.45,0a10.44,10.44,0,0,0,10.62-10.24A9.87,9.87,0,0,0,323,156l.06-.14a10.24,10.24,0,0,0,6.39-9.39,9.78,9.78,0,0,0-.46-3,10.26,10.26,0,0,0,6.53-9.45,10,10,0,0,0-2.49-6.59A10,10,0,0,0,335.5,120.88Z"/></g></g></svg>