<svg xmlns="http://www.w3.org/2000/svg" viewBox="0 0 639.54 909.93"><defs><style>.cls-1{fill:#cecece;}.cls-1,.cls-10,.cls-11,.cls-12,.cls-13,.cls-14,.cls-15,.cls-16,.cls-2,.cls-3,.cls-4,.cls-5,.cls-6,.cls-7,.cls-8,.cls-9{stroke:#000;stroke-miterlimit:10;}.cls-2{fill:#49702f;}.cls-3{fill:#cdc8c2;}.cls-4{fill:#564529;}.cls-5{fill:#eae9e8;}.cls-6{fill:#665b59;}.cls-7{fill:#918682;}.cls-8{fill:#cec9c5;}.cls-9{fill:#8f847e;}.cls-10{fill:#fff;}.cls-11{fill:#dadad0;}.cls-12{fill:#3a312a;}.cls-13{fill:#e0db20;}.cls-14{fill:#b77a18;}.cls-15{fill:#cc8319;}.cls-16{fill:#696b47;}</style></defs><title>Character</title><g id="Layer_2" data-name="Layer 2"><g id="Layer_1-2" data-name="Layer 1"><path class="cls-1" d="M221.88,238.45c-.16-5.64.25-23.4,12.91-36,18.28-18.25,50.68-14.42,69.89-4.53,44.16,22.76,56.67,97.26,33.79,116.12-18.45,15.19-59.63-6-77.86-18.89C249.29,287.09,222.76,268.26,221.88,238.45Z"/><path class="cls-2" d="M330,401c-31.81-21-46.47-57.27-75.78-129.81-4.88-12.06-9.1-24.34-3.39-33.88,8.62-14.43,37.52-18.18,58.1-8.59,18.87,8.8,17.65,22.72,48.9,70.06,19.86,30.07,24.66,31,31.2,48.16,7.87,20.66,16,58.93.09,70.45C372.76,429.21,338.31,406.46,330,401Z"/><path class="cls-2" d="M394.58,424.43c50.47.54,107.81-25.76,124.21-69.22,2.05-5.43,6.44-18.57,1.49-32.86-.91-2.6-4.51-13-12.82-18.05-13.23-8-30.63,2.14-53.78,12.21-60.2,26.2-73.9,14.57-99.06,38.56-5.19,4.95-29.73,28.36-23.36,46.85C338.82,423.84,385.47,424.34,394.58,424.43Z"/><path class="cls-3" d="M479,315.94c-.59-9.29-.84-14,1.32-15.84,3.23-2.8,6.95,1.06,13.2-1.32s6.19-7.49,11.88-10.56c6.18-3.33,13.37-1.15,17.16,0,21.84,6.63,44.12,48.1,29,70-4.66,6.76-14.63,14.15-23.76,11.88-20.23-5-25.25-54.68-27.72-54.12-1.41.32,3.3,15.78-2.64,19.8-4,2.7-12.07-.19-15.84-5.28C479.8,328,479.51,323.93,479,315.94Z"/><path class="cls-4" d="M544.35,317c-9.15-15.78-49.44-12.72-55,1-1.81,4.47.5,9.06,1,10,8.43,15.72,48.42,15,55,1C548,323.42,544.57,317.35,544.35,317Z"/><path class="cls-1" d="M582.35,338a286,286,0,0,0-62-136q12.49,153.5,25,307a549.58,549.58,0,0,0,31-114A545.89,545.89,0,0,0,582.35,338Z"/><path class="cls-5" d="M576.35,395a545.89,545.89,0,0,0,6-57,286,286,0,0,0-62-136"/><polygon class="cls-4" points="540.35 522.98 511.35 194.97 525.35 194.97 557.35 523.98 540.35 522.98"/><path class="cls-6" d="M217.37,514.22c3,17.51-27.56,39.28-49,49.34-12.52,5.87-39.78,18.65-60.53,7.5-5.95-3.2-11.06-8.2-11.68-7.53-.89,1,7.4,13.34,19.64,19.79,20.24,10.65,41.35-.1,42.43,2.9,1.53,4.26-37.15,36.87-84.43,30.53-24.07-3.22-55.13-17.18-67.37-40.83-1.82-3.5-3.47-7.72-4.37-7.47-2.71.76-4.56,43.69,19.29,70.94,33.1,37.83,101.18,28.86,130.7,5.53,5.17-4.08,7.89-7.6,8-7.46.67.65-51.57,72.69-88.73,63.15-9.73-2.49-16.88-10.17-17.37-9.5-.77,1,15.47,20.75,35.16,25.45,30.61,7.31,60.75-23.82,82.11-45.9,50.92-52.61,46.93-96.89,68-143.89,1.17-2.6,4.38-9.58,1.45-15-2.14-3.95-6.74-5.61-14.09-8.27-5.1-1.85-4.55,0-6.28,1.49C217.72,507.17,216.73,510.46,217.37,514.22Z"/><path class="cls-7" d="M226.63,503.49c-5.1-1.85-4.55,0-6.28,1.49-2.63,2.19-3.62,5.48-3,9.24,3,17.51-27.56,39.28-49,49.34-12.52,5.87-39.78,18.65-60.53,7.5-5.95-3.2-11.06-8.2-11.68-7.53-.89,1,7.4,13.34,19.64,19.79,20.24,10.65,41.35-.1,42.43,2.9,1.53,4.26-37.15,36.87-84.43,30.53-24.07-3.22-55.13-17.18-67.37-40.83-1.82-3.5-3.47-7.72-4.37-7.47-2.71.76-4.56,43.69,19.29,70.94,33.1,37.83,101.18,28.86,130.7,5.53"/><path class="cls-3" d="M356.88,147.36c-2.08.18-14.73,1.46-23.28,12.61a33.15,33.15,0,0,0-6.58,22.3,127.52,127.52,0,0,1,26.38-.7c32.08,2.54,19.8.9,47.7,1.8,5.72.18,14.64-4.66,17.1-5.4q3-1.38,6.3-2.7c3.42-1.38,9.44-3.47,12.6-4.5-1.47-.65-6.35-.69-9-1.8-12-5-15.89-6.45-20.7-8.1-27.7-9.54-13.62,1.51-27-3.6C370,153.3,361.83,149.65,356.88,147.36Z"/><path class="cls-8" d="M357,7.87c.17.24-2.08,1.59-3.6,4.5-1,2-2.08,5.33-.9,6.3s5.26-.75,7.2-3.6c1.29-1.9,1.25-3.62,1.8-3.6.74,0,2,3.18.9,5.4-1.34,2.65-5.46,2.67-5.4,3.6s5.43,1.44,5.4,1.8-7.08.05-7.2.9c-.08.57,3.15.9,6.3,3.6,1.84,1.57,2.94,3.34,2.7,3.6s-2.89-2.88-6.3-2.7c-1.75.09-4.08,1.09-4.5,2.7-1,3.7,8.53,9.27,8.1,9.9-.32.46-4.95-3.27-7.2-1.8-1.22.79-1.61,3-.9,4.5,1,2,3.7,2.21,3.6,2.7-.14.69-5.45-1-9,1.8-1.34,1-1.31,1.83-1.8,1.8-2.8-.18-8.75-26.29,2.7-36.9C352.09,9.41,356.77,7.53,357,7.87Z"/><path class="cls-9" d="M353.4,49.27c6.59-9.22,7.8-21.9,4.5-32.4-1.85-5.88-3.66-11.66-8.1-13.5-15.66-6.52-58.33,38.25-50.4,53.1C305,67,339.34,68.94,353.4,49.27Z"/><path class="cls-7" d="M383.33,162.77c1.4.12,3.89.37,7,.8,25.39,3.53,11.57-2.94,38.7,5.4a128.44,128.44,0,0,0,14.4,3.6c2.63-.31,20.82-2.72,27-16.2a21.94,21.94,0,0,0,1.8-6.3c-26.84-17.71-44-29-49.5-32.4-.89-.56-4-2.52-8.1-5.4-3.19-2.27-6.22-4.5-7.2-5.4-8.19-7.55-5.8-21-14.4-35.1a47.09,47.09,0,0,0-8.1-9.9,71.44,71.44,0,0,0-13.5-9,74.66,74.66,0,0,0-22.5-7.2,77.49,77.49,0,0,0-10.8-.9,82.43,82.43,0,0,0-24.3,2.7c-10.32,2.64-9.42,3.41-18,5.4-3.51.81-6,1.19-18.9,2.7,0,0-26.16,3-26.1,3.6,0,.26,13.33-2.76,17.1,2.7a5,5,0,0,1,.9,3.6c-.53,2.74-4,4-7.2,5.4-9.61,4.16-15.39,8.82-15.3,9s8.43-4.5,9.9-2.7c.29.35.27.91,0,1.8-1.26,4.11-5.22,6.4-9,9-2.82,1.93-5.34,4.28-8.1,6.3-4.4,3.2-10.09,9.21-15.3,21.6,3.43-4.3,8.65-6.43,13.5-5.4a12.94,12.94,0,0,1,7.2,4.5,46.05,46.05,0,0,0-28.8,40.5c5-8.12,13.93-12,21.6-9.9,6.65,1.83,10,7.53,10.8,9a45.6,45.6,0,0,0-29.28,32.76c.58-.77,6-7.69,14.88-7.56,7.46.1,14.31,5.1,17.1,12.6-21.12,14-25.71,61.13-27,66.4-1,4-3.39,17.08-2.83,17.21.05,0,.11-.08.13-.11,2.19-3.26,9.92-14.72,15.3-15.3,3.9-.42,7.38,4.77,9,7.2,4.68,7,4,14.55,3.6,17.1,1.67-10,9.67-15,14.4-13.5,3.79,1.16,6.71,6.82,6.3,13.5q28.32-16.53,31.5-12.6,2.06,2.52-6.3,13.5a52.62,52.62,0,0,0,28.8-13.5,16.39,16.39,0,0,1,17.1,2.7c5.51,5,6.8,13.68,2.7,20.7l14.4-18.9c2.05,3,13.7,8.46,17.1,11.9a68.88,68.88,0,0,0,17.1,12.6,207.69,207.69,0,0,0-9-22.5c-5.36-11.45-7.78-13.94-10.75-22.79-2.11-6.31-22-42-18-55,2.44-7.95,12-29.84,14-34,.72-1.91,1.22.26,7-3C379.55,161.6,381.53,162.61,383.33,162.77Z"/><path class="cls-6" d="M295.8,52.87c-3.51.81-6,1.19-18.9,2.7,0,0-26.16,3-26.1,3.6,0,.26,13.33-2.76,17.1,2.7a5,5,0,0,1,.9,3.6c-.53,2.74-4,4-7.2,5.4-9.61,4.16-15.39,8.82-15.3,9s8.43-4.5,9.9-2.7c.29.35.27.91,0,1.8-1.26,4.11-5.22,6.4-9,9-2.82,1.93-5.34,4.28-8.1,6.3-4.4,3.2-10.09,9.21-15.3,21.6,3.43-4.3,8.65-6.43,13.5-5.4a12.94,12.94,0,0,1,7.2,4.5,46.05,46.05,0,0,0-28.8,40.5c5-8.12,13.93-12,21.6-9.9,6.65,1.83,10,7.53,10.8,9a45.6,45.6,0,0,0-29.28,32.76c.58-.77,6-7.69,14.88-7.56,7.46.1,14.31,5.1,17.1,12.6-21.12,14-25.71,61.13-27,66.4-1,4-3.39,17.08-2.83,17.21.05,0,.11-.08.13-.11,2.19-3.26,9.92-14.72,15.3-15.3,3.9-.42,7.38,4.77,9,7.2,4.68,7,4,14.55,3.6,17.1"/><path class="cls-10" d="M388.08,86.94a29.86,29.86,0,0,1,9.14,17.9,65.94,65.94,0,0,1-6.55-.81,62.83,62.83,0,0,1-9.48-2.44,32.49,32.49,0,0,1-8.56-7.87,32,32,0,0,1-4.14-7.35,30,30,0,0,1,19.59.57Z"/><path class="cls-11" d="M379.5,77.17a33.48,33.48,0,0,1,8.1,1.8,48.53,48.53,0,0,1,12.6,6.3,7.88,7.88,0,0,0-.9-5.4,7.59,7.59,0,0,0-2.7-2.7,37.83,37.83,0,0,0-4.21-1.81,45.15,45.15,0,0,0-6.59-1.79,46.28,46.28,0,0,0-4.95-.75c-1.65-.15-2.86-.15-3.15-.15-2.11,0-3,.19-4.47.28-4.17.26-7.12-.71-7.23-.28s2.44,1.15,2.33,1.93c-.06.42-.88.64-1.43.77a22,22,0,0,1-7.2,0c0,.12,4.51,1,4.48,1.92,0,.46-1.28.65-4.48,1.68s-4.54,1.67-4.5,1.8,3.59-1.19,4.5,0a2,2,0,0,1,0,1.8,27.65,27.65,0,0,1,9-4.5A28.32,28.32,0,0,1,379.5,77.17Z"/><path class="cls-6" d="M347.71,38.65l0,.28a36.18,36.18,0,0,1-5.08,13.94C333.66,67,314.45,73.23,302.56,71a8.3,8.3,0,0,1-1.36-1c-9.4-8.54,1.57-38.43,18.9-54.9,4.11-3.92,10.22-9.59,16.2-8.1,8.58,2.12,11.4,17.64,11.7,25.2A38.61,38.61,0,0,1,347.71,38.65Z"/><path class="cls-8" d="M296.7,66.37c2.63-1.18,5.9-2,9-.9,3.29,1.19,4.78,4,5.4,3.6.78-.52-1.14-5.21-3.6-9-1.6-2.47-3-2.91-2.7-3.6.57-1.5,7.17-1.69,10.8,1.8a12.72,12.72,0,0,1,2.7,4.5c.28-.11-7.41-14.29-3.6-18,2.5-2.44,10.25-.65,13.5,3.6,1.1,1.43,1.4,2.79,1.8,2.7.87-.2,1.5-7.19-1.8-12.6-3.21-5.26-8.58-6.52-8.1-8.1s6.54.14,12.6-3.6c2.16-1.34,3.88-3.11,3.6-3.6-.74-1.3-13.78,8.12-20.7,3.6-3-2-2.47-5.05-4.5-5.4-4.54-.79-12.26,13.61-14.4,27.9A58.14,58.14,0,0,0,296.7,66.37Z"/><path class="cls-7" d="M347.71,38.65a38.61,38.61,0,0,0,.29-6.48c-.3-7.56-3.12-23.08-11.7-25.2-6-1.49-12.09,4.18-16.2,8.1C302.77,31.54,291.8,61.43,301.2,70a8.3,8.3,0,0,0,1.36,1,14.07,14.07,0,0,1-7.66-3.69c-9.57-9.93,5.08-38.53,18.9-54,6-6.73,12.47-14,18.9-12.6C341.67,2.56,350.27,21.18,347.71,38.65Z"/><path class="cls-12" d="M474,151a21.94,21.94,0,0,1-1.8,6.3c-3.2,7-11.29,9.4-17.1,11.7,0-2.74,2.81-5.39.9-11.7-2.13-7.05-5.59-8.73-4.5-11.7.81-2.2,3.63-3.78,7.14-4.46Z"/><path class="cls-11" d="M365.1,90.67c.72,1.53,6.28,1.5,9.9-.9,1.93-1.29,2.12-2.46,4.5-3.6a9.58,9.58,0,0,1,6.3-.9c3.58.89,5.54,4.36,5.4,4.5s-5.26-8.66-12.6-9S364.08,88.5,365.1,90.67Z"/><ellipse class="cls-13" cx="390.75" cy="96.07" rx="2.25" ry="4.5"/><path class="cls-7" d="M376.77,788.22c18.75,17.54,33.29,27.47,62.36,47.32,18,12.26,21.84,13.13,24.58,13.51,19.5,2.67,32.32-12.77,42.82-6.35,6,3.66,7.68,12.28,7.33,17.76-1.3,19.76-31.71,37.14-55.05,32.71-11.05-2.09-18.16-8.62-22.41-12.36C382,832.87,337.68,835.63,335,807.35,333.53,792,345,775,355.51,773.68,361.75,772.91,365.77,777.92,376.77,788.22Z"/><path class="cls-14" d="M355.35,618c8.67-18.41,53.79-36.71,68.82-16.32,30.8,41.8,46.2,55,28.6,90.2-6.33,12.65-37.66,59.9-46.2,80.3-7.1,16.93-6.69,30-16.5,35.2-8.14,4.28-18.59.64-26.4-3.3,0,0-9.28-15.82-9.9-18.7-3.39-15.62,26.34-57,30.8-79.2C392.13,668.41,344.61,640.77,355.35,618Z"/><path class="cls-15" d="M430.35,595c30.8,41.8,40,61.68,22.42,96.88-6.33,12.65-37.66,59.9-46.2,80.3-7.1,16.93-6.69,30-16.5,35.2"/><path class="cls-14" d="M351.56,481c58.58,14.82,79.88,79.45,93.51,134.92,3.81,15.54,8.84,19.7,1.1,29.7-13,16.76-49.72,30-72.82,18.32-24.76-12.56-25.71-41.32-53-83-36.05-55.07-33.57-74.5-29-94C296.74,464,311.78,471,351.56,481Z"/><path class="cls-15" d="M351.56,481c58.58,14.82,79.88,79.45,93.51,134.92,3.81,15.54,8.84,19.7,1.1,29.7"/><path class="cls-10" d="M485.77,856.86a15.18,15.18,0,0,1,22,18.7"/><path class="cls-10" d="M481.37,871.16a10.6,10.6,0,0,1,12.1-1.1c4.43,2.73,6.14,9.05,3.3,14.3"/><path class="cls-14" d="M268,618.16c18.72-8,66.69,40.27,72.6,64.9,11.51,48-90.91,81.3-121,90.2-17.34,5.12-36.41,13.12-39.6,11-6.64-4.43-15.48-20.28-14.3-28.6,0,0,14.75-8.28,16.2-10.84,7.87-13.9,43.79-32.75,61.9-46.36C274.54,675.32,244.78,628,268,618.16Z"/><path class="cls-15" d="M340.57,683.06c11.51,48-90.91,81.3-121,90.2-17.34,5.12-36.41,13.12-39.6,11"/><path class="cls-7" d="M188.77,761.16c5,25.18,11,41.72,23.1,74.8,7.44,20.42,10.09,23.39,12.1,25.3,14.28,13.53,33.7,8.46,38.5,19.8,2.73,6.47-.92,14.45-4.4,18.7-12.57,15.3-47.41,11.7-63.8-5.5-7.76-8.14-9.74-17.59-11-23.1-16.27-70.66-53.9-94.25-39.6-118.8,7.74-13.31,27-20.49,36.3-15.4C185.48,740,185.83,746.38,188.77,761.16Z"/><path class="cls-14" d="M297.37,492c54.42,26.26,43.17,110.93,45.4,168,.62,16,2.17,31.78-7.42,40-16.09,13.82-46.72,10.11-67-6-21.74-17.27-8.62-45.7-27-92-24.28-61.18-22.39-83.81-14-102C237.25,478.5,260.41,474.12,297.37,492Z"/><path class="cls-15" d="M297.37,492c54.42,26.26,43.17,110.93,45.4,168,.62,16-.32,30.26-9.9,38.5"/><path class="cls-10" d="M243.77,882.16A13.73,13.73,0,0,1,257,902"/><path class="cls-10" d="M228.37,887.66c.82-.08,7.45-.6,12.1,4.4a14.91,14.91,0,0,1,2.2,16.5"/><path class="cls-1" d="M278.35,222c31.67-15.32,71.5-1.81,95,18,33.84,28.51,37,72.47,38,86,5.11,70.61-42.5,105.66-21,154,8.95,20.11,20.78,22.11,19,33-6.48,39.55-172.12,65.35-198,18-10-18.34,9.24-29.46,18-86,10-64.2-10.42-78.6,2-137C237.87,277.31,246.35,237.45,278.35,222Z"/><path class="cls-5" d="M278.35,222c31.67-15.32,71.5-1.81,95,18,33.84,28.51,37,72.47,38,86,5.11,70.61-42.5,105.66-21,154"/><path class="cls-16" d="M390.35,434c-11.09-6.42-28.66,29.6-71,48-41.89,18.19-87.62,10.26-96-2-.66-1-2.55-4.1-5-4-5.21.19-12.07,14.87-9,23,6.92,18.34,67.15,10.35,100,6,4.81-.64,65.81-9.18,81-33a40.07,40.07,0,0,0,6-18C396.55,449,395.87,437.17,390.35,434Z"/><path class="cls-16" d="M246.35,485c7.28-4.31,19-5.74,24,0,6.23,7.12.59,23.51-10,30-6.73,4.12-17.87,5.72-23,0-3.83-4.27-2.72-10.81-2.25-13.6C236.9,490.76,245.67,485.38,246.35,485Z"/><path class="cls-16" d="M253.35,511c-2.49-5-8.62-8.77-14-8-3.06.43-6.75,2.47-16,22-8.61,18.17-12.86,27.4-10,34,3.36,7.75,13.1,14,20,12,6.31-1.89,4.86-9.18,15-36C253.23,522.05,256.22,516.72,253.35,511Z"/><path class="cls-16" d="M235.35,530a14.46,14.46,0,0,1-8-12c-.35-7,4.78-14.12,12-15,6.2-.77,11.57,3.38,14,8,2.59,4.91,2.88,12.28-2,17C246.9,532.28,240.19,532.39,235.35,530Z"/><polygon class="cls-1" points="346.18 540.14 589.42 455.09 637.49 464.81 608.28 495.75 353.6 561.24 346.18 540.14"/><polygon class="cls-5" points="350.88 550.81 637.49 464.81 589.42 455.09 347.3 539.27 350.88 550.81"/><polygon class="cls-1" points="637.49 464.81 589.42 455.09 573.06 484.03 608.28 495.75 637.49 464.81"/><path class="cls-4" d="M323.89,517.17c1-4.33,9.3-7.6,14.76-5.19,3.19,1.4,4.71,4.44,5.33,5.71,9.16,18.94,21.75,52.63,17.4,69.73a12.42,12.42,0,0,1-3.85,6.57c-3.24,2.7-8.59,3.77-11.29,1.59-2.2-1.77-1-4.35-1.85-9.3-1-5.41-5.34-11.59-14.11-24a20.24,20.24,0,0,1-3.22-6.45,21,21,0,0,1-.56-8c1.18-12.68,4.35-14.51,3.08-19.94C328.1,521.67,323,520.79,323.89,517.17Z"/><path class="cls-16" d="M332.41,545.46c-8-6.79-20.69-.49-45.28,7.38-47.09,15.07-66.45,13-71,27.32-1.44,4.54-1.53,11.19,2.09,15.39,7,8.15,22.55.72,72.21-13.06,30.58-8.49,44.46-11.15,47-21.27A16.4,16.4,0,0,0,332.41,545.46Z"/><path class="cls-1" d="M221.48,577.81c-9-9.79-31.29-10.73-39.7,3.05-7,11.54-1.34,28.51,8.89,33.38,14,6.65,35.26-9.88,35.38-24.76A17.76,17.76,0,0,0,221.48,577.81Z"/><path class="cls-2" d="M297.35,251c18.8,1.93,39.42,18,41,40,1.74,24.11-20.31,42.67-41,47-23.19,4.84-50-7.1-56-26C233,285.8,265,247.65,297.35,251Z"/><path class="cls-3" d="M303.28,516.87c17.45,13.58,20.1,21,18.7,25.3-1.19,3.66-4.93,4.05-6.6,8.8-2.76,7.85,5.16,13.32,4.4,19.8-1.31,11.17-28.27,25.36-50.6,16.5-18.77-7.44-32.74-30.55-25.3-50.6C251.44,516.28,279,504.75,303.28,516.87Z"/><path class="cls-2" d="M162.43,435.19c9.8,49.51,47.29,100.25,93.19,107.41,5.73.89,19.49,2.5,32.47-5.28,2.35-1.41,11.79-7.07,15-16.24,5.16-14.59-8.36-29.54-23-50.14-38-53.56-29.39-69.35-58-89.07-5.9-4.06-33.84-23.29-50.63-13.27C151.6,380.48,160.66,426.25,162.43,435.19Z"/><path class="cls-2" d="M160.35,386c-.72-38.11,32.85-68.74,76-134,7.18-10.86,14.9-21.29,26-22,16.77-1.08,36.24,20.6,40,43,3.45,20.54-8.71,27.41-30,80-13.52,33.4-15.55,42.87-26,58-12.57,18.19-35.51,41.55-54,35C173.32,439.23,160.54,396,160.35,386Z"/><path class="cls-1" d="M235.35,212c4.24-3.72,18.19-14.72,36-13,25.71,2.47,43.4,29.89,48,51,10.59,48.53-38.88,105.63-68,100-23.46-4.55-33.38-49.77-35-72.06C215.31,264.08,212.92,231.63,235.35,212Z"/><path class="cls-5" d="M256.35,200c5.42-.68,20.29-1.78,35,7,15.42,9.19,21.06,23.52,24,31,11.37,28.86.46,55.5-3,63a83.8,83.8,0,0,1-13,20"/><path class="cls-10" d="M291.35,560a18.74,18.74,0,0,0,11,27"/><path class="cls-10" d="M261.35,562a22.93,22.93,0,0,0,9,26"/></g></g></svg>