<svg xmlns="http://www.w3.org/2000/svg" viewBox="0 0 368.17 101.95"><defs><style>.cls-1{fill:#5c503d;stroke:#000;stroke-miterlimit:10;}.cls-2{fill:#6e5342;}</style></defs><title>fallentrunk</title><g id="Layer_2" data-name="Layer 2"><g id="Layer_1-2" data-name="Layer 1"><path class="cls-1" d="M59.26,14.26a507,507,0,0,0,53.25,15.33c164,37.25,213.62,24.94,228.19,19.46,4.3-1.62,5.6-1.95,5.6-1.95,9.07-3.34,12.81-5.63,13.36-4.9,1.1,1.46-13.3,11.59-11.42,15.58s19-.28,19.42,1.42c.3,1.32-10.34,3.2-11,8-.61,4.41,7.7,7.8,7,10-1.41,4.43-26.81-1.38-26.81-1.38-40-9.14-166.61-29.4-264.82.12-3,.89-4.59,1.42-4.77,1.45,0,0-20.37,7.15-22.14,8.65-8.11,6.88-16.2,21.32-13.2,12.8,1.94-5.51,1.41-6.68,10.34-21.84,2.09-3.54-21.88-1.94-19.92-5.32,1-1.79,16.29-14,17.25-15.73C43,50.06,15.67,45.76,12.66,43.2c-5.56-4.74,32-16,29.49-22.21C39.53,14.56-26,32.22,12.66,17.2c18-7,26.37-.81,25.72-4.08C37,6.07,11.66,2.2,28.16.5c.54,0,7.27,2,7.5,2.7C36.84,6.85,56.82,3.65,59.26,14.26Z"/><path class="cls-2" d="M359.7,42.69a87,87,0,0,1-29,16.7c-15.33,5-28.22,3.35-39,2,0,0-58.71-7.34-117-13C116.82,42.78,72,38.41,32,49.7h0c-7.4-2.69-17.58-4.8-19.36-6.31-5.56-4.73,32-16,29.49-22.21C39.53,14.75-26,32.41,12.66,17.39c18-7,26.36-.81,25.72-4.08C37,6.27,11.66,2.39,28.16.7c.54-.06,7.27,2,7.5,2.69,1.18,3.66,21.15.45,23.59,11.06a504.91,504.91,0,0,0,53.26,15.33C276.52,67,326.13,54.73,340.7,49.25c4.3-1.62,5.6-2,5.6-2,9.07-3.35,12.81-5.64,13.36-4.91A.33.33,0,0,1,359.7,42.69Z"/></g></g></svg>