<svg xmlns="http://www.w3.org/2000/svg" viewBox="0 0 362.03 546.59"><defs><style>.cls-1{fill:#eef4c3;}.cls-1,.cls-2,.cls-3,.cls-4{stroke:#000;stroke-miterlimit:10;}.cls-2{fill:#fcffcf;}.cls-3{fill:#979b76;}.cls-4{fill:#a5a883;}</style></defs><title>giantmushroom2</title><g id="Layer_2" data-name="Layer 2"><g id="Layer_1-2" data-name="Layer 1"><path class="cls-1" d="M86.59,513.86c13.4,22.07,40.53,28.12,49,30,31,6.91,69.66-2.29,87-27,21.33-30.41-9.71-55.7-6-134,2.51-53.24,17.8-61.26,12-106-3.24-24.9-8.7-67-40-84-36.29-19.71-94.91,1-111,36-18.2,39.54,33.24,64,34,138C112.32,439.55,63.28,475.5,86.59,513.86Z"/><path class="cls-2" d="M77.59,228.86c-18.2,39.54,33.24,64,34,138,.73,72.69-48.31,108.64-25,147,13.4,22.07,40.53,28.12,49,30,31,6.91,69.66-2.29,87-27"/><path class="cls-3" d="M8.59,294.86c25.24,49.18,99.33,55.71,148,60,24,2.12,168.2,14.84,201-54,16.15-33.91-18.23-92.61-87-210-43.47-74.19-59.13-87.65-78-90-44.17-5.5-83.67,52.55-118,103C28.94,170.93-18.93,241.28,8.59,294.86Z"/><path class="cls-4" d="M192.59.86c-44.17-5.5-83.67,52.55-118,103-45.65,67.07-93.52,137.42-66,191"/></g></g></svg>