<svg xmlns="http://www.w3.org/2000/svg" viewBox="0 0 376.34 466.07"><defs><style>.cls-1{fill:#eef4c3;}.cls-1,.cls-2,.cls-3,.cls-4{stroke:#000;stroke-miterlimit:10;}.cls-2{fill:#dd5061;}.cls-3{fill:#ed5871;}.cls-4{fill:#fff;}</style></defs><title>giantmushroom1</title><g id="Layer_2" data-name="Layer 2"><g id="Layer_1-2" data-name="Layer 1"><path class="cls-1" d="M149.45,445.91a141.92,141.92,0,0,0,48,17c12,1.92,55.79,8.89,75-12,9.38-10.19,9.78-23.63-1-85-20.48-116.54-35.41-144.65-20-179,2.51-5.58,6.8-13.54,4-22-8.07-24.35-69-34.74-84-15-6.36,8.37-3.09,20.35-1,29,3.41,14.11,35.7,147.77-10,203-10.86,13.13-27.37,23.33-26,40C135.32,432.55,143.05,440.7,149.45,445.91Z"/><path class="cls-2" d="M23.45,156.91c38.8,33.66,90.05-19.08,174,2,73.87,18.56,92.28,74,130,62,35.31-11.23,57.15-71.91,45-118-21.54-81.68-144.57-97.5-164-100-71.33-9.17-182.74,6.39-204,71C-4.1,99.91.8,137.27,23.45,156.91Z"/><path class="cls-3" d="M93.29,9.28C51.43,19.7,15.58,40.08,4.45,73.91c-3.86,11.73-5,25.78-3,39.47"/><ellipse class="cls-4" cx="95.95" cy="86.41" rx="30.5" ry="25.5"/><ellipse class="cls-4" cx="199.95" cy="67.41" rx="25.5" ry="28.5"/><circle class="cls-4" cx="311.95" cy="178.41" r="15.5"/><circle class="cls-4" cx="259.45" cy="126.91" r="15"/><circle class="cls-4" cx="165.95" cy="114.41" r="13.5"/><ellipse class="cls-4" cx="298.95" cy="70.91" rx="19.5" ry="25"/><circle class="cls-4" cx="143.45" cy="39.91" r="9"/></g></g></svg>