<svg xmlns="http://www.w3.org/2000/svg" viewBox="0 0 625.12 557.11"><defs><style>.cls-1{fill:#6e5342;}.cls-1,.cls-2,.cls-3,.cls-4{stroke:#000;stroke-miterlimit:10;}.cls-2{fill:#5c503d;}.cls-3{fill:#665742;}.cls-4{fill:#7c5948;}</style></defs><title>house</title><g id="Layer_2" data-name="Layer 2"><g id="Layer_1-2" data-name="Layer 1"><polygon class="cls-1" points="78.08 180.11 78.08 554.11 553.08 554.11 553.08 184.11 78.08 180.11"/><path class="cls-1" d="M77.58,524.61c37.42-2.25,77.16-3.4,119-3,29.82.29,27.51,1.35,55,3a36.5,36.5,0,0,1,0,29c-32.84,1.93-36.56,3-73,3-35.34,0-69.05-1.12-101-3a36.5,36.5,0,0,1,0-29Z"/><path class="cls-1" d="M77.58,496.61c37.42-2.25,77.16-3.4,119-3,29.82.29,27.51,1.35,55,3a36.5,36.5,0,0,1,0,29c-32.84,1.93-36.56,3-73,3-35.34,0-69.05-1.12-101-3a36.5,36.5,0,0,1,0-29Z"/><path class="cls-1" d="M77.58,467.61c37.42-2.25,77.16-3.4,119-3,29.82.29,27.51,1.35,55,3a36.5,36.5,0,0,1,0,29c-32.84,1.93-36.56,3-73,3-35.34,0-69.05-1.12-101-3a36.5,36.5,0,0,1,0-29Z"/><path class="cls-1" d="M77.58,441.61c37.42-2.25,77.16-3.4,119-3,29.82.29,27.51,1.35,55,3a36.5,36.5,0,0,1,0,29c-32.84,1.93-36.56,3-73,3-35.34,0-69.05-1.12-101-3a36.5,36.5,0,0,1,0-29Z"/><path class="cls-1" d="M77.58,413.61c37.42-2.25,77.16-3.4,119-3,29.82.29,27.51,1.35,55,3a36.5,36.5,0,0,1,0,29c-32.84,1.93-36.56,3-73,3-35.34,0-69.05-1.12-101-3a36.5,36.5,0,0,1,0-29Z"/><path class="cls-1" d="M77.58,386.61c37.42-2.25,77.16-3.4,119-3,29.82.29,27.51,1.35,55,3a36.5,36.5,0,0,1,0,29c-32.84,1.93-36.56,3-73,3-35.34,0-69.05-1.12-101-3a36.5,36.5,0,0,1,0-29Z"/><path class="cls-1" d="M77.58,358.61c37.42-2.25,77.16-3.4,119-3,29.82.29,27.51,1.35,55,3a36.5,36.5,0,0,1,0,29c-32.84,1.93-36.56,3-73,3-35.34,0-69.05-1.12-101-3a36.5,36.5,0,0,1,0-29Z"/><path class="cls-1" d="M386.58,524.61c37.42-2.25,39.16-3.4,81-3,29.82.29,58.51,1.35,86,3a36.5,36.5,0,0,1,0,29c-32.84,1.93-67.56,3-104,3-35.34,0-31.05-1.12-63-3a36.5,36.5,0,0,1,0-29Z"/><path class="cls-1" d="M386.58,496.61c37.42-2.25,39.16-3.4,81-3,29.82.29,58.51,1.35,86,3a36.5,36.5,0,0,1,0,29c-32.84,1.93-67.56,3-104,3-35.34,0-31.05-1.12-63-3a36.5,36.5,0,0,1,0-29Z"/><path class="cls-1" d="M386.58,467.61c37.42-2.25,39.16-3.4,81-3,29.82.29,58.51,1.35,86,3a36.5,36.5,0,0,1,0,29c-32.84,1.93-67.56,3-104,3-35.34,0-31.05-1.12-63-3a36.5,36.5,0,0,1,0-29Z"/><path class="cls-1" d="M386.58,441.61c37.42-2.25,39.16-3.4,81-3,29.82.29,58.51,1.35,86,3a36.5,36.5,0,0,1,0,29c-32.84,1.93-67.56,3-104,3-35.34,0-31.05-1.12-63-3a36.5,36.5,0,0,1,0-29Z"/><path class="cls-1" d="M386.58,413.61c37.42-2.25,39.16-3.4,81-3,29.82.29,58.51,1.35,86,3a36.5,36.5,0,0,1,0,29c-32.84,1.93-67.56,3-104,3-35.34,0-31.05-1.12-63-3a36.5,36.5,0,0,1,0-29Z"/><path class="cls-1" d="M386.58,386.61c37.42-2.25,39.16-3.4,81-3,29.82.29,58.51,1.35,86,3a36.5,36.5,0,0,1,0,29c-32.84,1.93-67.56,3-104,3-35.34,0-31.05-1.12-63-3a36.5,36.5,0,0,1,0-29Z"/><path class="cls-1" d="M386.58,358.61c37.42-2.25,39.16-3.4,81-3,29.82.29,58.51,1.35,86,3a36.5,36.5,0,0,1,0,29c-32.84,1.93-67.56,3-104,3-35.34,0-31.05-1.12-63-3a36.5,36.5,0,0,1,0-29Z"/><path class="cls-1" d="M77.58,331.61c37.42-2.25,77.19-1.39,119-3,130-5,331.51-2.65,359-1a36.5,36.5,0,0,1,0,29c-32.84,1.93-196.56,7-233,7-35.34,0-213-1.12-245-3a36.5,36.5,0,0,1,0-29Z"/><path class="cls-1" d="M77.58,299.61c37.42-2.25,77.19-1.39,119-3,130-5,331.51-2.65,359-1a36.5,36.5,0,0,1,0,29c-32.84,1.93-196.56,7-233,7-35.34,0-213-1.12-245-3a36.5,36.5,0,0,1,0-29Z"/><path class="cls-1" d="M77.58,271.61c37.42-2.25,77.19-1.39,119-3,130-5,331.51-2.65,359-1a36.5,36.5,0,0,1,0,29c-32.84,1.93-196.56,7-233,7-35.34,0-213-1.12-245-3a36.5,36.5,0,0,1,0-29Z"/><path class="cls-1" d="M77.58,242.61c37.42-2.25,77.19-1.39,119-3,130-5,331.51-2.65,359-1a36.5,36.5,0,0,1,0,29c-32.84,1.93-196.56,7-233,7-35.34,0-213-1.12-245-3a36.5,36.5,0,0,1,0-29Z"/><path class="cls-1" d="M76.58,211.61c37.42-2.25,77.19-1.39,119-3,130-5,331.51-2.65,359-1a36.5,36.5,0,0,1,0,29c-32.84,1.93-196.56,7-233,7-35.34,0-213-1.12-245-3a36.5,36.5,0,0,1,0-29Z"/><path class="cls-1" d="M76.58,179.61c37.42-2.25,77.19-1.39,119-3,130-5,331.51-2.65,359-1a36.5,36.5,0,0,1,0,29c-32.84,1.93-196.56,7-233,7-35.34,0-213-1.12-245-3a36.5,36.5,0,0,1,0-29Z"/><polygon class="cls-2" points="254.58 362.61 383.58 362.61 383.58 553.61 254.58 552.61 254.58 362.61"/><polygon class="cls-2" points="270.58 373.61 364.58 372.61 364.58 541.61 270.58 541.61 270.58 373.61"/><polygon class="cls-2" points="349.58 372.61 364.58 372.61 364.58 390.61 289.58 542.61 270.58 541.61 270.58 524.61 349.58 372.61"/><rect class="cls-2" x="370.58" y="431.61" width="8" height="31"/><polygon class="cls-2" points="36.58 209.61 592.58 209.61 317.58 11.61 36.58 209.61"/><polyline class="cls-3" points="317.58 11.61 36.58 209.61 237.08 209.61"/><polygon class="cls-2" points="1.58 222.61 317.58 0.61 623.58 222.61 600.58 222.61 317.58 20.61 23.58 222.61 1.58 222.61"/><path class="cls-4" d="M77.58,524.61c37.42-2.25,77.16-3.4,119-3,29.82.29,27.51,1.35,55,3a36.5,36.5,0,0,1,0,29c-32.84,1.93-36.56,3-73,3-35.34,0-69.05-1.12-101-3a36.5,36.5,0,0,1,0-29Z"/><path class="cls-4" d="M77.58,496.61c37.42-2.25,77.16-3.4,119-3,29.82.29,27.51,1.35,55,3a36.5,36.5,0,0,1,0,29c-32.84,1.93-36.56,3-73,3-35.34,0-69.05-1.12-101-3a36.5,36.5,0,0,1,0-29Z"/><path class="cls-4" d="M77.58,467.61c37.42-2.25,77.16-3.4,119-3,29.82.29,27.51,1.35,55,3a36.5,36.5,0,0,1,0,29c-32.84,1.93-36.56,3-73,3-35.34,0-69.05-1.12-101-3a36.5,36.5,0,0,1,0-29Z"/><path class="cls-4" d="M77.58,441.61c37.42-2.25,77.16-3.4,119-3,29.82.29,27.51,1.35,55,3a36.5,36.5,0,0,1,0,29c-32.84,1.93-36.56,3-73,3-35.34,0-69.05-1.12-101-3a36.5,36.5,0,0,1,0-29Z"/><path class="cls-4" d="M77.58,413.61c37.42-2.25,77.16-3.4,119-3,29.82.29,27.51,1.35,55,3a36.5,36.5,0,0,1,0,29c-32.84,1.93-36.56,3-73,3-35.34,0-69.05-1.12-101-3a36.5,36.5,0,0,1,0-29Z"/><path class="cls-4" d="M77.58,386.61c37.42-2.25,77.16-3.4,119-3,29.82.29,27.51,1.35,55,3a36.5,36.5,0,0,1,0,29c-32.84,1.93-36.56,3-73,3-35.34,0-69.05-1.12-101-3a36.5,36.5,0,0,1,0-29Z"/><path class="cls-4" d="M77.58,358.61c37.42-2.25,77.16-3.4,119-3,29.82.29,27.51,1.35,55,3a36.5,36.5,0,0,1,0,29c-32.84,1.93-36.56,3-73,3-35.34,0-69.05-1.12-101-3a36.5,36.5,0,0,1,0-29Z"/><path class="cls-4" d="M322.58,363.61c-35.34,0-213-1.12-245-3a36.5,36.5,0,0,1,0-29c37.42-2.25,77.19-1.39,119-3"/><path class="cls-4" d="M322.58,331.61c-35.34,0-213-1.12-245-3a36.5,36.5,0,0,1,0-29c37.42-2.25,77.19-1.39,119-3"/><path class="cls-4" d="M322.58,303.61c-35.34,0-213-1.12-245-3a36.5,36.5,0,0,1,0-29c37.42-2.25,77.19-1.39,119-3"/><path class="cls-4" d="M322.58,274.61c-35.34,0-213-1.12-245-3a36.5,36.5,0,0,1,0-29c37.42-2.25,77.19-1.39,119-3"/><path class="cls-4" d="M321.58,243.61c-35.34,0-213-1.12-245-3a36.5,36.5,0,0,1,0-29c37.42-2.25,77.19-1.39,119-3"/><line class="cls-3" x1="254.58" y1="552.61" x2="254.58" y2="362.61"/><line class="cls-3" x1="270.58" y1="541.61" x2="270.58" y2="373.61"/><polyline class="cls-3" points="289.58 542.61 270.58 541.61 270.58 524.61"/><line class="cls-3" x1="317.58" y1="11.61" x2="36.58" y2="209.61"/><polyline class="cls-3" points="317.58 20.61 23.58 222.61 1.58 222.61 317.58 0.61"/></g></g></svg>