<svg xmlns="http://www.w3.org/2000/svg" viewBox="0 0 657.78 296.02"><defs><style>.cls-1{fill:#939393;}.cls-1,.cls-10,.cls-11,.cls-12,.cls-2,.cls-3,.cls-4,.cls-5,.cls-6,.cls-7{stroke:#000;stroke-miterlimit:10;}.cls-2{fill:#646464;}.cls-3{fill:#bebebe;}.cls-4{fill:#d2d2d2;}.cls-5{fill:#787878;}.cls-6,.cls-8{fill:#194500;}.cls-7{fill:#007330;}.cls-9{fill:#192200;}.cls-10{fill:#00322b;}.cls-11{fill:#00432b;}.cls-12{fill:#00522b;}</style></defs><title>overgrownrock_1</title><g id="Layer_2" data-name="Layer 2"><g id="Layer_1-2" data-name="Layer 1"><path class="cls-1" d="M595.24,98.13l-51,31.28L351.66,91l-78.21,38.4,50.14-39.09,34.09-8.91,174.48,35.65,60.9-27.17-.81-3-63.43,2.77L492.05,80l-60.83,4.11-119-37.71-100.28-11L123,56,50.55,97.25l-4.26,26.81L190.55,167.8l138.38-27.42,39.45,8.91,74.87-9.6,57.49,19.89h77.55l25.4-8.38V130.09ZM146.43,86.21l20.06-16.46,22.06,3.43,15.5,18-34.89,15L146.43,91.37Z"/><path class="cls-1" d="M573.61,174l30.08-13.85v18.65l-1,3.38-38.4,16.51H127.71L55.65,174,43.48,141.75l.84-5.24,64.67,19,79.56,25.37L249.38,174l83.56-20.57,38.11,6.18,58.16-10.29s65.51,19.2,68.19,19.2S573.61,174,573.61,174Z"/><polygon class="cls-2" points="602.65 182.15 590.99 219.91 565.59 229.51 113.67 229.51 62.87 193.17 55.65 174.02 127.71 198.66 564.25 198.66 602.65 182.15"/><polygon class="cls-3" points="592.25 86.87 528.82 89.64 492.05 80.04 431.22 84.15 312.22 46.44 211.94 35.47 123.03 56.04 50.55 97.25 53.05 81.52 109.66 35.47 202.59 12.84 344.31 35.47 437.23 65.64 476.68 58.1 556.23 75.24 578.17 66.76 590.99 82.09 592.25 86.87"/><polygon class="cls-4" points="578.17 66.76 556.23 75.24 476.68 58.1 437.23 65.64 344.31 35.47 202.59 12.84 109.66 35.47 53.05 81.52 53.51 78.67 99.63 21.07 173.17 0.5 284.81 0.5 348.99 21.76 432.55 54.67 477.34 49.87 528.15 61.52 574.95 62.9 578.17 66.76"/><path class="cls-5" d="M603.69,151.2v8.92L573.61,174s-73.54-5.48-76.21-5.48-68.19-19.2-68.19-19.2l-58.16,10.29-38.11-6.18L249.38,174l-60.83,6.86L109,155.46l-64.67-19,2-12.45L190.55,167.8l138.38-27.42,39.45,8.91,74.87-9.6,57.49,19.89h77.55Z"/><polygon class="cls-2" points="204.05 91.14 169.16 106.09 146.43 91.37 146.43 86.21 166.49 69.75 188.55 73.18 204.05 91.14"/><polygon class="cls-4" points="209.27 97.18 189.22 111.58 166.49 117.06 146.43 101.98 146.43 91.37 169.16 106.09 204.05 91.14 209.27 97.18"/><polygon class="cls-5" points="595.24 98.13 544.2 129.41 351.66 91.01 273.45 129.41 323.59 90.32 357.68 81.41 532.16 117.06 593.06 89.89 595.24 98.13"/><path class="cls-6" d="M103.16,240c-1.34-2.32,1.41-5.39,3-9,8.32-18.9-17.81-46.63-16-48,1.16-.88,14,8.9,20,26,4.88,14,2.74,26,3,26,1,.07,14-160,14-160s-10.07,152.92-9,153c.37,0,1-18.31,5-42,9.39-56.1,29.62-96.48,31-96,1.94.68-38.08,80.87-28,124,.9,3.84,4.23,16.11-2,23C118.38,243.39,105.45,244,103.16,240Z"/><path class="cls-6" d="M489.16,240c-1.34-2.32,1.41-5.39,3-9,8.32-18.9-17.81-46.63-16-48,1.16-.88,14,8.9,20,26,4.88,14,2.74,26,3,26,.95.07,14-160,14-160s-10.07,152.92-9,153c.37,0,1-18.31,5-42,9.39-56.1,29.62-96.48,31-96,1.94.68-38.08,80.87-28,124,.9,3.84,4.23,16.11-2,23C504.38,243.39,491.45,244,489.16,240Z"/><path class="cls-6" d="M358.16,255c-1.34-2.32,1.41-5.39,3-9,8.32-18.9-17.81-46.63-16-48,1.16-.88,14,8.9,20,26,4.88,14,2.74,26,3,26,.95.07,14-160,14-160s-10.07,152.92-9,153c.37,0,1-18.31,5-42,9.39-56.1,29.62-96.48,31-96,1.94.68-38.08,80.87-28,124,.9,3.84,4.23,16.11-2,23C373.38,258.39,360.45,259,358.16,255Z"/><path class="cls-7" d="M55.6,238.09c-6.37-3.49-8.61-6.93-17.53-9.88-11.12-3.66-20-2.38-20-3.43s10.8-4.17,22.54-2.15c7.38,1.27,10.11,4.07,11.52,3,2.91-2.21-3.86-17.44-18-26.62C18.4,188.88.35,190.41.5,188.72c.14-1.49,14.3-4.34,28.05.43,15,5.19,19.5,16,23,14.59,4.28-1.66,2.36-19.25-8-34.34C34.37,156,22.11,149.82,23,148.8S37.31,153,48.58,163.39c12.56,11.54,14.34,21.84,17,21.47,7.55-1.05-.79-82.83-.5-82.85s8.64,77.41,15,77.27c2.8-.07,1.37-14.95,14-30.05,8.9-10.62,20.77-16.58,21.54-15.89s-8.83,6.84-16,18.46c-8.2,13.23-11.29,30.19-6,32.63,4.67,2.15,11.29-9.19,31.05-16.74,17.77-6.8,34.25-6,34.56-4.73.39,1.55-24,2.59-41.57,18.46-8.59,7.78-14.66,18.34-12,20.61,1.53,1.31,5.09-1,14.53-3.44,12.93-3.36,25.14-4.57,25.54-3.43s-9.82,3.11-21,11.16c-4.13,3-10.65,8.36-9.51,9.87.64.86,4.26-1,12.52-2.57,1.83-.35,9.62-1.81,10-.86s-8,3-15.53,8.58c-8.95,6.66-6.85,11.17-13,16.32C97.49,247.41,71.35,246.71,55.6,238.09Z"/><path class="cls-8" d="M55.6,238.09c-3.28-3-4.78-6.71-11-9.88-7.38-3.74-14.59-3.35-14.53-3.86s8.14-1.57,16.53,1.29c6.72,2.28,8.76,5.39,10,4.72,2.76-1.48-2.05-19.1-17-30.48-11-8.34-23.8-10.56-23.54-11.16s8.51.61,17,4.72C49.37,201.31,53,213.75,56.6,212.76c4.16-1.14,4.59-19-4.51-34.77-6.26-10.87-15.32-17.82-14.53-18.46s7.15,3.61,13,9.44c12.25,12.17,14.39,24.44,17,24,3.43-.52,1.06-21.51,4-21.89,2.6-.33,6.61,15.79,9.52,15.45,2.32-.27.08-10.6,5.51-22.75,4.69-10.49,12.94-17.49,13.52-17.17s-4.55,5.69-8,14.17c-5.65,13.84-4.46,29.45,0,30.48,3.53.81,5.92-8.29,19-15.46,8.11-4.43,16.5-6.05,17-5.15.63,1.06-10.47,4.35-18.53,13.74-8.77,10.2-10.34,23.39-7,24.89,1.9.86,4.32-2.6,13.52-6.43,6.1-2.55,13-4.33,13.52-3.44s-5.36,3.5-12.52,9.87c-.66.59-10.76,9.67-9,11.6.35.39,1.34.52,12.52-3,2.38-.75,9.94-3.16,10-3s-10.56,1.84-15,8.58c-.24.36-1.17,2.39-3,6.44-3.42,7.52-3.37,7.48-3.5,7.73C104.41,246.52,69.4,250.86,55.6,238.09Z"/><path class="cls-9" d="M55.6,238.09a10.28,10.28,0,0,0-1-3.87c-1.39-2.48-3.76-3.5-3.5-3.86s3.89.86,6,1.72c3.35,1.36,4,2,4.51,1.71,2-1.07-3.25-11.5-3.51-12-1.19-2.32-1.78-3.48-2-3.86-1.44-2.42-2.39-3.42-2-3.86.54-.61,3.87.79,4,.86,1.72.73,2,1.35,2.5,1.28,1.27-.17,2.2-4.52,1.51-12a88.83,88.83,0,0,0-7-26.18s2.83,10.4,12,16.74c2.92,2,4,1.9,4.5,1.72,4.57-1.66-1.41-21.17,0-21.47s6.28,17.11,9.52,16.74c.9-.1,1.47-1.56,3-9.44,1.23-6.3,2.91-15.89,3-15.88a70.3,70.3,0,0,0,.5,21c1.21,6.53,2.52,7.53,3.51,7.73,2.73.56,5.2-4.5,12.52-11.16,6.86-6.25,13.55-9.87,14-9.45.68.62-13,8.55-17.53,22.76-2.29,7.24-2,15.38,1,16.31,1.47.45,2.79-1.09,10-5.58,6.12-3.81,9.37-5.32,9.52-5.15.28.33-2.45,2.89-11.52,11.59-4.41,4.22-6.91,6.67-6,8.15.75,1.25,3.56,1.28,4,1.29,1.9,0,3.32-.65,5.51-1.72,2.58-1.25,3.82-2.31,4-2.14s-3.4,2.76-5.51,7.29c-1.17,2.53-2,4.29-1.5,6a6,6,0,0,1,.14,2.89c-.26.67-.62,1.36-.62,1.36l0,0C103.54,248.12,58,246.51,55.6,238.09Z"/><path class="cls-7" d="M94.6,244.09c-6.37-3.49-8.61-6.93-17.53-9.88-11.12-3.66-20-2.38-20-3.43s10.8-4.17,22.54-2.15c7.38,1.27,10.11,4.07,11.52,3,2.91-2.21-3.86-17.44-18-26.62-15.66-10.14-33.71-8.61-33.56-10.3.14-1.49,14.3-4.34,28.05.43,15,5.19,19.5,16,23,14.59,4.28-1.66,2.36-19.25-8-34.34C73.37,162,61.11,155.82,62,154.8S76.31,159,87.58,169.39c12.56,11.54,14.34,21.84,17,21.47,7.55-1.05-.79-82.83-.5-82.85s8.64,77.41,15,77.27c2.8-.07,1.37-14.95,14-30.05,8.9-10.62,20.77-16.58,21.54-15.89s-8.83,6.84-16,18.46c-8.2,13.23-11.29,30.19-6,32.63,4.67,2.15,11.29-9.19,31.05-16.74,17.77-6.8,34.25-6,34.56-4.73.39,1.55-24,2.59-41.57,18.46-8.59,7.78-14.66,18.34-12,20.61,1.53,1.31,5.09-1,14.53-3.44,12.93-3.36,25.14-4.57,25.54-3.43s-9.82,3.11-21,11.16c-4.13,3-10.65,8.36-9.51,9.87.64.86,4.26-1,12.52-2.57,1.83-.35,9.62-1.81,10-.86s-8,3-15.53,8.58c-9,6.66-6.85,11.17-13,16.32C136.49,253.41,110.35,252.71,94.6,244.09Z"/><path class="cls-8" d="M94.6,244.09c-3.28-3-4.78-6.71-11-9.88-7.38-3.74-14.59-3.35-14.53-3.86s8.14-1.57,16.53,1.29c6.72,2.28,8.76,5.39,10,4.72,2.76-1.48-2-19.1-17-30.48-11-8.34-23.8-10.56-23.54-11.16s8.51.61,17,4.72C88.37,207.31,92,219.75,95.6,218.76c4.16-1.14,4.59-19-4.51-34.77-6.26-10.87-15.32-17.82-14.53-18.46s7.15,3.61,13,9.44c12.25,12.17,14.39,24.44,17,24,3.43-.52,1.06-21.51,4-21.89,2.6-.33,6.61,15.79,9.52,15.45,2.32-.27.08-10.6,5.51-22.75,4.69-10.49,12.94-17.49,13.52-17.17s-4.55,5.69-8,14.17c-5.65,13.84-4.46,29.45,0,30.48,3.53.81,5.92-8.29,19-15.46,8.11-4.43,16.5-6.05,17-5.15.63,1.06-10.47,4.35-18.53,13.74-8.77,10.2-10.34,23.39-7,24.89,1.9.86,4.32-2.6,13.52-6.43,6.1-2.55,13-4.33,13.52-3.44s-5.36,3.5-12.52,9.87c-.66.59-10.76,9.67-9,11.6.35.39,1.34.52,12.52-3,2.38-.75,9.94-3.16,10-3s-10.56,1.84-15,8.58c-.24.36-1.17,2.39-3,6.44-3.42,7.52-3.37,7.48-3.5,7.73C143.41,252.52,108.4,256.86,94.6,244.09Z"/><path class="cls-9" d="M94.6,244.09a10.28,10.28,0,0,0-1-3.87c-1.39-2.48-3.76-3.5-3.5-3.86s3.89.86,6,1.72c3.35,1.36,4,2,4.51,1.71,2-1.07-3.25-11.5-3.51-12-1.19-2.32-1.78-3.48-2-3.86-1.44-2.42-2.39-3.42-2-3.86.54-.61,3.87.79,4,.86,1.72.73,2,1.35,2.5,1.28,1.27-.17,2.2-4.52,1.51-12a88.83,88.83,0,0,0-7-26.18s2.83,10.4,12,16.74c2.92,2,4,1.9,4.5,1.72,4.57-1.66-1.41-21.17,0-21.47s6.28,17.11,9.52,16.74c.9-.1,1.47-1.56,3-9.44,1.23-6.3,2.91-15.89,3-15.88a70.3,70.3,0,0,0,.5,21c1.21,6.53,2.52,7.53,3.51,7.73,2.73.56,5.2-4.5,12.52-11.16,6.86-6.25,13.55-9.87,14-9.45.68.62-13,8.55-17.53,22.76-2.29,7.24-2,15.38,1,16.31,1.47.45,2.79-1.09,10-5.58,6.12-3.81,9.37-5.32,9.52-5.15.28.33-2.45,2.89-11.52,11.59-4.41,4.22-6.91,6.67-6,8.15.75,1.25,3.56,1.28,4,1.29,1.9,0,3.32-.65,5.51-1.72,2.58-1.25,3.82-2.31,4-2.14s-3.4,2.76-5.51,7.29c-1.17,2.53-2,4.29-1.5,6a6,6,0,0,1,.14,2.89c-.26.67-.62,1.36-.62,1.36l0,0C142.54,254.12,97,252.51,94.6,244.09Z"/><path class="cls-7" d="M153.6,253.09c-6.37-3.49-8.61-6.93-17.53-9.88-11.12-3.66-20-2.38-20-3.43s10.8-4.17,22.54-2.15c7.38,1.27,10.11,4.07,11.52,3,2.91-2.21-3.86-17.44-18-26.62-15.66-10.14-33.71-8.61-33.56-10.3.14-1.49,14.3-4.34,28.05.43,15,5.19,19.5,16,23,14.59,4.28-1.66,2.36-19.25-8-34.34-9.2-13.38-21.46-19.58-20.53-20.6s14.27,4.24,25.54,14.59c12.56,11.54,14.34,21.84,17,21.47,7.55-1.05-.79-82.83-.5-82.85s8.64,77.41,15,77.27c2.8-.07,1.37-14.95,14-30.05,8.9-10.62,20.77-16.58,21.54-15.89s-8.83,6.84-16,18.46c-8.2,13.23-11.29,30.19-6,32.63,4.67,2.15,11.29-9.19,31.05-16.74,17.77-6.8,34.25-6,34.56-4.73.39,1.55-24,2.59-41.57,18.46-8.59,7.78-14.66,18.34-12,20.61,1.53,1.31,5.09-1,14.53-3.44,12.93-3.36,25.14-4.57,25.54-3.43s-9.82,3.11-21,11.16c-4.13,3-10.65,8.36-9.51,9.87.64.86,4.26-1,12.52-2.57,1.83-.35,9.62-1.81,10-.86s-8,3-15.53,8.58c-9,6.66-6.85,11.17-13,16.32C195.49,262.41,169.35,261.71,153.6,253.09Z"/><path class="cls-8" d="M153.6,253.09c-3.28-3-4.78-6.71-11-9.88-7.38-3.74-14.59-3.35-14.53-3.86s8.14-1.57,16.53,1.29c6.72,2.28,8.76,5.39,10,4.72,2.76-1.48-2-19.1-17-30.48-11-8.34-23.8-10.56-23.54-11.16s8.51.61,17,4.72c16.31,7.87,19.91,20.31,23.54,19.32,4.16-1.14,4.59-19-4.51-34.77-6.26-10.87-15.32-17.82-14.53-18.46s7.15,3.61,13,9.44c12.25,12.17,14.39,24.44,17,24,3.43-.52,1.06-21.51,4-21.89,2.6-.33,6.61,15.79,9.52,15.45,2.32-.27.08-10.6,5.51-22.75,4.69-10.49,12.94-17.49,13.52-17.17s-4.55,5.69-8,14.17c-5.65,13.84-4.46,29.45,0,30.48,3.53.81,5.92-8.29,19-15.46,8.11-4.43,16.5-6.05,17-5.15.63,1.06-10.47,4.35-18.53,13.74-8.77,10.2-10.34,23.39-7,24.89,1.9.86,4.32-2.6,13.52-6.43,6.1-2.55,13-4.33,13.52-3.44s-5.36,3.5-12.52,9.87c-.66.59-10.76,9.67-9,11.6.35.39,1.34.52,12.52-3,2.38-.75,9.94-3.16,10-3s-10.56,1.84-15,8.58c-.24.36-1.17,2.39-3,6.44-3.42,7.52-3.37,7.48-3.5,7.73C202.41,261.52,167.4,265.86,153.6,253.09Z"/><path class="cls-9" d="M153.6,253.09a10.28,10.28,0,0,0-1-3.87c-1.39-2.48-3.76-3.5-3.5-3.86s3.89.86,6,1.72c3.35,1.36,4,2,4.51,1.71,2-1.07-3.25-11.5-3.51-12-1.19-2.32-1.78-3.48-2-3.86-1.44-2.42-2.39-3.42-2-3.86.54-.61,3.87.79,4,.86,1.72.73,2,1.35,2.5,1.28,1.27-.17,2.2-4.52,1.51-12a88.83,88.83,0,0,0-7-26.18s2.83,10.4,12,16.74c2.92,2,4,1.9,4.5,1.72,4.57-1.66-1.41-21.17,0-21.47s6.28,17.11,9.52,16.74c.9-.1,1.47-1.56,3-9.44,1.23-6.3,2.91-15.89,3-15.88a70.3,70.3,0,0,0,.5,21c1.21,6.53,2.52,7.53,3.51,7.73,2.73.56,5.2-4.5,12.52-11.16,6.86-6.25,13.55-9.87,14-9.45.68.62-13,8.55-17.53,22.76-2.29,7.24-2,15.38,1,16.31,1.47.45,2.79-1.09,10-5.58,6.12-3.81,9.37-5.32,9.52-5.15.28.33-2.45,2.89-11.52,11.59-4.41,4.22-6.91,6.67-6,8.15.75,1.25,3.56,1.28,4,1.29,1.9,0,3.32-.65,5.51-1.72,2.58-1.25,3.82-2.31,4-2.14s-3.4,2.76-5.51,7.29c-1.17,2.53-2,4.29-1.5,6a6,6,0,0,1,.14,2.89c-.26.67-.62,1.36-.62,1.36l0,0C201.54,263.12,156,261.51,153.6,253.09Z"/><path class="cls-7" d="M199.6,254.09c-6.37-3.49-8.61-6.93-17.53-9.88-11.12-3.66-20-2.38-20-3.43s10.8-4.17,22.54-2.15c7.38,1.27,10.11,4.07,11.52,3,2.91-2.21-3.86-17.44-18-26.62-15.66-10.14-33.71-8.61-33.56-10.3.14-1.49,14.3-4.34,28.05.43,15,5.19,19.5,16,23,14.59,4.28-1.66,2.36-19.25-8-34.34-9.2-13.38-21.46-19.58-20.53-20.6s14.27,4.24,25.54,14.59c12.56,11.54,14.34,21.84,17,21.47,7.55-1.05-.79-82.83-.5-82.85s8.64,77.41,15,77.27c2.8-.07,1.37-14.95,14-30.05,8.9-10.62,20.77-16.58,21.54-15.89s-8.83,6.84-16,18.46c-8.2,13.23-11.29,30.19-6,32.63,4.67,2.15,11.29-9.19,31-16.74,17.77-6.8,34.25-6,34.56-4.73.39,1.55-24,2.59-41.57,18.46-8.59,7.78-14.66,18.34-12,20.61,1.53,1.31,5.09-1,14.53-3.44,12.93-3.36,25.14-4.57,25.54-3.43s-9.82,3.11-21,11.16c-4.13,3-10.65,8.36-9.51,9.87.64.86,4.26-1,12.52-2.57,1.83-.35,9.62-1.81,10-.86s-8,3-15.53,8.58c-8.95,6.66-6.85,11.17-13,16.32C241.49,263.41,215.35,262.71,199.6,254.09Z"/><path class="cls-8" d="M199.6,254.09c-3.28-3-4.78-6.71-11-9.88-7.38-3.74-14.59-3.35-14.53-3.86s8.14-1.57,16.53,1.29c6.72,2.28,8.76,5.39,10,4.72,2.76-1.48-2-19.1-17-30.48-11-8.34-23.8-10.56-23.54-11.16s8.51.61,17,4.72c16.31,7.87,19.91,20.31,23.54,19.32,4.16-1.14,4.59-19-4.51-34.77-6.26-10.87-15.32-17.82-14.53-18.46s7.15,3.61,13,9.44c12.25,12.17,14.39,24.44,17,24,3.43-.52,1.06-21.51,4-21.89,2.6-.33,6.61,15.79,9.52,15.45,2.32-.27.08-10.6,5.51-22.75,4.69-10.49,12.94-17.49,13.52-17.17s-4.55,5.69-8,14.17c-5.65,13.84-4.46,29.45,0,30.48,3.53.81,5.92-8.29,19-15.46,8.11-4.43,16.5-6.05,17-5.15.63,1.06-10.47,4.35-18.53,13.74-8.77,10.2-10.34,23.39-7,24.89,1.9.86,4.32-2.6,13.52-6.43,6.1-2.55,13-4.33,13.52-3.44s-5.36,3.5-12.52,9.87c-.66.59-10.76,9.67-9,11.6.35.39,1.34.52,12.52-3,2.38-.75,9.94-3.16,10-3s-10.56,1.84-15,8.58c-.24.36-1.17,2.39-3,6.44-3.42,7.52-3.37,7.48-3.5,7.73C248.41,262.52,213.4,266.86,199.6,254.09Z"/><path class="cls-9" d="M199.6,254.09a10.28,10.28,0,0,0-1-3.87c-1.39-2.48-3.76-3.5-3.5-3.86s3.89.86,6,1.72c3.35,1.36,4,2,4.51,1.71,2-1.07-3.25-11.5-3.51-12-1.19-2.32-1.78-3.48-2-3.86-1.44-2.42-2.39-3.42-2-3.86.54-.61,3.87.79,4,.86,1.72.73,2,1.35,2.5,1.28,1.27-.17,2.2-4.52,1.51-12a88.83,88.83,0,0,0-7-26.18s2.83,10.4,12,16.74c2.92,2,4,1.9,4.5,1.72,4.57-1.66-1.41-21.17,0-21.47s6.28,17.11,9.52,16.74c.9-.1,1.47-1.56,3-9.44,1.23-6.3,2.91-15.89,3-15.88a70.3,70.3,0,0,0,.5,21c1.21,6.53,2.52,7.53,3.51,7.73,2.73.56,5.2-4.5,12.52-11.16,6.86-6.25,13.55-9.87,14-9.45.68.62-13,8.55-17.53,22.76-2.29,7.24-2,15.38,1,16.31,1.47.45,2.79-1.09,10-5.58,6.12-3.81,9.37-5.32,9.52-5.15.28.33-2.45,2.89-11.52,11.59-4.41,4.22-6.91,6.67-6,8.15.75,1.25,3.56,1.28,4,1.29,1.9,0,3.32-.65,5.51-1.72,2.58-1.25,3.82-2.31,4-2.14s-3.4,2.76-5.51,7.29c-1.17,2.53-2,4.29-1.5,6a6,6,0,0,1,.14,2.89c-.26.67-.62,1.36-.62,1.36l0,0C247.54,264.12,202,262.51,199.6,254.09Z"/><path class="cls-7" d="M240.6,263.09c-6.37-3.49-8.61-6.93-17.53-9.88-11.12-3.66-20-2.38-20-3.43s10.8-4.17,22.54-2.15c7.38,1.27,10.11,4.07,11.52,3,2.91-2.21-3.86-17.44-18-26.62-15.66-10.14-33.71-8.61-33.56-10.3.14-1.49,14.3-4.34,28.05.43,15,5.19,19.5,16,23,14.59,4.28-1.66,2.36-19.25-8-34.34-9.2-13.38-21.46-19.58-20.53-20.6s14.27,4.24,25.54,14.59c12.56,11.54,14.34,21.84,17,21.47,7.55-1.05-.79-82.83-.5-82.85s8.64,77.41,15,77.27c2.8-.07,1.37-14.95,14-30.05,8.9-10.62,20.77-16.58,21.54-15.89s-8.83,6.84-16,18.46c-8.2,13.23-11.29,30.19-6,32.63,4.67,2.15,11.29-9.19,31-16.74,17.77-6.8,34.25-6,34.56-4.73.39,1.55-24,2.59-41.57,18.46-8.59,7.78-14.66,18.34-12,20.61,1.53,1.31,5.09-1,14.53-3.44,12.93-3.36,25.14-4.57,25.54-3.43s-9.82,3.11-21,11.16c-4.13,3-10.65,8.36-9.51,9.87.64.86,4.26-1,12.52-2.57,1.83-.35,9.62-1.81,10-.86s-8,3-15.53,8.58c-8.95,6.66-6.85,11.17-13,16.32C282.49,272.41,256.35,271.71,240.6,263.09Z"/><path class="cls-8" d="M240.6,263.09c-3.28-3-4.78-6.71-11-9.88-7.38-3.74-14.59-3.35-14.53-3.86s8.14-1.57,16.53,1.29c6.72,2.28,8.76,5.39,10,4.72,2.76-1.48-2-19.1-17-30.48-11-8.34-23.8-10.56-23.54-11.16s8.51.61,17,4.72c16.31,7.87,19.91,20.31,23.54,19.32,4.16-1.14,4.59-19-4.51-34.77-6.26-10.87-15.32-17.82-14.53-18.46s7.15,3.61,13,9.44c12.25,12.17,14.39,24.44,17,24,3.43-.52,1.06-21.51,4-21.89,2.6-.33,6.61,15.79,9.52,15.45,2.32-.27.08-10.6,5.51-22.75,4.69-10.49,12.94-17.49,13.52-17.17s-4.55,5.69-8,14.17c-5.65,13.84-4.46,29.45,0,30.48,3.53.81,5.92-8.29,19-15.46,8.11-4.43,16.5-6.05,17-5.15.63,1.06-10.47,4.35-18.53,13.74-8.77,10.2-10.34,23.39-7,24.89,1.9.86,4.32-2.6,13.52-6.43,6.1-2.55,13-4.33,13.52-3.44s-5.36,3.5-12.52,9.87c-.66.59-10.76,9.67-9,11.6.35.39,1.34.52,12.52-3,2.38-.75,9.94-3.16,10-3s-10.56,1.84-15,8.58c-.24.36-1.17,2.39-3,6.44-3.42,7.52-3.37,7.48-3.5,7.73C289.41,271.52,254.4,275.86,240.6,263.09Z"/><path class="cls-9" d="M240.6,263.09a10.28,10.28,0,0,0-1-3.87c-1.39-2.48-3.76-3.5-3.5-3.86s3.89.86,6,1.72c3.35,1.36,4,2,4.51,1.71,2-1.07-3.25-11.5-3.51-12-1.19-2.32-1.78-3.48-2-3.86-1.44-2.42-2.39-3.42-2-3.86.54-.61,3.87.79,4,.86,1.72.73,2,1.35,2.5,1.28,1.27-.17,2.2-4.52,1.51-12a88.83,88.83,0,0,0-7-26.18s2.83,10.4,12,16.74c2.92,2,4,1.9,4.5,1.72,4.57-1.66-1.41-21.17,0-21.47s6.28,17.11,9.52,16.74c.9-.1,1.47-1.56,3-9.44,1.23-6.3,2.91-15.89,3-15.88a70.3,70.3,0,0,0,.5,21c1.21,6.53,2.52,7.53,3.51,7.73,2.73.56,5.2-4.5,12.52-11.16,6.86-6.25,13.55-9.87,14-9.45.68.62-13,8.55-17.53,22.76-2.29,7.24-2,15.38,1,16.31,1.47.45,2.79-1.09,10-5.58,6.12-3.81,9.37-5.32,9.52-5.15.28.33-2.45,2.89-11.52,11.59-4.41,4.22-6.91,6.67-6,8.15.75,1.25,3.56,1.28,4,1.29,1.9,0,3.32-.65,5.51-1.72,2.58-1.25,3.82-2.31,4-2.14s-3.4,2.76-5.51,7.29c-1.17,2.53-2,4.29-1.5,6a6,6,0,0,1,.14,2.89c-.26.67-.62,1.36-.62,1.36l0,.05C288.54,273.12,243,271.51,240.6,263.09Z"/><path class="cls-7" d="M291.6,274.09c-6.37-3.49-8.61-6.93-17.53-9.88-11.12-3.66-20-2.38-20-3.43s10.8-4.17,22.54-2.15c7.38,1.27,10.11,4.07,11.52,3,2.91-2.21-3.86-17.44-18-26.62-15.66-10.14-33.71-8.61-33.56-10.3.14-1.49,14.3-4.34,28.05.43,15,5.19,19.5,16,23,14.59,4.28-1.66,2.36-19.25-8-34.34-9.2-13.38-21.46-19.58-20.53-20.6s14.27,4.24,25.54,14.59c12.56,11.54,14.34,21.84,17,21.47,7.55-1.05-.79-82.83-.5-82.85s8.64,77.41,15,77.27c2.8-.07,1.37-14.95,14-30.05,8.9-10.62,20.77-16.58,21.54-15.89s-8.83,6.84-16,18.46c-8.2,13.23-11.29,30.19-6,32.63,4.67,2.15,11.29-9.19,31-16.74,17.77-6.8,34.25-6,34.56-4.73.39,1.55-24,2.59-41.57,18.46-8.59,7.78-14.66,18.34-12,20.61,1.53,1.31,5.09-1,14.53-3.44,12.93-3.36,25.14-4.57,25.54-3.43s-9.82,3.11-21,11.16c-4.13,3-10.65,8.36-9.51,9.87.64.86,4.26-1,12.52-2.57,1.83-.35,9.62-1.81,10-.86s-8,3-15.53,8.58c-8.95,6.66-6.85,11.17-13,16.32C333.49,283.41,307.35,282.71,291.6,274.09Z"/><path class="cls-8" d="M291.6,274.09c-3.28-3-4.78-6.71-11-9.88-7.38-3.74-14.59-3.35-14.53-3.86s8.14-1.57,16.53,1.29c6.72,2.28,8.76,5.39,10,4.72,2.76-1.48-2.05-19.1-17-30.48-11-8.34-23.8-10.56-23.54-11.16s8.51.61,17,4.72c16.31,7.87,19.91,20.31,23.54,19.32,4.16-1.14,4.59-19-4.51-34.77-6.26-10.87-15.32-17.82-14.53-18.46s7.15,3.61,13,9.44c12.25,12.17,14.39,24.44,17,24,3.43-.52,1.06-21.51,4-21.89,2.6-.33,6.61,15.79,9.52,15.45,2.32-.27.08-10.6,5.51-22.75,4.69-10.49,12.94-17.49,13.52-17.17s-4.55,5.69-8,14.17c-5.65,13.84-4.46,29.45,0,30.48,3.53.81,5.92-8.29,19-15.46,8.11-4.43,16.5-6.05,17-5.15.63,1.06-10.47,4.35-18.53,13.74-8.77,10.2-10.34,23.39-7,24.89,1.9.86,4.32-2.6,13.52-6.43,6.1-2.55,13-4.33,13.52-3.44s-5.36,3.5-12.52,9.87c-.66.59-10.76,9.67-9,11.6.35.39,1.34.52,12.52-3,2.38-.75,9.94-3.16,10-3s-10.56,1.84-15,8.58c-.24.36-1.17,2.39-3,6.44-3.42,7.52-3.37,7.48-3.5,7.73C340.41,282.52,305.4,286.86,291.6,274.09Z"/><path class="cls-9" d="M291.6,274.09a10.28,10.28,0,0,0-1-3.87c-1.39-2.48-3.76-3.5-3.5-3.86s3.89.86,6,1.72c3.35,1.36,4,2,4.51,1.71,2-1.07-3.25-11.5-3.51-12-1.19-2.32-1.78-3.48-2-3.86-1.44-2.42-2.39-3.42-2-3.86.54-.61,3.87.79,4,.86,1.72.73,2,1.35,2.5,1.28,1.27-.17,2.2-4.52,1.51-12a88.83,88.83,0,0,0-7-26.18s2.83,10.4,12,16.74c2.92,2,4,1.9,4.5,1.72,4.57-1.66-1.41-21.17,0-21.47s6.28,17.11,9.52,16.74c.9-.1,1.47-1.56,3-9.44,1.23-6.3,2.91-15.89,3-15.88a70.3,70.3,0,0,0,.5,21c1.21,6.53,2.52,7.53,3.51,7.73,2.73.56,5.2-4.5,12.52-11.16,6.86-6.25,13.55-9.87,14-9.45.68.62-13,8.55-17.53,22.76-2.29,7.24-2,15.38,1,16.31,1.47.45,2.79-1.09,10-5.58,6.12-3.81,9.37-5.32,9.52-5.15.28.33-2.45,2.89-11.52,11.59-4.41,4.22-6.91,6.67-6,8.15.75,1.25,3.56,1.28,4,1.29,1.9,0,3.32-.65,5.51-1.72,2.58-1.25,3.82-2.31,4-2.14s-3.4,2.76-5.51,7.29c-1.17,2.53-2,4.29-1.5,6a6,6,0,0,1,.14,2.89c-.26.67-.62,1.36-.62,1.36l0,.05C339.54,284.12,294,282.51,291.6,274.09Z"/><path class="cls-7" d="M553.6,238.09c-6.37-3.49-8.61-6.93-17.53-9.88-11.12-3.66-20-2.38-20-3.43s10.8-4.17,22.54-2.15c7.38,1.27,10.11,4.07,11.52,3,2.91-2.21-3.86-17.44-18-26.62-15.66-10.14-33.71-8.61-33.56-10.3.14-1.49,14.3-4.34,28,.43,15,5.19,19.5,16,23,14.59,4.28-1.66,2.36-19.25-8-34.34-9.2-13.38-21.46-19.58-20.53-20.6s14.27,4.24,25.54,14.59c12.56,11.54,14.34,21.84,17,21.47,7.55-1.05-.79-82.83-.5-82.85s8.64,77.41,15,77.27c2.8-.07,1.37-14.95,14-30.05,8.9-10.62,20.77-16.58,21.54-15.89s-8.83,6.84-16,18.46c-8.2,13.23-11.29,30.19-6,32.63,4.67,2.15,11.29-9.19,31.05-16.74,17.77-6.8,34.25-6,34.56-4.73.39,1.55-24,2.59-41.57,18.46-8.59,7.78-14.66,18.34-12,20.61,1.53,1.31,5.09-1,14.53-3.44,12.93-3.36,25.14-4.57,25.54-3.43s-9.82,3.11-21,11.16c-4.13,3-10.65,8.36-9.51,9.87.64.86,4.26-1,12.52-2.57,1.83-.35,9.62-1.81,10-.86s-8,3-15.53,8.58c-9,6.66-6.85,11.17-13,16.32C595.49,247.41,569.35,246.71,553.6,238.09Z"/><path class="cls-8" d="M553.6,238.09c-3.28-3-4.78-6.71-11-9.88-7.38-3.74-14.59-3.35-14.53-3.86s8.14-1.57,16.53,1.29c6.72,2.28,8.76,5.39,10,4.72,2.76-1.48-2.05-19.1-17-30.48-11-8.34-23.8-10.56-23.54-11.16s8.51.61,17,4.72c16.31,7.87,19.91,20.31,23.54,19.32,4.16-1.14,4.59-19-4.51-34.77-6.26-10.87-15.32-17.82-14.53-18.46s7.15,3.61,13,9.44c12.25,12.17,14.39,24.44,17,24,3.43-.52,1.06-21.51,4-21.89,2.6-.33,6.61,15.79,9.52,15.45,2.32-.27.08-10.6,5.51-22.75,4.69-10.49,12.94-17.49,13.52-17.17s-4.55,5.69-8,14.17c-5.65,13.84-4.46,29.45,0,30.48,3.53.81,5.92-8.29,19-15.46,8.11-4.43,16.5-6.05,17-5.15.63,1.06-10.47,4.35-18.53,13.74-8.77,10.2-10.34,23.39-7,24.89,1.9.86,4.32-2.6,13.52-6.43,6.1-2.55,13-4.33,13.52-3.44s-5.36,3.5-12.52,9.87c-.66.59-10.76,9.67-9,11.6.35.39,1.34.52,12.52-3,2.38-.75,9.94-3.16,10-3s-10.56,1.84-15,8.58c-.24.36-1.17,2.39-3,6.44-3.42,7.52-3.37,7.48-3.5,7.73C602.41,246.52,567.4,250.86,553.6,238.09Z"/><path class="cls-9" d="M553.6,238.09a10.28,10.28,0,0,0-1-3.87c-1.39-2.48-3.76-3.5-3.5-3.86s3.89.86,6,1.72c3.35,1.36,4,2,4.51,1.71,2-1.07-3.25-11.5-3.51-12-1.19-2.32-1.78-3.48-2-3.86-1.44-2.42-2.39-3.42-2-3.86.54-.61,3.87.79,4,.86,1.72.73,2,1.35,2.5,1.28,1.27-.17,2.2-4.52,1.51-12a88.83,88.83,0,0,0-7-26.18s2.83,10.4,12,16.74c2.92,2,4,1.9,4.5,1.72,4.57-1.66-1.41-21.17,0-21.47s6.28,17.11,9.52,16.74c.9-.1,1.47-1.56,3-9.44,1.23-6.3,2.91-15.89,3-15.88a70.3,70.3,0,0,0,.5,21c1.21,6.53,2.52,7.53,3.51,7.73,2.73.56,5.2-4.5,12.52-11.16,6.86-6.25,13.55-9.87,14-9.45.68.62-13,8.55-17.53,22.76-2.29,7.24-2,15.38,1,16.31,1.47.45,2.79-1.09,10-5.58,6.12-3.81,9.37-5.32,9.52-5.15.28.33-2.45,2.89-11.52,11.59-4.41,4.22-6.91,6.67-6,8.15.75,1.25,3.56,1.28,4,1.29,1.9,0,3.32-.65,5.51-1.72,2.58-1.25,3.82-2.31,4-2.14s-3.4,2.76-5.51,7.29c-1.17,2.53-2,4.29-1.5,6a6,6,0,0,1,.14,2.89c-.26.67-.62,1.36-.62,1.36l0,0C601.54,248.12,556,246.51,553.6,238.09Z"/><path class="cls-7" d="M515.6,252.09c-6.37-3.49-8.61-6.93-17.53-9.88-11.12-3.66-20-2.38-20-3.43s10.8-4.17,22.54-2.15c7.38,1.27,10.11,4.07,11.52,3,2.91-2.21-3.86-17.44-18-26.62-15.66-10.14-33.71-8.61-33.56-10.3.14-1.49,14.3-4.34,28.05.43,15,5.19,19.5,16,23,14.59,4.28-1.66,2.36-19.25-8-34.34-9.2-13.38-21.46-19.58-20.53-20.6s14.27,4.24,25.54,14.59c12.56,11.54,14.34,21.84,17,21.47,7.55-1.05-.79-82.83-.5-82.85s8.64,77.41,15,77.27c2.8-.07,1.37-14.95,14-30.05,8.9-10.62,20.77-16.58,21.54-15.89s-8.83,6.84-16,18.46c-8.2,13.23-11.29,30.19-6,32.63,4.67,2.15,11.29-9.19,31.05-16.74,17.77-6.8,34.25-6,34.56-4.73.39,1.55-24,2.59-41.57,18.46-8.59,7.78-14.66,18.34-12,20.61,1.53,1.31,5.09-1,14.53-3.44,12.93-3.36,25.14-4.57,25.54-3.43s-9.82,3.11-21,11.16c-4.13,3-10.65,8.36-9.51,9.87.64.86,4.26-1,12.52-2.57,1.83-.35,9.62-1.81,10-.86s-8,3-15.53,8.58c-9,6.66-6.85,11.17-13,16.32C557.49,261.41,531.35,260.71,515.6,252.09Z"/><path class="cls-8" d="M515.6,252.09c-3.28-3-4.78-6.71-11-9.88-7.38-3.74-14.59-3.35-14.53-3.86s8.14-1.57,16.53,1.29c6.72,2.28,8.76,5.39,10,4.72,2.76-1.48-2.05-19.1-17-30.48-11-8.34-23.8-10.56-23.54-11.16s8.51.61,17,4.72c16.31,7.87,19.91,20.31,23.54,19.32,4.16-1.14,4.59-19-4.51-34.77-6.26-10.87-15.32-17.82-14.53-18.46s7.15,3.61,13,9.44c12.25,12.17,14.39,24.44,17,24,3.43-.52,1.06-21.51,4-21.89,2.6-.33,6.61,15.79,9.52,15.45,2.32-.27.08-10.6,5.51-22.75,4.69-10.49,12.94-17.49,13.52-17.17s-4.55,5.69-8,14.17c-5.65,13.84-4.46,29.45,0,30.48,3.53.81,5.92-8.29,19-15.46,8.11-4.43,16.5-6.05,17-5.15.63,1.06-10.47,4.35-18.53,13.74-8.77,10.2-10.34,23.39-7,24.89,1.9.86,4.32-2.6,13.52-6.43,6.1-2.55,13-4.33,13.52-3.44s-5.36,3.5-12.52,9.87c-.66.59-10.76,9.67-9,11.6.35.39,1.34.52,12.52-3,2.38-.75,9.94-3.16,10-3s-10.56,1.84-15,8.58c-.24.36-1.17,2.39-3,6.44-3.42,7.52-3.37,7.48-3.5,7.73C564.41,260.52,529.4,264.86,515.6,252.09Z"/><path class="cls-9" d="M515.6,252.09a10.28,10.28,0,0,0-1-3.87c-1.39-2.48-3.76-3.5-3.5-3.86s3.89.86,6,1.72c3.35,1.36,4,2,4.51,1.71,2-1.07-3.25-11.5-3.51-12-1.19-2.32-1.78-3.48-2-3.86-1.44-2.42-2.39-3.42-2-3.86.54-.61,3.87.79,4,.86,1.72.73,2,1.35,2.5,1.28,1.27-.17,2.2-4.52,1.51-12a88.83,88.83,0,0,0-7-26.18s2.83,10.4,12,16.74c2.92,2,4,1.9,4.5,1.72,4.57-1.66-1.41-21.17,0-21.47s6.28,17.11,9.52,16.74c.9-.1,1.47-1.56,3-9.44,1.23-6.3,2.91-15.89,3-15.88a70.3,70.3,0,0,0,.5,21c1.21,6.53,2.52,7.53,3.51,7.73,2.73.56,5.2-4.5,12.52-11.16,6.86-6.25,13.55-9.87,14-9.45.68.62-13,8.55-17.53,22.76-2.29,7.24-2,15.38,1,16.31,1.47.45,2.79-1.09,10-5.58,6.12-3.81,9.37-5.32,9.52-5.15.28.33-2.45,2.89-11.52,11.59-4.41,4.22-6.91,6.67-6,8.15.75,1.25,3.56,1.28,4,1.29,1.9,0,3.32-.65,5.51-1.72,2.58-1.25,3.82-2.31,4-2.14s-3.4,2.76-5.51,7.29c-1.17,2.53-2,4.29-1.5,6a6,6,0,0,1,.14,2.89c-.26.67-.62,1.36-.62,1.36l0,0C563.54,262.12,518,260.51,515.6,252.09Z"/><path class="cls-7" d="M462.6,264.09c-6.37-3.49-8.61-6.93-17.53-9.88-11.12-3.66-20-2.38-20-3.43s10.8-4.17,22.54-2.15c7.38,1.27,10.11,4.07,11.52,3,2.91-2.21-3.86-17.44-18-26.62-15.66-10.14-33.71-8.61-33.56-10.3.14-1.49,14.3-4.34,28.05.43,15,5.19,19.5,16,23,14.59,4.28-1.66,2.36-19.25-8-34.34-9.2-13.38-21.46-19.58-20.53-20.6s14.27,4.24,25.54,14.59c12.56,11.54,14.34,21.84,17,21.47,7.55-1.05-.79-82.83-.5-82.85s8.64,77.41,15,77.27c2.8-.07,1.37-14.95,14-30.05,8.9-10.62,20.77-16.58,21.54-15.89s-8.83,6.84-16,18.46c-8.2,13.23-11.29,30.19-6,32.63,4.67,2.15,11.29-9.19,31.05-16.74,17.77-6.8,34.25-6,34.56-4.73.39,1.55-24,2.59-41.57,18.46-8.59,7.78-14.66,18.34-12,20.61,1.53,1.31,5.09-1,14.53-3.44,12.93-3.36,25.14-4.57,25.54-3.43s-9.82,3.11-21,11.16c-4.13,3-10.65,8.36-9.51,9.87.64.86,4.26-1,12.52-2.57,1.83-.35,9.62-1.81,10-.86s-8,3-15.53,8.58c-9,6.66-6.85,11.17-13,16.32C504.49,273.41,478.35,272.71,462.6,264.09Z"/><path class="cls-8" d="M462.6,264.09c-3.28-3-4.78-6.71-11-9.88-7.38-3.74-14.59-3.35-14.53-3.86s8.14-1.57,16.53,1.29c6.72,2.28,8.76,5.39,10,4.72,2.76-1.48-2.05-19.1-17-30.48-11-8.34-23.8-10.56-23.54-11.16s8.51.61,17,4.72c16.31,7.87,19.91,20.31,23.54,19.32,4.16-1.14,4.59-19-4.51-34.77-6.26-10.87-15.32-17.82-14.53-18.46s7.15,3.61,13,9.44c12.25,12.17,14.39,24.44,17,24,3.43-.52,1.06-21.51,4-21.89,2.6-.33,6.61,15.79,9.52,15.45,2.32-.27.08-10.6,5.51-22.75,4.69-10.49,12.94-17.49,13.52-17.17s-4.55,5.69-8,14.17c-5.65,13.84-4.46,29.45,0,30.48,3.53.81,5.92-8.29,19-15.46,8.11-4.43,16.5-6.05,17-5.15.63,1.06-10.47,4.35-18.53,13.74-8.77,10.2-10.34,23.39-7,24.89,1.9.86,4.32-2.6,13.52-6.43,6.1-2.55,13-4.33,13.52-3.44s-5.36,3.5-12.52,9.87c-.66.59-10.76,9.67-9,11.6.35.39,1.34.52,12.52-3,2.38-.75,9.94-3.16,10-3s-10.56,1.84-15,8.58c-.24.36-1.17,2.39-3,6.44-3.42,7.52-3.37,7.48-3.5,7.73C511.41,272.52,476.4,276.86,462.6,264.09Z"/><path class="cls-9" d="M462.6,264.09a10.28,10.28,0,0,0-1-3.87c-1.39-2.48-3.76-3.5-3.5-3.86s3.89.86,6,1.72c3.35,1.36,4,2,4.51,1.71,2-1.07-3.25-11.5-3.51-12-1.19-2.32-1.78-3.48-2-3.86-1.44-2.42-2.39-3.42-2-3.86.54-.61,3.87.79,4,.86,1.72.73,2,1.35,2.5,1.28,1.27-.17,2.2-4.52,1.51-12a88.83,88.83,0,0,0-7-26.18s2.83,10.4,12,16.74c2.92,2,4,1.9,4.5,1.72,4.57-1.66-1.41-21.17,0-21.47s6.28,17.11,9.52,16.74c.9-.1,1.47-1.56,3-9.44,1.23-6.3,2.91-15.89,3-15.88a70.3,70.3,0,0,0,.5,21c1.21,6.53,2.52,7.53,3.51,7.73,2.73.56,5.2-4.5,12.52-11.16,6.86-6.25,13.55-9.87,14-9.45.68.62-13,8.55-17.53,22.76-2.29,7.24-2,15.38,1,16.31,1.47.45,2.79-1.09,10-5.58,6.12-3.81,9.37-5.32,9.52-5.15.28.33-2.45,2.89-11.52,11.59-4.41,4.22-6.91,6.67-6,8.15.75,1.25,3.56,1.28,4,1.29,1.9,0,3.32-.65,5.51-1.72,2.58-1.25,3.82-2.31,4-2.14s-3.4,2.76-5.51,7.29c-1.17,2.53-2,4.29-1.5,6a6,6,0,0,1,.14,2.89c-.26.67-.62,1.36-.62,1.36l0,.05C510.54,274.12,465,272.51,462.6,264.09Z"/><path class="cls-7" d="M421.6,266.09c-6.37-3.49-8.61-6.93-17.53-9.88-11.12-3.66-20-2.38-20-3.43s10.8-4.17,22.54-2.15c7.38,1.27,10.11,4.07,11.52,3,2.91-2.21-3.86-17.44-18-26.62-15.66-10.14-33.71-8.61-33.56-10.3.14-1.49,14.3-4.34,28.05.43,15,5.19,19.5,16,23,14.59,4.28-1.66,2.36-19.25-8-34.34-9.2-13.38-21.46-19.58-20.53-20.6s14.27,4.24,25.54,14.59c12.56,11.54,14.34,21.84,17,21.47,7.55-1.05-.79-82.83-.5-82.85s8.64,77.41,15,77.27c2.8-.07,1.37-14.95,14-30.05,8.9-10.62,20.77-16.58,21.54-15.89s-8.83,6.84-16,18.46c-8.2,13.23-11.29,30.19-6,32.63,4.67,2.15,11.29-9.19,31-16.74,17.77-6.8,34.25-6,34.56-4.73.39,1.55-24,2.59-41.57,18.46-8.59,7.78-14.66,18.34-12,20.61,1.53,1.31,5.09-1,14.53-3.44,12.93-3.36,25.14-4.57,25.54-3.43s-9.82,3.11-21,11.16c-4.13,3-10.65,8.36-9.51,9.87.64.86,4.26-1,12.52-2.57,1.83-.35,9.62-1.81,10-.86s-8,3-15.53,8.58c-8.95,6.66-6.85,11.17-13,16.32C463.49,275.41,437.35,274.71,421.6,266.09Z"/><path class="cls-8" d="M421.6,266.09c-3.28-3-4.78-6.71-11-9.88-7.38-3.74-14.59-3.35-14.53-3.86s8.14-1.57,16.53,1.29c6.72,2.28,8.76,5.39,10,4.72,2.76-1.48-2.05-19.1-17-30.48-11-8.34-23.8-10.56-23.54-11.16s8.51.61,17,4.72c16.31,7.87,19.91,20.31,23.54,19.32,4.16-1.14,4.59-19-4.51-34.77-6.26-10.87-15.32-17.82-14.53-18.46s7.15,3.61,13,9.44c12.25,12.17,14.39,24.44,17,24,3.43-.52,1.06-21.51,4-21.89,2.6-.33,6.61,15.79,9.52,15.45,2.32-.27.08-10.6,5.51-22.75,4.69-10.49,12.94-17.49,13.52-17.17s-4.55,5.69-8,14.17c-5.65,13.84-4.46,29.45,0,30.48,3.53.81,5.92-8.29,19-15.46,8.11-4.43,16.5-6.05,17-5.15.63,1.06-10.47,4.35-18.53,13.74-8.77,10.2-10.34,23.39-7,24.89,1.9.86,4.32-2.6,13.52-6.43,6.1-2.55,13-4.33,13.52-3.44s-5.36,3.5-12.52,9.87c-.66.59-10.76,9.67-9,11.6.35.39,1.34.52,12.52-3,2.38-.75,9.94-3.16,10-3s-10.56,1.84-15,8.58c-.24.36-1.17,2.39-3,6.44-3.42,7.52-3.37,7.48-3.5,7.73C470.41,274.52,435.4,278.86,421.6,266.09Z"/><path class="cls-9" d="M421.6,266.09a10.28,10.28,0,0,0-1-3.87c-1.39-2.48-3.76-3.5-3.5-3.86s3.89.86,6,1.72c3.35,1.36,4,2,4.51,1.71,2-1.07-3.25-11.5-3.51-12-1.19-2.32-1.78-3.48-2-3.86-1.44-2.42-2.39-3.42-2-3.86.54-.61,3.87.79,4,.86,1.72.73,2,1.35,2.5,1.28,1.27-.17,2.2-4.52,1.51-12a88.83,88.83,0,0,0-7-26.18s2.83,10.4,12,16.74c2.92,2,4,1.9,4.5,1.72,4.57-1.66-1.41-21.17,0-21.47s6.28,17.11,9.52,16.74c.9-.1,1.47-1.56,3-9.44,1.23-6.3,2.91-15.89,3-15.88a70.3,70.3,0,0,0,.5,21c1.21,6.53,2.52,7.53,3.51,7.73,2.73.56,5.2-4.5,12.52-11.16,6.86-6.25,13.55-9.87,14-9.45.68.62-13,8.55-17.53,22.76-2.29,7.24-2,15.38,1,16.31,1.47.45,2.79-1.09,10-5.58,6.12-3.81,9.37-5.32,9.52-5.15.28.33-2.45,2.89-11.52,11.59-4.41,4.22-6.91,6.67-6,8.15.75,1.25,3.56,1.28,4,1.29,1.9,0,3.32-.65,5.51-1.72,2.58-1.25,3.82-2.31,4-2.14s-3.4,2.76-5.51,7.29c-1.17,2.53-2,4.29-1.5,6a6,6,0,0,1,.14,2.89c-.26.67-.62,1.36-.62,1.36l0,.05C469.54,276.12,424,274.51,421.6,266.09Z"/><path class="cls-7" d="M372.6,270.09c-6.37-3.49-8.61-6.93-17.53-9.88-11.12-3.66-20-2.38-20-3.43s10.8-4.17,22.54-2.15c7.38,1.27,10.11,4.07,11.52,3,2.91-2.21-3.86-17.44-18-26.62-15.66-10.14-33.71-8.61-33.56-10.3.14-1.49,14.3-4.34,28.05.43,15,5.19,19.5,16,23,14.59,4.28-1.66,2.36-19.25-8-34.34-9.2-13.38-21.46-19.58-20.53-20.6s14.27,4.24,25.54,14.59c12.56,11.54,14.34,21.84,17,21.47,7.55-1.05-.79-82.83-.5-82.85s8.64,77.41,15,77.27c2.8-.07,1.37-14.95,14-30.05,8.9-10.62,20.77-16.58,21.54-15.89s-8.83,6.84-16,18.46c-8.2,13.23-11.29,30.19-6,32.63,4.67,2.15,11.29-9.19,31-16.74,17.77-6.8,34.25-6,34.56-4.73.39,1.55-24,2.59-41.57,18.46-8.59,7.78-14.66,18.34-12,20.61,1.53,1.31,5.09-1,14.53-3.44,12.93-3.36,25.14-4.57,25.54-3.43s-9.82,3.11-21,11.16c-4.13,3-10.65,8.36-9.51,9.87.64.86,4.26-1,12.52-2.57,1.83-.35,9.62-1.81,10-.86s-8,3-15.53,8.58c-8.95,6.66-6.85,11.17-13,16.32C414.49,279.41,388.35,278.71,372.6,270.09Z"/><path class="cls-8" d="M372.6,270.09c-3.28-3-4.78-6.71-11-9.88-7.38-3.74-14.59-3.35-14.53-3.86s8.14-1.57,16.53,1.29c6.72,2.28,8.76,5.39,10,4.72,2.76-1.48-2.05-19.1-17-30.48-11-8.34-23.8-10.56-23.54-11.16s8.51.61,17,4.72c16.31,7.87,19.91,20.31,23.54,19.32,4.16-1.14,4.59-19-4.51-34.77-6.26-10.87-15.32-17.82-14.53-18.46s7.15,3.61,13,9.44c12.25,12.17,14.39,24.44,17,24,3.43-.52,1.06-21.51,4-21.89,2.6-.33,6.61,15.79,9.52,15.45,2.32-.27.08-10.6,5.51-22.75,4.69-10.49,12.94-17.49,13.52-17.17s-4.55,5.69-8,14.17c-5.65,13.84-4.46,29.45,0,30.48,3.53.81,5.92-8.29,19-15.46,8.11-4.43,16.5-6.05,17-5.15.63,1.06-10.47,4.35-18.53,13.74-8.77,10.2-10.34,23.39-7,24.89,1.9.86,4.32-2.6,13.52-6.43,6.1-2.55,13-4.33,13.52-3.44s-5.36,3.5-12.52,9.87c-.66.59-10.76,9.67-9,11.6.35.39,1.34.52,12.52-3,2.38-.75,9.94-3.16,10-3s-10.56,1.84-15,8.58c-.24.36-1.17,2.39-3,6.44-3.42,7.52-3.37,7.48-3.5,7.73C421.41,278.52,386.4,282.86,372.6,270.09Z"/><path class="cls-9" d="M372.6,270.09a10.28,10.28,0,0,0-1-3.87c-1.39-2.48-3.76-3.5-3.5-3.86s3.89.86,6,1.72c3.35,1.36,4,2,4.51,1.71,2-1.07-3.25-11.5-3.51-12-1.19-2.32-1.78-3.48-2-3.86-1.44-2.42-2.39-3.42-2-3.86.54-.61,3.87.79,4,.86,1.72.73,2,1.35,2.5,1.28,1.27-.17,2.2-4.52,1.51-12a88.83,88.83,0,0,0-7-26.18s2.83,10.4,12,16.74c2.92,2,4,1.9,4.5,1.72,4.57-1.66-1.41-21.17,0-21.47s6.28,17.11,9.52,16.74c.9-.1,1.47-1.56,3-9.44,1.23-6.3,2.91-15.89,3-15.88a70.3,70.3,0,0,0,.5,21c1.21,6.53,2.52,7.53,3.51,7.73,2.73.56,5.2-4.5,12.52-11.16,6.86-6.25,13.55-9.87,14-9.45.68.62-13,8.55-17.53,22.76-2.29,7.24-2,15.38,1,16.31,1.47.45,2.79-1.09,10-5.58,6.12-3.81,9.37-5.32,9.52-5.15.28.33-2.45,2.89-11.52,11.59-4.41,4.22-6.91,6.67-6,8.15.75,1.25,3.56,1.28,4,1.29,1.9,0,3.32-.65,5.51-1.72,2.58-1.25,3.82-2.31,4-2.14s-3.4,2.76-5.51,7.29c-1.17,2.53-2,4.29-1.5,6a6,6,0,0,1,.14,2.89c-.26.67-.62,1.36-.62,1.36l0,.05C420.54,280.12,375,278.51,372.6,270.09Z"/><path class="cls-7" d="M328.6,270.09c-6.37-3.49-8.61-6.93-17.53-9.88-11.12-3.66-20-2.38-20-3.43s10.8-4.17,22.54-2.15c7.38,1.27,10.11,4.07,11.52,3,2.91-2.21-3.86-17.44-18-26.62-15.66-10.14-33.71-8.61-33.56-10.3.14-1.49,14.3-4.34,28.05.43,15,5.19,19.5,16,23,14.59,4.28-1.66,2.36-19.25-8-34.34-9.2-13.38-21.46-19.58-20.53-20.6s14.27,4.24,25.54,14.59c12.56,11.54,14.34,21.84,17,21.47,7.55-1.05-.79-82.83-.5-82.85s8.64,77.41,15,77.27c2.8-.07,1.37-14.95,14-30.05,8.9-10.62,20.77-16.58,21.54-15.89s-8.83,6.84-16,18.46c-8.2,13.23-11.29,30.19-6,32.63,4.67,2.15,11.29-9.19,31-16.74,17.77-6.8,34.25-6,34.56-4.73.39,1.55-24,2.59-41.57,18.46-8.59,7.78-14.66,18.34-12,20.61,1.53,1.31,5.09-1,14.53-3.44,12.93-3.36,25.14-4.57,25.54-3.43s-9.82,3.11-21,11.16c-4.13,3-10.65,8.36-9.51,9.87.64.86,4.26-1,12.52-2.57,1.83-.35,9.62-1.81,10-.86s-8,3-15.53,8.58c-8.95,6.66-6.85,11.17-13,16.32C370.49,279.41,344.35,278.71,328.6,270.09Z"/><path class="cls-8" d="M328.6,270.09c-3.28-3-4.78-6.71-11-9.88-7.38-3.74-14.59-3.35-14.53-3.86s8.14-1.57,16.53,1.29c6.72,2.28,8.76,5.39,10,4.72,2.76-1.48-2.05-19.1-17-30.48-11-8.34-23.8-10.56-23.54-11.16s8.51.61,17,4.72c16.31,7.87,19.91,20.31,23.54,19.32,4.16-1.14,4.59-19-4.51-34.77-6.26-10.87-15.32-17.82-14.53-18.46s7.15,3.61,13,9.44c12.25,12.17,14.39,24.44,17,24,3.43-.52,1.06-21.51,4-21.89,2.6-.33,6.61,15.79,9.52,15.45,2.32-.27.08-10.6,5.51-22.75,4.69-10.49,12.94-17.49,13.52-17.17s-4.55,5.69-8,14.17c-5.65,13.84-4.46,29.45,0,30.48,3.53.81,5.92-8.29,19-15.46,8.11-4.43,16.5-6.05,17-5.15.63,1.06-10.47,4.35-18.53,13.74-8.77,10.2-10.34,23.39-7,24.89,1.9.86,4.32-2.6,13.52-6.43,6.1-2.55,13-4.33,13.52-3.44s-5.36,3.5-12.52,9.87c-.66.59-10.76,9.67-9,11.6.35.39,1.34.52,12.52-3,2.38-.75,9.94-3.16,10-3s-10.56,1.84-15,8.58c-.24.36-1.17,2.39-3,6.44-3.42,7.52-3.37,7.48-3.5,7.73C377.41,278.52,342.4,282.86,328.6,270.09Z"/><path class="cls-9" d="M328.6,270.09a10.28,10.28,0,0,0-1-3.87c-1.39-2.48-3.76-3.5-3.5-3.86s3.89.86,6,1.72c3.35,1.36,4,2,4.51,1.71,2-1.07-3.25-11.5-3.51-12-1.19-2.32-1.78-3.48-2-3.86-1.44-2.42-2.39-3.42-2-3.86.54-.61,3.87.79,4,.86,1.72.73,2,1.35,2.5,1.28,1.27-.17,2.2-4.52,1.51-12a88.83,88.83,0,0,0-7-26.18s2.83,10.4,12,16.74c2.92,2,4,1.9,4.5,1.72,4.57-1.66-1.41-21.17,0-21.47s6.28,17.11,9.52,16.74c.9-.1,1.47-1.56,3-9.44,1.23-6.3,2.91-15.89,3-15.88a70.3,70.3,0,0,0,.5,21c1.21,6.53,2.52,7.53,3.51,7.73,2.73.56,5.2-4.5,12.52-11.16,6.86-6.25,13.55-9.87,14-9.45.68.62-13,8.55-17.53,22.76-2.29,7.24-2,15.38,1,16.31,1.47.45,2.79-1.09,10-5.58,6.12-3.81,9.37-5.32,9.52-5.15.28.33-2.45,2.89-11.52,11.59-4.41,4.22-6.91,6.67-6,8.15.75,1.25,3.56,1.28,4,1.29,1.9,0,3.32-.65,5.51-1.72,2.58-1.25,3.82-2.31,4-2.14s-3.4,2.76-5.51,7.29c-1.17,2.53-2,4.29-1.5,6a6,6,0,0,1,.14,2.89c-.26.67-.62,1.36-.62,1.36l0,.05C376.54,280.12,331,278.51,328.6,270.09Z"/><path class="cls-10" d="M62.66,192.5c-.73.69,12.15,9.62,14,25,.26,2.16.07,2.56-1,15.95-1.71,21.33-1.37,21.94-1,22.05,2,.62,10.39-12.13,10-27a41.63,41.63,0,0,0-3-14C75.79,199.75,63.36,191.83,62.66,192.5Z"/><path class="cls-11" d="M56.66,195.5c-.73.69,12.15,9.62,14,25,.26,2.16.07,2.56-1,15.95-1.71,21.33-1.37,21.94-1,22.05,2,.62,10.39-12.13,10-27a41.63,41.63,0,0,0-3-14C69.79,202.75,57.36,194.83,56.66,195.5Z"/><path class="cls-12" d="M51.66,203.5c-.73.69,12.15,9.62,14,25,.26,2.16.07,2.56-1,15.95-1.71,21.33-1.37,21.94-1,22.05,2,.62,10.39-12.13,10-27a41.63,41.63,0,0,0-3-14C64.79,210.75,52.36,202.83,51.66,203.5Z"/><path class="cls-10" d="M74.66,194.5c-.73.69,12.15,9.62,14,25,.26,2.16.07,2.56-1,15.95-1.71,21.33-1.37,21.94-1,22.05,2,.62,10.39-12.13,10-27a41.63,41.63,0,0,0-3-14C87.79,201.75,75.36,193.83,74.66,194.5Z"/><path class="cls-11" d="M68.66,197.5c-.73.69,12.15,9.62,14,25,.26,2.16.07,2.56-1,15.95-1.71,21.33-1.37,21.94-1,22.05,2,.62,10.39-12.13,10-27a41.63,41.63,0,0,0-3-14C81.79,204.75,69.36,196.83,68.66,197.5Z"/><path class="cls-12" d="M63.66,205.5c-.73.69,12.15,9.62,14,25,.26,2.16.07,2.56-1,15.95-1.71,21.33-1.37,21.94-1,22.05,2,.62,10.39-12.13,10-27a41.63,41.63,0,0,0-3-14C76.79,212.75,64.36,204.83,63.66,205.5Z"/><path class="cls-10" d="M86.66,198.5c-.73.69,12.15,9.62,14,25,.26,2.16.07,2.56-1,15.95-1.71,21.33-1.37,21.94-1,22.05,2,.62,10.39-12.13,10-27a41.63,41.63,0,0,0-3-14C99.79,205.75,87.36,197.83,86.66,198.5Z"/><path class="cls-11" d="M80.66,201.5c-.73.69,12.15,9.62,14,25,.26,2.16.07,2.56-1,15.95-1.71,21.33-1.37,21.94-1,22.05,2,.62,10.39-12.13,10-27a41.63,41.63,0,0,0-3-14C93.79,208.75,81.36,200.83,80.66,201.5Z"/><path class="cls-12" d="M75.66,209.5c-.73.69,12.15,9.62,14,25,.26,2.16.07,2.56-1,15.95-1.71,21.33-1.37,21.94-1,22.05,2,.62,10.39-12.13,10-27a41.63,41.63,0,0,0-3-14C88.79,216.75,76.36,208.83,75.66,209.5Z"/><path class="cls-10" d="M98.66,205.5c-.73.69,12.15,9.62,14,25,.26,2.16.07,2.56-1,15.95-1.71,21.33-1.37,21.94-1,22.05,2,.62,10.39-12.13,10-27a41.63,41.63,0,0,0-3-14C111.79,212.75,99.36,204.83,98.66,205.5Z"/><path class="cls-11" d="M92.66,208.5c-.73.69,12.15,9.62,14,25,.26,2.16.07,2.56-1,15.95-1.71,21.33-1.37,21.94-1,22.05,2,.62,10.39-12.13,10-27a41.63,41.63,0,0,0-3-14C105.79,215.75,93.36,207.83,92.66,208.5Z"/><path class="cls-12" d="M87.66,216.5c-.73.69,12.15,9.62,14,25,.26,2.16.07,2.56-1,15.95-1.71,21.33-1.37,21.94-1,22.05,2,.62,10.39-12.13,10-27a41.63,41.63,0,0,0-3-14C100.79,223.75,88.36,215.83,87.66,216.5Z"/><path class="cls-10" d="M113.66,204.5c-.73.69,12.15,9.62,14,25,.26,2.16.07,2.56-1,15.95-1.71,21.33-1.37,21.94-1,22.05,2,.62,10.39-12.13,10-27a41.63,41.63,0,0,0-3-14C126.79,211.75,114.36,203.83,113.66,204.5Z"/><path class="cls-11" d="M107.66,207.5c-.73.69,12.15,9.62,14,25,.26,2.16.07,2.56-1,15.95-1.71,21.33-1.37,21.94-1,22.05,2,.62,10.39-12.13,10-27a41.63,41.63,0,0,0-3-14C120.79,214.75,108.36,206.83,107.66,207.5Z"/><path class="cls-12" d="M102.66,215.5c-.73.69,12.15,9.62,14,25,.26,2.16.07,2.56-1,15.95-1.71,21.33-1.37,21.94-1,22.05,2,.62,10.39-12.13,10-27a41.63,41.63,0,0,0-3-14C115.79,222.75,103.36,214.83,102.66,215.5Z"/><path class="cls-10" d="M125.66,200.5c-.73.69,12.15,9.62,14,25,.26,2.16.07,2.56-1,15.95-1.71,21.33-1.37,21.94-1,22.05,2,.62,10.39-12.13,10-27a41.63,41.63,0,0,0-3-14C138.79,207.75,126.36,199.83,125.66,200.5Z"/><path class="cls-11" d="M119.66,203.5c-.73.69,12.15,9.62,14,25,.26,2.16.07,2.56-1,15.95-1.71,21.33-1.37,21.94-1,22.05,2,.62,10.39-12.13,10-27a41.63,41.63,0,0,0-3-14C132.79,210.75,120.36,202.83,119.66,203.5Z"/><path class="cls-12" d="M114.66,211.5c-.73.69,12.15,9.62,14,25,.26,2.16.07,2.56-1,15.95-1.71,21.33-1.37,21.94-1,22.05,2,.62,10.39-12.13,10-27a41.63,41.63,0,0,0-3-14C127.79,218.75,115.36,210.83,114.66,211.5Z"/><path class="cls-10" d="M140.66,200.5c-.73.69,12.15,9.62,14,25,.26,2.16.07,2.56-1,15.95-1.71,21.33-1.37,21.94-1,22.05,2,.62,10.39-12.13,10-27a41.63,41.63,0,0,0-3-14C153.79,207.75,141.36,199.83,140.66,200.5Z"/><path class="cls-11" d="M134.66,203.5c-.73.69,12.15,9.62,14,25,.26,2.16.07,2.56-1,15.95-1.71,21.33-1.37,21.94-1,22.05,2,.62,10.39-12.13,10-27a41.63,41.63,0,0,0-3-14C147.79,210.75,135.36,202.83,134.66,203.5Z"/><path class="cls-12" d="M129.66,211.5c-.73.69,12.15,9.62,14,25,.26,2.16.07,2.56-1,15.95-1.71,21.33-1.37,21.94-1,22.05,2,.62,10.39-12.13,10-27a41.63,41.63,0,0,0-3-14C142.79,218.75,130.36,210.83,129.66,211.5Z"/><path class="cls-10" d="M154.66,200.5c-.73.69,12.15,9.62,14,25,.26,2.16.07,2.56-1,15.95-1.71,21.33-1.37,21.94-1,22.05,2,.62,10.39-12.13,10-27a41.63,41.63,0,0,0-3-14C167.79,207.75,155.36,199.83,154.66,200.5Z"/><path class="cls-11" d="M148.66,203.5c-.73.69,12.15,9.62,14,25,.26,2.16.07,2.56-1,15.95-1.71,21.33-1.37,21.94-1,22.05,2,.62,10.39-12.13,10-27a41.63,41.63,0,0,0-3-14C161.79,210.75,149.36,202.83,148.66,203.5Z"/><path class="cls-12" d="M143.66,211.5c-.73.69,12.15,9.62,14,25,.26,2.16.07,2.56-1,15.95-1.71,21.33-1.37,21.94-1,22.05,2,.62,10.39-12.13,10-27a41.63,41.63,0,0,0-3-14C156.79,218.75,144.36,210.83,143.66,211.5Z"/><path class="cls-10" d="M171.66,200.5c-.73.69,12.15,9.62,14,25,.26,2.16.07,2.56-1,15.95-1.71,21.33-1.37,21.94-1,22.05,2,.62,10.39-12.13,10-27a41.63,41.63,0,0,0-3-14C184.79,207.75,172.36,199.83,171.66,200.5Z"/><path class="cls-11" d="M165.66,203.5c-.73.69,12.15,9.62,14,25,.26,2.16.07,2.56-1,15.95-1.71,21.33-1.37,21.94-1,22.05,2,.62,10.39-12.13,10-27a41.63,41.63,0,0,0-3-14C178.79,210.75,166.36,202.83,165.66,203.5Z"/><path class="cls-12" d="M160.66,211.5c-.73.69,12.15,9.62,14,25,.26,2.16.07,2.56-1,15.95-1.71,21.33-1.37,21.94-1,22.05,2,.62,10.39-12.13,10-27a41.63,41.63,0,0,0-3-14C173.79,218.75,161.36,210.83,160.66,211.5Z"/><path class="cls-10" d="M191.66,199.5c-.73.69,12.15,9.62,14,25,.26,2.16.07,2.56-1,15.95-1.71,21.33-1.37,21.94-1,22.05,2,.62,10.39-12.13,10-27a41.63,41.63,0,0,0-3-14C204.79,206.75,192.36,198.83,191.66,199.5Z"/><path class="cls-11" d="M185.66,202.5c-.73.69,12.15,9.62,14,25,.26,2.16.07,2.56-1,15.95-1.71,21.33-1.37,21.94-1,22.05,2,.62,10.39-12.13,10-27a41.63,41.63,0,0,0-3-14C198.79,209.75,186.36,201.83,185.66,202.5Z"/><path class="cls-12" d="M180.66,210.5c-.73.69,12.15,9.62,14,25,.26,2.16.07,2.56-1,15.95-1.71,21.33-1.37,21.94-1,22.05,2,.62,10.39-12.13,10-27a41.63,41.63,0,0,0-3-14C193.79,217.75,181.36,209.83,180.66,210.5Z"/><path class="cls-10" d="M205.66,200.5c-.73.69,12.15,9.62,14,25,.26,2.16.07,2.56-1,15.95-1.71,21.33-1.37,21.94-1,22.05,2,.62,10.39-12.13,10-27a41.63,41.63,0,0,0-3-14C218.79,207.75,206.36,199.83,205.66,200.5Z"/><path class="cls-11" d="M199.66,203.5c-.73.69,12.15,9.62,14,25,.26,2.16.07,2.56-1,15.95-1.71,21.33-1.37,21.94-1,22.05,2,.62,10.39-12.13,10-27a41.63,41.63,0,0,0-3-14C212.79,210.75,200.36,202.83,199.66,203.5Z"/><path class="cls-12" d="M194.66,211.5c-.73.69,12.15,9.62,14,25,.26,2.16.07,2.56-1,15.95-1.71,21.33-1.37,21.94-1,22.05,2,.62,10.39-12.13,10-27a41.63,41.63,0,0,0-3-14C207.79,218.75,195.36,210.83,194.66,211.5Z"/><path class="cls-10" d="M222.66,207.5c-.73.69,12.15,9.62,14,25,.26,2.16.07,2.56-1,15.95-1.71,21.33-1.37,21.94-1,22.05,2,.62,10.39-12.13,10-27a41.63,41.63,0,0,0-3-14C235.79,214.75,223.36,206.83,222.66,207.5Z"/><path class="cls-11" d="M216.66,210.5c-.73.69,12.15,9.62,14,25,.26,2.16.07,2.56-1,15.95-1.71,21.33-1.37,21.94-1,22.05,2,.62,10.39-12.13,10-27a41.63,41.63,0,0,0-3-14C229.79,217.75,217.36,209.83,216.66,210.5Z"/><path class="cls-12" d="M211.66,218.5c-.73.69,12.15,9.62,14,25,.26,2.16.07,2.56-1,15.95-1.71,21.33-1.37,21.94-1,22.05,2,.62,10.39-12.13,10-27a41.63,41.63,0,0,0-3-14C224.79,225.75,212.36,217.83,211.66,218.5Z"/><path class="cls-10" d="M239.66,202.5c-.73.69,12.15,9.62,14,25,.26,2.16.07,2.56-1,15.95-1.71,21.33-1.37,21.94-1,22.05,2,.62,10.39-12.13,10-27a41.63,41.63,0,0,0-3-14C252.79,209.75,240.36,201.83,239.66,202.5Z"/><path class="cls-11" d="M233.66,205.5c-.73.69,12.15,9.62,14,25,.26,2.16.07,2.56-1,15.95-1.71,21.33-1.37,21.94-1,22.05,2,.62,10.39-12.13,10-27a41.63,41.63,0,0,0-3-14C246.79,212.75,234.36,204.83,233.66,205.5Z"/><path class="cls-12" d="M228.66,213.5c-.73.69,12.15,9.62,14,25,.26,2.16.07,2.56-1,15.95-1.71,21.33-1.37,21.94-1,22.05,2,.62,10.39-12.13,10-27a41.63,41.63,0,0,0-3-14C241.79,220.75,229.36,212.83,228.66,213.5Z"/><path class="cls-10" d="M251.66,208.5c-.73.69,12.15,9.62,14,25,.26,2.16.07,2.56-1,15.95-1.71,21.33-1.37,21.94-1,22.05,2,.62,10.39-12.13,10-27a41.63,41.63,0,0,0-3-14C264.79,215.75,252.36,207.83,251.66,208.5Z"/><path class="cls-11" d="M245.66,211.5c-.73.69,12.15,9.62,14,25,.26,2.16.07,2.56-1,15.95-1.71,21.33-1.37,21.94-1,22.05,2,.62,10.39-12.13,10-27a41.63,41.63,0,0,0-3-14C258.79,218.75,246.36,210.83,245.66,211.5Z"/><path class="cls-12" d="M240.66,219.5c-.73.69,12.15,9.62,14,25,.26,2.16.07,2.56-1,15.95-1.71,21.33-1.37,21.94-1,22.05,2,.62,10.39-12.13,10-27a41.63,41.63,0,0,0-3-14C253.79,226.75,241.36,218.83,240.66,219.5Z"/><path class="cls-10" d="M268.66,211.5c-.73.69,12.15,9.62,14,25,.26,2.16.07,2.56-1,15.95-1.71,21.33-1.37,21.94-1,22.05,2,.62,10.39-12.13,10-27a41.63,41.63,0,0,0-3-14C281.79,218.75,269.36,210.83,268.66,211.5Z"/><path class="cls-11" d="M262.66,214.5c-.73.69,12.15,9.62,14,25,.26,2.16.07,2.56-1,15.95-1.71,21.33-1.37,21.94-1,22.05,2,.62,10.39-12.13,10-27a41.63,41.63,0,0,0-3-14C275.79,221.75,263.36,213.83,262.66,214.5Z"/><path class="cls-12" d="M257.66,222.5c-.73.69,12.15,9.62,14,25,.26,2.16.07,2.56-1,15.95-1.71,21.33-1.37,21.94-1,22.05,2,.62,10.39-12.13,10-27a41.63,41.63,0,0,0-3-14C270.79,229.75,258.36,221.83,257.66,222.5Z"/><path class="cls-10" d="M283.66,221.5c-.73.69,12.15,9.62,14,25,.26,2.16.07,2.56-1,15.95-1.71,21.33-1.37,21.94-1,22.05,2,.62,10.39-12.13,10-27a41.63,41.63,0,0,0-3-14C296.79,228.75,284.36,220.83,283.66,221.5Z"/><path class="cls-11" d="M277.66,224.5c-.73.69,12.15,9.62,14,25,.26,2.16.07,2.56-1,15.95-1.71,21.33-1.37,21.94-1,22.05,2,.62,10.39-12.13,10-27a41.63,41.63,0,0,0-3-14C290.79,231.75,278.36,223.83,277.66,224.5Z"/><path class="cls-12" d="M272.66,232.5c-.73.69,12.15,9.62,14,25,.26,2.16.07,2.56-1,15.95-1.71,21.33-1.37,21.94-1,22.05,2,.62,10.39-12.13,10-27a41.63,41.63,0,0,0-3-14C285.79,239.75,273.36,231.83,272.66,232.5Z"/><path class="cls-10" d="M300.66,218.5c-.73.69,12.15,9.62,14,25,.26,2.16.07,2.56-1,15.95-1.71,21.33-1.37,21.94-1,22.05,2,.62,10.39-12.13,10-27a41.63,41.63,0,0,0-3-14C313.79,225.75,301.36,217.83,300.66,218.5Z"/><path class="cls-11" d="M294.66,221.5c-.73.69,12.15,9.62,14,25,.26,2.16.07,2.56-1,15.95-1.71,21.33-1.37,21.94-1,22.05,2,.62,10.39-12.13,10-27a41.63,41.63,0,0,0-3-14C307.79,228.75,295.36,220.83,294.66,221.5Z"/><path class="cls-12" d="M289.66,229.5c-.73.69,12.15,9.62,14,25,.26,2.16.07,2.56-1,15.95-1.71,21.33-1.37,21.94-1,22.05,2,.62,10.39-12.13,10-27a41.63,41.63,0,0,0-3-14C302.79,236.75,290.36,228.83,289.66,229.5Z"/><path class="cls-10" d="M314.66,219.5c-.73.69,12.15,9.62,14,25,.26,2.16.07,2.56-1,15.95-1.71,21.33-1.37,21.94-1,22.05,2,.62,10.39-12.13,10-27a41.63,41.63,0,0,0-3-14C327.79,226.75,315.36,218.83,314.66,219.5Z"/><path class="cls-11" d="M308.66,222.5c-.73.69,12.15,9.62,14,25,.26,2.16.07,2.56-1,15.95-1.71,21.33-1.37,21.94-1,22.05,2,.62,10.39-12.13,10-27a41.63,41.63,0,0,0-3-14C321.79,229.75,309.36,221.83,308.66,222.5Z"/><path class="cls-12" d="M303.66,230.5c-.73.69,12.15,9.62,14,25,.26,2.16.07,2.56-1,15.95-1.71,21.33-1.37,21.94-1,22.05,2,.62,10.39-12.13,10-27a41.63,41.63,0,0,0-3-14C316.79,237.75,304.36,229.83,303.66,230.5Z"/><path class="cls-10" d="M331.66,220.5c-.73.69,12.15,9.62,14,25,.26,2.16.07,2.56-1,15.95-1.71,21.33-1.37,21.94-1,22.05,2,.62,10.39-12.13,10-27a41.63,41.63,0,0,0-3-14C344.79,227.75,332.36,219.83,331.66,220.5Z"/><path class="cls-11" d="M325.66,223.5c-.73.69,12.15,9.62,14,25,.26,2.16.07,2.56-1,15.95-1.71,21.33-1.37,21.94-1,22.05,2,.62,10.39-12.13,10-27a41.63,41.63,0,0,0-3-14C338.79,230.75,326.36,222.83,325.66,223.5Z"/><path class="cls-12" d="M320.66,231.5c-.73.69,12.15,9.62,14,25,.26,2.16.07,2.56-1,15.95-1.71,21.33-1.37,21.94-1,22.05,2,.62,10.39-12.13,10-27a41.63,41.63,0,0,0-3-14C333.79,238.75,321.36,230.83,320.66,231.5Z"/><path class="cls-10" d="M348.66,218.5c-.73.69,12.15,9.62,14,25,.26,2.16.07,2.56-1,15.95-1.71,21.33-1.37,21.94-1,22.05,2,.62,10.39-12.13,10-27a41.63,41.63,0,0,0-3-14C361.79,225.75,349.36,217.83,348.66,218.5Z"/><path class="cls-11" d="M342.66,221.5c-.73.69,12.15,9.62,14,25,.26,2.16.07,2.56-1,15.95-1.71,21.33-1.37,21.94-1,22.05,2,.62,10.39-12.13,10-27a41.63,41.63,0,0,0-3-14C355.79,228.75,343.36,220.83,342.66,221.5Z"/><path class="cls-12" d="M337.66,229.5c-.73.69,12.15,9.62,14,25,.26,2.16.07,2.56-1,15.95-1.71,21.33-1.37,21.94-1,22.05,2,.62,10.39-12.13,10-27a41.63,41.63,0,0,0-3-14C350.79,236.75,338.36,228.83,337.66,229.5Z"/><path class="cls-10" d="M362.66,218.5c-.73.69,12.15,9.62,14,25,.26,2.16.07,2.56-1,15.95-1.71,21.33-1.37,21.94-1,22.05,2,.62,10.39-12.13,10-27a41.63,41.63,0,0,0-3-14C375.79,225.75,363.36,217.83,362.66,218.5Z"/><path class="cls-11" d="M356.66,221.5c-.73.69,12.15,9.62,14,25,.26,2.16.07,2.56-1,15.95-1.71,21.33-1.37,21.94-1,22.05,2,.62,10.39-12.13,10-27a41.63,41.63,0,0,0-3-14C369.79,228.75,357.36,220.83,356.66,221.5Z"/><path class="cls-12" d="M351.66,229.5c-.73.69,12.15,9.62,14,25,.26,2.16.07,2.56-1,15.95-1.71,21.33-1.37,21.94-1,22.05,2,.62,10.39-12.13,10-27a41.63,41.63,0,0,0-3-14C364.79,236.75,352.36,228.83,351.66,229.5Z"/><path class="cls-10" d="M380.66,217.5c-.73.69,12.15,9.62,14,25,.26,2.16.07,2.56-1,15.95-1.71,21.33-1.37,21.94-1,22.05,2,.62,10.39-12.13,10-27a41.63,41.63,0,0,0-3-14C393.79,224.75,381.36,216.83,380.66,217.5Z"/><path class="cls-11" d="M374.66,220.5c-.73.69,12.15,9.62,14,25,.26,2.16.07,2.56-1,15.95-1.71,21.33-1.37,21.94-1,22.05,2,.62,10.39-12.13,10-27a41.63,41.63,0,0,0-3-14C387.79,227.75,375.36,219.83,374.66,220.5Z"/><path class="cls-12" d="M369.66,228.5c-.73.69,12.15,9.62,14,25,.26,2.16.07,2.56-1,15.95-1.71,21.33-1.37,21.94-1,22.05,2,.62,10.39-12.13,10-27a41.63,41.63,0,0,0-3-14C382.79,235.75,370.36,227.83,369.66,228.5Z"/><path class="cls-10" d="M397.66,210.5c-.73.69,12.15,9.62,14,25,.26,2.16.07,2.56-1,15.95-1.71,21.33-1.37,21.94-1,22.05,2,.62,10.39-12.13,10-27a41.63,41.63,0,0,0-3-14C410.79,217.75,398.36,209.83,397.66,210.5Z"/><path class="cls-11" d="M391.66,213.5c-.73.69,12.15,9.62,14,25,.26,2.16.07,2.56-1,15.95-1.71,21.33-1.37,21.94-1,22.05,2,.62,10.39-12.13,10-27a41.63,41.63,0,0,0-3-14C404.79,220.75,392.36,212.83,391.66,213.5Z"/><path class="cls-12" d="M386.66,221.5c-.73.69,12.15,9.62,14,25,.26,2.16.07,2.56-1,15.95-1.71,21.33-1.37,21.94-1,22.05,2,.62,10.39-12.13,10-27a41.63,41.63,0,0,0-3-14C399.79,228.75,387.36,220.83,386.66,221.5Z"/><path class="cls-10" d="M411.66,213.5c-.73.69,12.15,9.62,14,25,.26,2.16.07,2.56-1,15.95-1.71,21.33-1.37,21.94-1,22.05,2,.62,10.39-12.13,10-27a41.63,41.63,0,0,0-3-14C424.79,220.75,412.36,212.83,411.66,213.5Z"/><path class="cls-11" d="M405.66,216.5c-.73.69,12.15,9.62,14,25,.26,2.16.07,2.56-1,15.95-1.71,21.33-1.37,21.94-1,22.05,2,.62,10.39-12.13,10-27a41.63,41.63,0,0,0-3-14C418.79,223.75,406.36,215.83,405.66,216.5Z"/><path class="cls-12" d="M400.66,224.5c-.73.69,12.15,9.62,14,25,.26,2.16.07,2.56-1,15.95-1.71,21.33-1.37,21.94-1,22.05,2,.62,10.39-12.13,10-27a41.63,41.63,0,0,0-3-14C413.79,231.75,401.36,223.83,400.66,224.5Z"/><path class="cls-10" d="M424.66,216.5c-.73.69,12.15,9.62,14,25,.26,2.16.07,2.56-1,15.95-1.71,21.33-1.37,21.94-1,22.05,2,.62,10.39-12.13,10-27a41.63,41.63,0,0,0-3-14C437.79,223.75,425.36,215.83,424.66,216.5Z"/><path class="cls-11" d="M418.66,219.5c-.73.69,12.15,9.62,14,25,.26,2.16.07,2.56-1,15.95-1.71,21.33-1.37,21.94-1,22.05,2,.62,10.39-12.13,10-27a41.63,41.63,0,0,0-3-14C431.79,226.75,419.36,218.83,418.66,219.5Z"/><path class="cls-12" d="M413.66,227.5c-.73.69,12.15,9.62,14,25,.26,2.16.07,2.56-1,15.95-1.71,21.33-1.37,21.94-1,22.05,2,.62,10.39-12.13,10-27a41.63,41.63,0,0,0-3-14C426.79,234.75,414.36,226.83,413.66,227.5Z"/><path class="cls-10" d="M433.66,215.5c-.73.69,12.15,9.62,14,25,.26,2.16.07,2.56-1,15.95-1.71,21.33-1.37,21.94-1,22.05,2,.62,10.39-12.13,10-27a41.63,41.63,0,0,0-3-14C446.79,222.75,434.36,214.83,433.66,215.5Z"/><path class="cls-11" d="M427.66,218.5c-.73.69,12.15,9.62,14,25,.26,2.16.07,2.56-1,15.95-1.71,21.33-1.37,21.94-1,22.05,2,.62,10.39-12.13,10-27a41.63,41.63,0,0,0-3-14C440.79,225.75,428.36,217.83,427.66,218.5Z"/><path class="cls-12" d="M422.66,226.5c-.73.69,12.15,9.62,14,25,.26,2.16.07,2.56-1,15.95-1.71,21.33-1.37,21.94-1,22.05,2,.62,10.39-12.13,10-27a41.63,41.63,0,0,0-3-14C435.79,233.75,423.36,225.83,422.66,226.5Z"/><path class="cls-10" d="M450.66,216.5c-.73.69,12.15,9.62,14,25,.26,2.16.07,2.56-1,15.95-1.71,21.33-1.37,21.94-1,22.05,2,.62,10.39-12.13,10-27a41.63,41.63,0,0,0-3-14C463.79,223.75,451.36,215.83,450.66,216.5Z"/><path class="cls-11" d="M444.66,219.5c-.73.69,12.15,9.62,14,25,.26,2.16.07,2.56-1,15.95-1.71,21.33-1.37,21.94-1,22.05,2,.62,10.39-12.13,10-27a41.63,41.63,0,0,0-3-14C457.79,226.75,445.36,218.83,444.66,219.5Z"/><path class="cls-12" d="M439.66,227.5c-.73.69,12.15,9.62,14,25,.26,2.16.07,2.56-1,15.95-1.71,21.33-1.37,21.94-1,22.05,2,.62,10.39-12.13,10-27a41.63,41.63,0,0,0-3-14C452.79,234.75,440.36,226.83,439.66,227.5Z"/><path class="cls-10" d="M467.66,210.5c-.73.69,12.15,9.62,14,25,.26,2.16.07,2.56-1,15.95-1.71,21.33-1.37,21.94-1,22.05,2,.62,10.39-12.13,10-27a41.63,41.63,0,0,0-3-14C480.79,217.75,468.36,209.83,467.66,210.5Z"/><path class="cls-11" d="M461.66,213.5c-.73.69,12.15,9.62,14,25,.26,2.16.07,2.56-1,15.95-1.71,21.33-1.37,21.94-1,22.05,2,.62,10.39-12.13,10-27a41.63,41.63,0,0,0-3-14C474.79,220.75,462.36,212.83,461.66,213.5Z"/><path class="cls-12" d="M456.66,221.5c-.73.69,12.15,9.62,14,25,.26,2.16.07,2.56-1,15.95-1.71,21.33-1.37,21.94-1,22.05,2,.62,10.39-12.13,10-27a41.63,41.63,0,0,0-3-14C469.79,228.75,457.36,220.83,456.66,221.5Z"/><path class="cls-10" d="M484.66,211.5c-.73.69,12.15,9.62,14,25,.26,2.16.07,2.56-1,15.95-1.71,21.33-1.37,21.94-1,22.05,2,.62,10.39-12.13,10-27a41.63,41.63,0,0,0-3-14C497.79,218.75,485.36,210.83,484.66,211.5Z"/><path class="cls-11" d="M478.66,214.5c-.73.69,12.15,9.62,14,25,.26,2.16.07,2.56-1,15.95-1.71,21.33-1.37,21.94-1,22.05,2,.62,10.39-12.13,10-27a41.63,41.63,0,0,0-3-14C491.79,221.75,479.36,213.83,478.66,214.5Z"/><path class="cls-12" d="M473.66,222.5c-.73.69,12.15,9.62,14,25,.26,2.16.07,2.56-1,15.95-1.71,21.33-1.37,21.94-1,22.05,2,.62,10.39-12.13,10-27a41.63,41.63,0,0,0-3-14C486.79,229.75,474.36,221.83,473.66,222.5Z"/><path class="cls-10" d="M491.66,212.5c-.73.69,12.15,9.62,14,25,.26,2.16.07,2.56-1,15.95-1.71,21.33-1.37,21.94-1,22.05,2,.62,10.39-12.13,10-27a41.63,41.63,0,0,0-3-14C504.79,219.75,492.36,211.83,491.66,212.5Z"/><path class="cls-11" d="M485.66,215.5c-.73.69,12.15,9.62,14,25,.26,2.16.07,2.56-1,15.95-1.71,21.33-1.37,21.94-1,22.05,2,.62,10.39-12.13,10-27a41.63,41.63,0,0,0-3-14C498.79,222.75,486.36,214.83,485.66,215.5Z"/><path class="cls-12" d="M480.66,223.5c-.73.69,12.15,9.62,14,25,.26,2.16.07,2.56-1,15.95-1.71,21.33-1.37,21.94-1,22.05,2,.62,10.39-12.13,10-27a41.63,41.63,0,0,0-3-14C493.79,230.75,481.36,222.83,480.66,223.5Z"/><path class="cls-10" d="M501.66,209.5c-.73.69,12.15,9.62,14,25,.26,2.16.07,2.56-1,15.95-1.71,21.33-1.37,21.94-1,22.05,2,.62,10.39-12.13,10-27a41.63,41.63,0,0,0-3-14C514.79,216.75,502.36,208.83,501.66,209.5Z"/><path class="cls-11" d="M495.66,212.5c-.73.69,12.15,9.62,14,25,.26,2.16.07,2.56-1,15.95-1.71,21.33-1.37,21.94-1,22.05,2,.62,10.39-12.13,10-27a41.63,41.63,0,0,0-3-14C508.79,219.75,496.36,211.83,495.66,212.5Z"/><path class="cls-12" d="M490.66,220.5c-.73.69,12.15,9.62,14,25,.26,2.16.07,2.56-1,15.95-1.71,21.33-1.37,21.94-1,22.05,2,.62,10.39-12.13,10-27a41.63,41.63,0,0,0-3-14C503.79,227.75,491.36,219.83,490.66,220.5Z"/><path class="cls-10" d="M508.66,205.5c-.73.69,12.15,9.62,14,25,.26,2.16.07,2.56-1,15.95-1.71,21.33-1.37,21.94-1,22.05,2,.62,10.39-12.13,10-27a41.63,41.63,0,0,0-3-14C521.79,212.75,509.36,204.83,508.66,205.5Z"/><path class="cls-11" d="M502.66,208.5c-.73.69,12.15,9.62,14,25,.26,2.16.07,2.56-1,15.95-1.71,21.33-1.37,21.94-1,22.05,2,.62,10.39-12.13,10-27a41.63,41.63,0,0,0-3-14C515.79,215.75,503.36,207.83,502.66,208.5Z"/><path class="cls-12" d="M497.66,216.5c-.73.69,12.15,9.62,14,25,.26,2.16.07,2.56-1,15.95-1.71,21.33-1.37,21.94-1,22.05,2,.62,10.39-12.13,10-27a41.63,41.63,0,0,0-3-14C510.79,223.75,498.36,215.83,497.66,216.5Z"/><path class="cls-10" d="M519.66,202.5c-.73.69,12.15,9.62,14,25,.26,2.16.07,2.56-1,15.95-1.71,21.33-1.37,21.94-1,22.05,2,.62,10.39-12.13,10-27a41.63,41.63,0,0,0-3-14C532.79,209.75,520.36,201.83,519.66,202.5Z"/><path class="cls-11" d="M513.66,205.5c-.73.69,12.15,9.62,14,25,.26,2.16.07,2.56-1,15.95-1.71,21.33-1.37,21.94-1,22.05,2,.62,10.39-12.13,10-27a41.63,41.63,0,0,0-3-14C526.79,212.75,514.36,204.83,513.66,205.5Z"/><path class="cls-12" d="M508.66,213.5c-.73.69,12.15,9.62,14,25,.26,2.16.07,2.56-1,15.95-1.71,21.33-1.37,21.94-1,22.05,2,.62,10.39-12.13,10-27a41.63,41.63,0,0,0-3-14C521.79,220.75,509.36,212.83,508.66,213.5Z"/><path class="cls-10" d="M540.66,200.5c-.73.69,12.15,9.62,14,25,.26,2.16.07,2.56-1,15.95-1.71,21.33-1.37,21.94-1,22.05,2,.62,10.39-12.13,10-27a41.63,41.63,0,0,0-3-14C553.79,207.75,541.36,199.83,540.66,200.5Z"/><path class="cls-11" d="M534.66,203.5c-.73.69,12.15,9.62,14,25,.26,2.16.07,2.56-1,15.95-1.71,21.33-1.37,21.94-1,22.05,2,.62,10.39-12.13,10-27a41.63,41.63,0,0,0-3-14C547.79,210.75,535.36,202.83,534.66,203.5Z"/><path class="cls-12" d="M529.66,211.5c-.73.69,12.15,9.62,14,25,.26,2.16.07,2.56-1,15.95-1.71,21.33-1.37,21.94-1,22.05,2,.62,10.39-12.13,10-27a41.63,41.63,0,0,0-3-14C542.79,218.75,530.36,210.83,529.66,211.5Z"/><path class="cls-10" d="M560.66,197.5c-.73.69,12.15,9.62,14,25,.26,2.16.07,2.56-1,15.95-1.71,21.33-1.37,21.94-1,22.05,2,.62,10.39-12.13,10-27a41.63,41.63,0,0,0-3-14C573.79,204.75,561.36,196.83,560.66,197.5Z"/><path class="cls-11" d="M554.66,200.5c-.73.69,12.15,9.62,14,25,.26,2.16.07,2.56-1,15.95-1.71,21.33-1.37,21.94-1,22.05,2,.62,10.39-12.13,10-27a41.63,41.63,0,0,0-3-14C567.79,207.75,555.36,199.83,554.66,200.5Z"/><path class="cls-12" d="M549.66,208.5c-.73.69,12.15,9.62,14,25,.26,2.16.07,2.56-1,15.95-1.71,21.33-1.37,21.94-1,22.05,2,.62,10.39-12.13,10-27a41.63,41.63,0,0,0-3-14C562.79,215.75,550.36,207.83,549.66,208.5Z"/><path class="cls-10" d="M570.66,191.5c-.73.69,12.15,9.62,14,25,.26,2.16.07,2.56-1,15.95-1.71,21.33-1.37,21.94-1,22.05,2,.62,10.39-12.13,10-27a41.63,41.63,0,0,0-3-14C583.79,198.75,571.36,190.83,570.66,191.5Z"/><path class="cls-11" d="M564.66,194.5c-.73.69,12.15,9.62,14,25,.26,2.16.07,2.56-1,15.95-1.71,21.33-1.37,21.94-1,22.05,2,.62,10.39-12.13,10-27a41.63,41.63,0,0,0-3-14C577.79,201.75,565.36,193.83,564.66,194.5Z"/><path class="cls-12" d="M559.66,202.5c-.73.69,12.15,9.62,14,25,.26,2.16.07,2.56-1,15.95-1.71,21.33-1.37,21.94-1,22.05,2,.62,10.39-12.13,10-27a41.63,41.63,0,0,0-3-14C572.79,209.75,560.36,201.83,559.66,202.5Z"/><path class="cls-10" d="M589.66,190.5c-.73.69,12.15,9.62,14,25,.26,2.16.07,2.56-1,15.95-1.71,21.33-1.37,21.94-1,22.05,2,.62,10.39-12.13,10-27a41.63,41.63,0,0,0-3-14C602.79,197.75,590.36,189.83,589.66,190.5Z"/><path class="cls-11" d="M583.66,193.5c-.73.69,12.15,9.62,14,25,.26,2.16.07,2.56-1,15.95-1.71,21.33-1.37,21.94-1,22.05,2,.62,10.39-12.13,10-27a41.63,41.63,0,0,0-3-14C596.79,200.75,584.36,192.83,583.66,193.5Z"/><path class="cls-12" d="M578.66,201.5c-.73.69,12.15,9.62,14,25,.26,2.16.07,2.56-1,15.95-1.71,21.33-1.37,21.94-1,22.05,2,.62,10.39-12.13,10-27a41.63,41.63,0,0,0-3-14C591.79,208.75,579.36,200.83,578.66,201.5Z"/></g></g></svg>