<svg xmlns="http://www.w3.org/2000/svg" viewBox="0 0 561.23 230.01"><defs><style>.cls-1{fill:#939393;}.cls-1,.cls-2,.cls-3,.cls-4,.cls-5{stroke:#000;stroke-miterlimit:10;}.cls-2{fill:#646464;}.cls-3{fill:#bebebe;}.cls-4{fill:#d2d2d2;}.cls-5{fill:#787878;}</style></defs><title>rock_1</title><g id="Layer_2" data-name="Layer 2"><g id="Layer_1-2" data-name="Layer 1"><path class="cls-1" d="M552.27,98.13l-51,31.28L308.7,91l-78.22,38.4,50.14-39.09,34.09-8.91L489.2,117.06l60.89-27.17-.8-3-63.44,2.77L449.09,80l-60.84,4.11-119-37.71L169,35.47,80.07,56,7.59,97.25,3.32,124.06,147.59,167.8,286,140.38l39.44,8.91,74.87-9.6,57.5,19.89h77.54l25.41-8.38V130.09ZM103.47,86.21l20-16.46,22.06,3.43,15.5,18-34.89,15L103.47,91.37Z"/><path class="cls-1" d="M530.64,174l30.09-13.85v18.65l-1.05,3.38-38.4,16.51H84.75L12.68,174,.51,141.75l.84-5.24,64.68,19,79.55,25.37L206.42,174,290,153.4l38.11,6.18,58.16-10.29s65.51,19.2,68.18,19.2S530.64,174,530.64,174Z"/><polygon class="cls-2" points="559.68 182.15 548.02 219.91 522.62 229.51 70.71 229.51 19.9 193.17 12.68 174.02 84.75 198.66 521.28 198.66 559.68 182.15"/><polygon class="cls-3" points="549.29 86.87 485.85 89.64 449.09 80.04 388.25 84.15 269.26 46.44 168.98 35.47 80.07 56.04 7.59 97.25 10.09 81.52 66.7 35.47 159.62 12.84 301.35 35.47 394.27 65.64 433.71 58.1 513.26 75.24 535.21 66.76 548.02 82.09 549.29 86.87"/><polygon class="cls-4" points="535.21 66.76 513.26 75.24 433.71 58.1 394.27 65.64 301.35 35.47 159.62 12.84 66.7 35.47 10.09 81.52 10.54 78.67 56.67 21.07 130.21 0.5 241.85 0.5 306.02 21.76 389.59 54.67 434.38 49.87 485.19 61.52 531.98 62.9 535.21 66.76"/><path class="cls-5" d="M560.73,151.2v8.92L530.64,174s-73.53-5.48-76.21-5.48-68.18-19.2-68.18-19.2l-58.16,10.29L290,153.4,206.42,174l-60.84,6.86L66,155.46l-64.68-19,2-12.45L147.59,167.8,286,140.38l39.44,8.91,74.87-9.6,57.5,19.89h77.54Z"/><polygon class="cls-2" points="161.08 91.14 126.19 106.09 103.47 91.37 103.47 86.21 123.52 69.75 145.58 73.18 161.08 91.14"/><polygon class="cls-4" points="166.31 97.18 146.25 111.58 123.52 117.06 103.47 101.98 103.47 91.37 126.19 106.09 161.08 91.14 166.31 97.18"/><polygon class="cls-5" points="552.27 98.13 501.23 129.41 308.7 91.01 230.48 129.41 280.62 90.32 314.71 81.41 489.2 117.06 550.09 89.89 552.27 98.13"/></g></g></svg>