<svg xmlns="http://www.w3.org/2000/svg" viewBox="0 0 261 121"><defs><style>.cls-1{fill:#362c0a;}.cls-2{fill:#194500;}.cls-3{fill:#362512;}.cls-4{fill:#195100;}.cls-5{fill:#196000;}.cls-6{fill:#361d0a;}.cls-7{fill:#4f3428;}</style></defs><title>tile1</title><g id="Layer_2" data-name="Layer 2"><g id="Layer_1-2" data-name="Layer 1"><path class="cls-1" d="M0,27V74H261V27ZM25,57H18l-4.91-4.91L13,52l.65-.39,1.58-1L20,54h5l4.4-1.26,1.6-.45L32,52l3.89-1.62L33,55Zm3-5-7-2.42H16l-2.35,2,1.58-1L20,54h5l4.4-1.26Z"/><polygon class="cls-1" points="32.48 55.13 25 57 18 57 13.09 52.09 13 52 13.65 51.61 15.23 50.66 20 54 25 54 29.4 52.74 31 52.29 31.89 54 32.48 55.13"/><polygon class="cls-1" points="35.89 50.38 33 55 32.48 55.13 31.89 54 31 52.29 32 52 35.89 50.38"/><rect class="cls-1" y="84" width="261" height="37"/><path class="cls-2" d="M261,9.64V31.78a7.2,7.2,0,0,1-1.25,4l-6.36,9.32a7.19,7.19,0,0,1-12.56-1.21l-.06-.14a7.14,7.14,0,0,0-2.34-3l-3.32-2.45a7.21,7.21,0,0,0-10.18,1.67l-2.23,3.21a7.21,7.21,0,0,1-10.76,1.19l-8.06-7.37a7.19,7.19,0,0,0-7.61-1.34l-7.61,3.15a7.17,7.17,0,0,1-5.35.06L174,35.35a7.18,7.18,0,0,0-6.59.72l-7.28,4.85a7.2,7.2,0,0,1-6.6.73L144.09,38a7.2,7.2,0,0,0-9.8,7c0,.41,0,.83.05,1.25a7.2,7.2,0,0,1-11.67,5.93L105.45,38.47a7.19,7.19,0,0,0-10.1,1.13l-7,8.72a7.2,7.2,0,0,1-11,.25l-8.78-10a7.2,7.2,0,0,0-9.25-1.33l-1.85,1.17a7.23,7.23,0,0,1-5.31,1l-19.44-4a7.07,7.07,0,0,0-3.39.11l-7.78,2.16A24.17,24.17,0,0,1,5,36.28l-.77-.35A7.2,7.2,0,0,1,0,29.39V12c1.23-.14,2.41-.31,3.5-.52C16.61,9,19,1.76,30.5,2.5c2.4.16,1.41.41,16,3,5.51,1,3.64.58,12,2,12.6,2.13,14,2.55,17,2,5.25-1,4.12-2.82,11-5,2.45-.78,10.75-3.3,20-1,3.87,1,4,1.8,7,2,6,.39,7.8-2.81,13-3,5.61-.21,5.56,3.45,13,5,8,1.67,15.32-1,18-2,5.05-1.85,4.7-3,9-4,4.89-1.17,9.2-.63,14,0,5.83.77,4.9,1.41,10,2,7.82.91,10.72-.51,14,2,2.74,2.09,1.82,3.92,4,5,4.42,2.18,8.63-5.13,18-6,1.26-.12,4.84.59,12,2,10.89,2.15,11.81,2.79,16,3C256.93,9.62,259.06,9.72,261,9.64Z"/><path class="cls-1" d="M59,84H0l7-1,25-3Z"/><path class="cls-1" d="M107,74,95,77,69,79l-9,1a91,91,0,0,0-9-2,93.59,93.59,0,0,0-31,0L5,75,0,74Z"/><path class="cls-1" d="M140.75,84H59l14-2,18-1,31-6Z"/><path class="cls-1" d="M151.5,74,142,78l-9.5-4Z"/><path class="cls-1" d="M253.05,84H140.75l26.62-10h33.06L203,77l18,5a24.31,24.31,0,0,1,32.05,2Z"/><path class="cls-1" d="M232.29,74,218,78l-10-4Z"/><path class="cls-1" d="M261,74l-7,3-5.5-3Z"/><path class="cls-3" d="M261,74V84l-7,1c-.19-.22-.51-.57-.95-1A24.31,24.31,0,0,0,221,82l-18-5-2.57-3L197,70l-11-3-18.63,7L140.75,84,122,75,91,81,73,82,59,84,32,80,7,83,0,84V74l5,1,15,3a93.59,93.59,0,0,1,31,0,91,91,0,0,1,9,2l9-1,26-2,12-3,16-4,9.5,4,9.5,4,9.5-4L180,62h11c.83-.13,7.9-1.1,13,4a14.59,14.59,0,0,1,4,8l10,4,14.29-4L243,71l5.5,3,5.5,3Z"/><path class="cls-4" d="M261,9.64V17.4c-6.24,2.73-13.43,3.79-19,1.6-6.4-2.51-8.26-8.37-14-8-6.62.42-7.62,8.44-14,9-7.46.66-9.34-10-19-11-7-.72-8.78,4.59-18,4-6.48-.41-6.81-3.11-12-3-9.36.21-10.81,9-19,10-11.27,1.33-20.38-14-25-11-2.5,1.6-.43,6.48-3,8-4.17,2.47-10.87-9.67-20-9-9.45.69-13.35,14.51-21,13-3-.59-2.89-2.78-7-4-5.55-1.64-8.38,1.58-14,2-9.4.7-11.65-7.57-22-9-7.18-1-9.17,2.57-19,5A64.64,64.64,0,0,1,0,16.79V12c1.23-.14,2.41-.31,3.5-.52C16.61,9,19,1.76,30.5,2.5c2.4.16,1.41.41,16,3,5.51,1,3.64.58,12,2,12.6,2.13,14,2.55,17,2,5.25-1,4.12-2.82,11-5,2.45-.78,10.75-3.3,20-1,3.87,1,4,1.8,7,2,6,.39,7.8-2.81,13-3,5.61-.21,5.56,3.45,13,5,8,1.67,15.32-1,18-2,5.05-1.85,4.7-3,9-4,4.89-1.17,9.2-.63,14,0,5.83.77,4.9,1.41,10,2,7.82.91,10.72-.51,14,2,2.74,2.09,1.82,3.92,4,5,4.42,2.18,8.63-5.13,18-6,1.26-.12,4.84.59,12,2,10.89,2.15,11.81,2.79,16,3C256.93,9.62,259.06,9.72,261,9.64Z"/><path class="cls-5" d="M261,7.2V9.64c-1.94.08-4.07,0-6.5-.14-4.19-.21-5.11-.85-16-3-7.16-1.41-10.74-2.12-12-2-9.37.87-13.58,8.18-18,6-2.18-1.08-1.26-2.91-4-5-3.28-2.51-6.18-1.09-14-2-5.1-.59-4.17-1.23-10-2-4.8-.63-9.11-1.17-14,0-4.3,1-3.95,2.15-9,4-2.68,1-10,3.67-18,2-7.44-1.55-7.39-5.21-13-5-5.2.19-7,3.39-13,3-3-.2-3.13-1-7-2-9.25-2.3-17.55.22-20,1-6.88,2.18-5.75,4-11,5-3,.55-4.4.13-17-2-8.36-1.42-6.49-1-12-2-14.59-2.59-13.6-2.84-16-3C19,1.76,16.61,9,3.5,11.5c-1.09.21-2.27.38-3.5.52V7.2A7.2,7.2,0,0,1,7.2,0H253.8A7.2,7.2,0,0,1,261,7.2Z"/><polygon class="cls-6" points="46.5 68.66 42.54 68.66 40.78 70.5 37.7 66.84 36.48 65.31 37.3 64.12 37.55 63.76 38.58 62.25 40.78 62.25 43.86 64.08 44.48 64.61 45.57 65.57 45.83 66.43 46.5 68.66"/><polygon class="cls-7" points="45.57 65.57 44.48 64.61 43.86 64.08 40.78 62.25 38.58 62.25 37.55 63.76 37.3 64.12 36.48 65.31 35.5 64.08 37.7 59.5 40.78 59.5 44.3 61.34 45.18 64.27 45.57 65.57"/><polygon class="cls-6" points="167 46.83 165.61 49.09 163.04 50.17 158.42 51.5 155.12 51.5 151.97 49.27 153.8 48.17 158.42 45.5 161.06 46.83 167 46.83"/><polygon class="cls-7" points="165.61 49.09 163.7 52.17 158.42 53.5 153.8 53.5 150.5 50.17 151.97 49.27 155.12 51.5 158.42 51.5 163.04 50.17 165.61 49.09"/><polygon class="cls-6" points="162.5 90.83 163.77 88.02 166.1 86.67 170.3 85 173.3 85 176.16 87.78 174.5 89.17 170.3 92.5 167.9 90.83 162.5 90.83"/><polygon class="cls-7" points="163.77 88.02 165.5 84.17 170.3 82.5 174.5 82.5 177.5 86.67 176.16 87.78 173.3 85 170.3 85 166.1 86.67 163.77 88.02"/><polygon class="cls-6" points="92.5 105.5 91.4 107.19 89.38 108 85.74 109 83.14 109 80.66 107.33 82.1 106.5 85.74 104.5 87.82 105.5 92.5 105.5"/><polygon class="cls-7" points="91.4 107.19 89.9 109.5 85.74 110.5 82.1 110.5 79.5 108 80.66 107.33 83.14 109 85.74 109 89.38 108 91.4 107.19"/><polygon class="cls-6" points="236.5 63.17 235.4 60.91 233.38 59.83 229.74 58.5 227.14 58.5 224.66 60.73 226.1 61.83 229.74 64.5 231.82 63.17 236.5 63.17"/><polygon class="cls-7" points="235.4 60.91 233.9 57.83 229.74 56.5 226.1 56.5 223.5 59.83 224.66 60.73 227.14 58.5 229.74 58.5 233.38 59.83 235.4 60.91"/></g></g></svg>