<svg xmlns="http://www.w3.org/2000/svg" viewBox="0 0 289 121"><defs><style>.cls-1{fill:#828282;}.cls-2{fill:#362512;}.cls-3{fill:#969696;}.cls-4{fill:#b4b4b4;}.cls-5{fill:#c8c8c8;}.cls-6{fill:#2a2021;}.cls-7{fill:#251412;}</style></defs><title>tile2</title><g id="Layer_2" data-name="Layer 2"><g id="Layer_1-2" data-name="Layer 1"><rect class="cls-1" x="16" y="18" width="47" height="28"/><rect class="cls-1" x="114" y="18" width="48" height="28"/><rect class="cls-1" x="214" y="18" width="44" height="28"/><path class="cls-2" d="M0,46v75H289V46ZM34,89l-6-5-8-1,2.5-4L29,80l6,4,5.14-3.43L44,84Z"/><polygon class="cls-2" points="44 84 34 89 28 84 20 83 22.5 79 29 80 35 84 40.14 80.57 44 84"/><rect class="cls-3" y="33" width="16" height="13"/><rect class="cls-3" x="63" y="33" width="51" height="13"/><rect class="cls-3" x="162" y="33" width="52" height="13"/><rect class="cls-3" x="258" y="33" width="31" height="13"/><rect class="cls-4" x="16" width="47" height="18"/><rect class="cls-4" x="114" width="48" height="18"/><rect class="cls-4" x="214" width="44" height="18"/><rect class="cls-5" width="16" height="33"/><rect class="cls-5" x="63" width="51" height="33"/><rect class="cls-5" x="162" width="52" height="33"/><rect class="cls-5" x="258" width="31" height="33"/><polygon class="cls-6" points="38 79.22 33 82 30 79.22 26 78.67 27.25 76.44 30.5 77 33.5 79.22 36.07 77.32 38 79.22"/><polygon class="cls-7" points="36.07 77.32 33.5 79.22 30.5 77 27.25 76.44 28.5 74.22 31.5 72 33.5 74.78 36.07 77.32"/><polygon class="cls-6" points="257 89.06 254.08 91 252.33 89.06 250 88.67 250.73 87.11 252.63 87.5 254.38 89.06 255.87 87.72 257 89.06"/><polygon class="cls-7" points="255.87 87.72 254.38 89.06 252.63 87.5 250.73 87.11 251.46 85.56 253.21 84 254.38 85.94 255.87 87.72"/><polygon class="cls-6" points="126 71.78 121.83 74 119.33 71.78 116 71.33 117.04 69.56 119.75 70 122.25 71.78 124.39 70.25 126 71.78"/><polygon class="cls-7" points="124.39 70.25 122.25 71.78 119.75 70 117.04 69.56 118.08 67.78 120.58 66 122.25 68.22 124.39 70.25"/><polygon class="cls-6" points="202 104.67 197.83 103 195.33 104.67 192 105 193.04 106.33 195.75 106 198.25 104.67 200.39 105.81 202 104.67"/><polygon class="cls-7" points="200.39 105.81 198.25 104.67 195.75 106 193.04 106.33 194.08 107.67 196.58 109 198.25 107.33 200.39 105.81"/><polygon class="cls-6" points="88 89.22 83.83 87 81.33 89.22 78 89.67 79.04 91.44 81.75 91 84.25 89.22 86.39 90.75 88 89.22"/><polygon class="cls-7" points="86.39 90.75 84.25 89.22 81.75 91 79.04 91.44 80.08 93.22 82.58 95 84.25 92.78 86.39 90.75"/></g></g></svg>