<svg xmlns="http://www.w3.org/2000/svg" viewBox="0 0 452 769.61"><defs><style>.cls-1{fill:#5c503d;}.cls-1,.cls-3{stroke:#000;stroke-miterlimit:10;}.cls-2{fill:#6e5342;}.cls-3{fill:#007b2b;}.cls-4{fill:#00672b;}.cls-5{fill:#00522b;}</style></defs><title>tree</title><g id="Layer_2" data-name="Layer 2"><g id="Layer_1-2" data-name="Layer 1"><path class="cls-1" d="M187,733a505.65,505.65,0,0,0,14.49-53.49c47.21-224.19-65.61-441.35-59.77-444.31,2.37-1.2,19.49,35.24,37,87.71,27.35,82,28.59,121.93,37.95,122.33,23.67,1,48.29-253.54,53.12-252.74,1.83.3.65,37.07-4.74,83.09C254.14,368.76,236.31,411.89,243.7,417c15.49,10.64,113-165.6,114.32-164.45,1.16,1-55,99.25-55,99.25-58.78,102.78-57.76,99.9-58.82,102.71C197.75,577.32,249.68,722.25,250,724c0,0,7.47,20.25,9,22,7,8,21.57,15.87,13,13-5.53-1.85-6.7-1.31-22-10-3.57-2-1.59,21.91-5,20-1.81-1-14.3-16.06-16-17-5.94-3.28-37.48,12-40,15-4.65,5.64,11.6-16,5-17-5.11-.76-26.32,7.72-32,9-3.49.79,20.26-17.69,17-17-9.13,1.94-21-1-13-3C170.34,737.92,191,734.9,187,733Z"/><path class="cls-2" d="M214,672c-.49,11.71-1.76,41.94-15,61-1.13,1.63-6.27,8.82-13.67,18.53-8.3,2.35-19.44,6.59-23.33,7.47-3.49.79,20.26-17.69,17-17-9.13,1.94-21-1-13-3,4.34-1.08,25-4.1,21-6a505.65,505.65,0,0,0,14.49-53.49c45.1-214.17-55.84-421.92-59.86-442.64,6.21,14.43,13.19,31.8,21.37,52.13,15.69,39,23.61,69.8,30,95,8.72,34.41,21.73,86.83,26,157C219.59,550.73,219.23,547.9,214,672Z"/><path class="cls-3" d="M451.5,198.5a22.9,22.9,0,0,0-6.12-15.62,23.41,23.41,0,0,0,.12-2.38,23,23,0,0,0-18-22.45c0-.18,0-.37,0-.55a23,23,0,0,0-15.6-21.78,23,23,0,0,0-1.58-15,22.9,22.9,0,0,0,3.84-17.12,23,23,0,0,0-2.44-24.13,23,23,0,0,0-27.27-32.86,23.06,23.06,0,0,0-17-15.57A23,23,0,0,0,350.19,17.8a23.13,23.13,0,0,0-9.79-6.91,23,23,0,0,0-27.87-3,23.23,23.23,0,0,0-4-.36c-.48,0-1,0-1.44,0A23,23,0,0,0,270.6,12a23,23,0,0,0-28.39,10.69,24.2,24.2,0,0,0-2.71-.16,22.92,22.92,0,0,0-13.84,4.63,23,23,0,0,0-28.92-2.77,23.61,23.61,0,0,0-3.58-.7,23,23,0,0,0-30.16-1,23,23,0,0,0-34.79,7,24.2,24.2,0,0,0-2.71-.16,22.94,22.94,0,0,0-13.21,4.17,23,23,0,0,0-24,13.94,23,23,0,0,0-15.4,8.11A23,23,0,0,0,42.56,75.91,23,23,0,0,0,27.5,97.5a22.71,22.71,0,0,0,1.67,8.59,23,23,0,0,0-9.66,26.16,23,23,0,0,0,.85,37.12,23,23,0,0,0-2.69,23.88A23,23,0,0,0,23.5,238.5l.9,0a51.37,51.37,0,0,0,11.19,14A23,23,0,0,0,65,272.55a23,23,0,0,0,32.2.72,23.27,23.27,0,0,0,3.26.23,23,23,0,0,0,8.48-1.62A23.08,23.08,0,0,0,119.14,282a23,23,0,0,0,29,13.17,23,23,0,0,0,21,3,23,23,0,0,0,32-5.26,23,23,0,0,0,20.5-1.92,22.94,22.94,0,0,0,17.11,8.46,23,23,0,0,0,26.53,12.28,23,23,0,0,0,26.14,5.94,23,23,0,0,0,23.06,3,23,23,0,0,0,23.06-3,23,23,0,0,0,25.5-5.25c.48,0,1,.05,1.44.05a22.93,22.93,0,0,0,16.67-7.16,23,23,0,0,0,18.42-13.67,23,23,0,0,0,2.44-2.18,23,23,0,0,0,21.63-29.13,23,23,0,0,0,14-30.8,22.91,22.91,0,0,0,4.76-12.79A22.93,22.93,0,0,0,451.5,198.5Z"/><path class="cls-4" d="M426.5,195.36a21.85,21.85,0,0,0-5.44-14.51c.07-.72.11-1.46.11-2.21a21.19,21.19,0,0,0-16-20.85c0-.16,0-.33,0-.5a21.31,21.31,0,0,0-13.87-20.23,22.67,22.67,0,0,0,.53-4.85,22,22,0,0,0-1.94-9.08,21.89,21.89,0,0,0,3.72-12.27,21.57,21.57,0,0,0-.3-3.62,22.14,22.14,0,0,0-2.17-22.41,22,22,0,0,0,2.47-10.19c0-11.79-9.15-21.35-20.45-21.35a19.76,19.76,0,0,0-6.27,1,20.85,20.85,0,0,0-15.1-14.45,20.61,20.61,0,0,0-15.36-12.3,20.57,20.57,0,0,0-8.7-6.41,19.76,19.76,0,0,0-24.78-2.82,20.23,20.23,0,0,0-3.59-.33c-.43,0-.85,0-1.28.05a20,20,0,0,0-14.72-6.55,20.28,20.28,0,0,0-17.69,10.65,19.67,19.67,0,0,0-7.21-1.36,20.35,20.35,0,0,0-18,11.29,19.13,19.13,0,0,0-2.41-.15,19.82,19.82,0,0,0-12.31,4.3A19.78,19.78,0,0,0,200,33.66,19.71,19.71,0,0,0,196.8,33,19.81,19.81,0,0,0,170,32.07a19.8,19.8,0,0,0-12.89-4.78,20.35,20.35,0,0,0-18,11.29,19.13,19.13,0,0,0-2.41-.15,19.75,19.75,0,0,0-11.74,3.88,18.56,18.56,0,0,0-2.48-.17,20.47,20.47,0,0,0-18.87,13.1,20.17,20.17,0,0,0-13.69,7.53,19.63,19.63,0,0,0-6.57-1.13c-10.81,0-19.66,8.78-20.39,19.88a21.34,21.34,0,0,0-13.39,20,22.18,22.18,0,0,0,1.48,8,21.57,21.57,0,0,0-9.49,18,22.31,22.31,0,0,0,.9,6.27,21.91,21.91,0,0,0,.76,34.47,21.82,21.82,0,0,0-4.32,13.12,22.1,22.1,0,0,0,1.92,9A21.22,21.22,0,0,0,25.5,211.14c0,11.8,9.16,21.36,20.45,21.36l.8,0a47.41,47.41,0,0,0,10,13c.88,11,9.66,19.54,20.37,19.54a19.6,19.6,0,0,0,5.81-.88,19.82,19.82,0,0,0,28.63.66A19.57,19.57,0,0,0,122,263.5a21,21,0,0,0,9,9.42,20.49,20.49,0,0,0,19,13.44,19.57,19.57,0,0,0,6.77-1.21,19.79,19.79,0,0,0,11.9,4,19.58,19.58,0,0,0,6.78-1.2,19.74,19.74,0,0,0,11.89,4,20.2,20.2,0,0,0,16.6-8.88,19.69,19.69,0,0,0,18.22-1.78,20.15,20.15,0,0,0,15.22,7.86,20.39,20.39,0,0,0,18.43,12.08,19.51,19.51,0,0,0,5.15-.68,20.06,20.06,0,0,0,15.3,7.18,19.62,19.62,0,0,0,7.95-1.67,19.72,19.72,0,0,0,20.5,2.76,19.72,19.72,0,0,0,20.5-2.76,19.59,19.59,0,0,0,7.95,1.67,20,20,0,0,0,14.73-6.54c.42,0,.85,0,1.28,0A20,20,0,0,0,364,294.57a20.58,20.58,0,0,0,16.39-12.7,19.73,19.73,0,0,0,2.16-2c11.08-.26,20-9.71,20-21.34a22.21,22.21,0,0,0-.74-5.7,21.31,21.31,0,0,0,14.08-20.3,22.14,22.14,0,0,0-1.6-8.3,21.89,21.89,0,0,0,4.24-11.88A21.65,21.65,0,0,0,426.5,195.36Z"/><path class="cls-5" d="M402.5,189.46a18,18,0,0,0-4.78-12.23c.06-.61.1-1.23.1-1.86a18,18,0,0,0-14.06-17.57c0-.14,0-.29,0-.43a18,18,0,0,0-12.18-17,18.38,18.38,0,0,0,.47-4.09,18,18,0,0,0-1.7-7.66,18,18,0,0,0,3-13.39,18.06,18.06,0,0,0-1.91-18.89,18,18,0,0,0-21.28-25.72A18,18,0,0,0,336.91,58.4,18,18,0,0,0,323.43,48a18.11,18.11,0,0,0-7.64-5.41A17.91,17.91,0,0,0,294,40.26a18.06,18.06,0,0,0-3.14-.28c-.38,0-.75,0-1.12,0a17.91,17.91,0,0,0-28.46,3.46,17.94,17.94,0,0,0-22.16,8.37,16.38,16.38,0,0,0-2.11-.13,17.89,17.89,0,0,0-10.81,3.62,17.9,17.9,0,0,0-22.57-2.16,17.23,17.23,0,0,0-2.79-.56,17.91,17.91,0,0,0-23.54-.79,17.92,17.92,0,0,0-27.15,5.49,18.57,18.57,0,0,0-2.12-.12,17.87,17.87,0,0,0-10.31,3.26,19.49,19.49,0,0,0-2.18-.13,18,18,0,0,0-16.56,11,17.93,17.93,0,0,0-12,6.34,17.94,17.94,0,0,0-23.66,15.8,18,18,0,0,0-10.46,23.63,18,18,0,0,0-7.53,20.47,18,18,0,0,0,.66,29,18,18,0,0,0-2.1,18.69,18,18,0,0,0,4.55,35.41l.7,0a40.15,40.15,0,0,0,8.74,10.95,17.94,17.94,0,0,0,23,15.72A17.89,17.89,0,0,0,126,248a18,18,0,0,0,9.17-1.09,18,18,0,0,0,7.93,8,18,18,0,0,0,22.62,10.31,17.89,17.89,0,0,0,16.39,2.34,17.88,17.88,0,0,0,25-4.12,17.87,17.87,0,0,0,16-1.5,17.9,17.9,0,0,0,13.35,6.63,18,18,0,0,0,16.18,10.18,18.18,18.18,0,0,0,4.52-.57,17.95,17.95,0,0,0,20.41,4.64,17.91,17.91,0,0,0,18,2.33,17.92,17.92,0,0,0,18-2.33,17.93,17.93,0,0,0,19.9-4.1c.38,0,.75,0,1.13,0a17.89,17.89,0,0,0,13-5.6A18,18,0,0,0,362,262.37a17.06,17.06,0,0,0,1.9-1.71,18,18,0,0,0,17.54-18,17.72,17.72,0,0,0-.66-4.8,18.06,18.06,0,0,0,11-24.11,17.92,17.92,0,0,0,3.72-10A18,18,0,0,0,402.5,189.46Z"/></g></g></svg>