<svg xmlns="http://www.w3.org/2000/svg" viewBox="0 0 156.17 178.17"><defs><style>.cls-1{fill:#5c503d;stroke:#000;stroke-miterlimit:10;}.cls-2{fill:#6e5342;}</style></defs><title>trunk</title><g id="Layer_2" data-name="Layer 2"><g id="Layer_1-2" data-name="Layer 1"><path class="cls-1" d="M43.51,52.51c-3.65,2.44,9.71,20,9,42-.09,3-.58,14.35-7,25-14,23.23-45.79,26-45,29,.62,2.35,20.64,2.75,40-4,2.08-.72,8.47-3,9-2,.75,1.45-11.23,7-18,20-1,2-3.12,6-2,7,2,1.82,13.56-6.75,26-16,9.18-6.82,11.23-8.83,14-8,5.74,1.71,9.69,14.06,8,24-.66,3.92-2.17,7.24-1,8s5-1.62,7-5c2.73-4.61.18-7.58,2-13,1.39-4.11,5.17-9.25,10-10,5.77-.89,11.08,4.76,16,10,6.29,6.68,7.67,11.45,9,11,2-.68,2.08-12.65-4-22-2.4-3.71-4.54-5.1-4-6,1.17-1.94,13.18,1,21,9,2.69,2.76,2.25,3.41,5,6,6.39,6,15.63,8.91,17,7,1.06-1.46-3-5.13-16-21-11.53-14.06-13.73-17.73-15-20-1.76-3.17-5.28-10.06-8-22-9.07-39.86,1.88-87.29,3-92,0,0,2.07-8.65,1-9-2-.64-12.12,31.11-18,30-3.1-.59-3.23-10-5-10-3,0-3.6,27.61-8,28-3.56.32-7-17.43-11-17-2.75.3-3.28,9-5,9-2.65-.06-3.94-21-5-21-1.39,0-.22,36.57-4,37-2.5.29-6.44-15.38-8-15-1.32.33,1.89,11.69-2,14C51.2,57.48,45.77,51,43.51,52.51Z"/><path class="cls-2" d="M69.51,90.51C68.59,115,65.72,134,62.12,148.58c-1.69,1.23-3.82,2.86-6.61,4.93-12.45,9.25-24,17.82-26,16-1.12-1,1-5,2-7,6.77-13,18.74-18.55,18-20-.53-1-6.93,1.28-9,2-19.36,6.75-39.38,6.36-40,4-.79-3,31-5.77,45-29,6.41-10.65,6.9-22,7-25,.71-22-12.66-39.56-9-42,2.26-1.51,7.68,5,11,3,3.88-2.31.67-13.67,2-14,1.55-.38,5.5,15.29,8,15,3.77-.43,2.61-36.95,4-37,.07,0,.13.08.2.24v0C71.5,37.22,70.59,61.58,69.51,90.51Z"/></g></g></svg>