<svg xmlns="http://www.w3.org/2000/svg" viewBox="0 0 34.04 75.06"><defs><style>.cls-1{fill:#00322b;}.cls-1,.cls-2,.cls-3{stroke:#000;stroke-miterlimit:10;}.cls-2{fill:#00432b;}.cls-3{fill:#00522b;}</style></defs><title>weed1</title><g id="Layer_2" data-name="Layer 2"><g id="Layer_1-2" data-name="Layer 1"><path class="cls-1" d="M11.53.54c-.73.69,12.15,9.62,14,25,.26,2.16.07,2.56-1,15.94-1.71,21.34-1.37,22-1,22.06,2,.61,10.39-12.13,10-27a41.63,41.63,0,0,0-3-14C24.67,7.79,12.23-.13,11.53.54Z"/><path class="cls-2" d="M5.53,3.54c-.73.69,12.15,9.62,14,25,.26,2.16.07,2.56-1,15.94-1.71,21.34-1.37,22-1,22.06,2,.61,10.39-12.13,10-27a41.63,41.63,0,0,0-3-14C18.67,10.79,6.23,2.87,5.53,3.54Z"/><path class="cls-3" d="M.53,11.54c-.73.69,12.15,9.62,14,25,.26,2.16.07,2.56-1,15.94-1.71,21.34-1.37,22-1,22.06,2,.61,10.39-12.13,10-27a41.63,41.63,0,0,0-3-14C13.67,18.79,1.23,10.87.53,11.54Z"/></g></g></svg>