<svg xmlns="http://www.w3.org/2000/svg" viewBox="0 0 159.78 144.57"><defs><style>.cls-1{fill:#007330;stroke:#000;stroke-miterlimit:10;}.cls-2{fill:#194500;}.cls-3{fill:#192200;}</style></defs><title>weed2</title><g id="Layer_2" data-name="Layer 2"><g id="Layer_1-2" data-name="Layer 1"><path class="cls-1" d="M55.6,136.58c-6.37-3.48-8.61-6.93-17.53-9.87-11.12-3.67-20-2.38-20-3.44s10.8-4.16,22.54-2.14c7.38,1.27,10.11,4.07,11.52,3,2.91-2.2-3.86-17.43-18-26.61C18.4,87.37.35,88.91.5,87.21c.14-1.49,14.3-4.33,28.05.43,15,5.2,19.5,16,23,14.6,4.28-1.67,2.36-19.25-8-34.34C34.37,54.51,22.11,48.32,23,47.29s14.27,4.24,25.54,14.6c12.56,11.53,14.34,21.83,17,21.46,7.55-1-.79-82.83-.5-82.85s8.64,77.41,15,77.27c2.8-.06,1.37-14.95,14-30,8.9-10.61,20.77-16.58,21.54-15.88s-8.83,6.83-16,18.46c-8.2,13.23-11.29,30.19-6,32.62,4.67,2.15,11.29-9.18,31.05-16.74,17.77-6.8,34.25-6,34.56-4.72.39,1.55-24,2.58-41.57,18.46-8.59,7.77-14.66,18.33-12,20.6,1.53,1.31,5.09-1,14.53-3.43,12.93-3.37,25.14-4.58,25.54-3.44s-9.82,3.11-21,11.16c-4.13,3-10.65,8.37-9.51,9.88.64.86,4.26-1,12.52-2.58,1.83-.34,9.62-1.81,10-.86s-8,3-15.53,8.59c-8.95,6.66-6.85,11.17-13,16.31C97.49,145.9,71.35,145.21,55.6,136.58Z"/><path class="cls-2" d="M55.6,136.58c-3.28-3-4.78-6.7-11-9.87C37.2,123,30,123.36,30.05,122.84s8.14-1.56,16.53,1.29c6.72,2.29,8.76,5.4,10,4.72,2.76-1.48-2.05-19.1-17-30.48C28.58,90,15.77,87.81,16,87.21s8.51.62,17,4.73C49.37,99.81,53,112.25,56.6,111.25c4.16-1.14,4.59-19-4.51-34.77C45.83,65.62,36.77,58.66,37.56,58s7.15,3.61,13,9.45c12.25,12.16,14.39,24.44,17,24,3.43-.52,1.06-21.52,4-21.9,2.6-.33,6.61,15.8,9.52,15.46,2.32-.27.08-10.61,5.51-22.75,4.69-10.5,12.94-17.5,13.52-17.18s-4.55,5.69-8,14.17c-5.65,13.84-4.46,29.46,0,30.48,3.53.81,5.92-8.28,19-15.45,8.11-4.44,16.5-6,17-5.16.63,1.06-10.47,4.36-18.53,13.74-8.77,10.2-10.34,23.4-7,24.9,1.9.86,4.32-2.61,13.52-6.44,6.1-2.54,13-4.33,13.52-3.43s-5.36,3.49-12.52,9.87c-.66.59-10.76,9.66-9,11.59.35.4,1.34.53,12.52-3,2.38-.75,9.94-3.16,10-3s-10.56,1.84-15,8.59c-.24.36-1.17,2.39-3,6.43-3.42,7.53-3.37,7.48-3.5,7.73C104.41,145,69.4,149.35,55.6,136.58Z"/><path class="cls-3" d="M55.6,136.58a10.21,10.21,0,0,0-1-3.86c-1.39-2.49-3.76-3.5-3.5-3.87s3.89.86,6,1.72c3.35,1.36,4,2,4.51,1.72,2-1.08-3.25-11.51-3.51-12-1.19-2.32-1.78-3.49-2-3.87-1.44-2.41-2.39-3.42-2-3.86.54-.61,3.87.8,4,.86,1.72.74,2,1.36,2.5,1.29,1.27-.18,2.2-4.53,1.51-12a89,89,0,0,0-7-26.19s2.83,10.4,12,16.74c2.92,2,4,1.9,4.5,1.72,4.57-1.65-1.41-21.17,0-21.46s6.28,17.1,9.52,16.74c.9-.1,1.47-1.57,3-9.45,1.23-6.3,2.91-15.89,3-15.88a70.36,70.36,0,0,0,.5,21c1.21,6.52,2.52,7.52,3.51,7.72,2.73.57,5.2-4.49,12.52-11.16,6.86-6.25,13.55-9.87,14-9.44.68.61-13,8.55-17.53,22.75-2.29,7.24-2,15.39,1,16.31,1.47.46,2.79-1.08,10-5.58,6.12-3.8,9.37-5.32,9.52-5.15.28.33-2.45,2.89-11.52,11.59-4.41,4.22-6.91,6.67-6,8.16.75,1.24,3.56,1.28,4,1.28,1.9,0,3.32-.65,5.51-1.71,2.58-1.26,3.82-2.31,4-2.15s-3.4,2.77-5.51,7.3c-1.17,2.52-2,4.29-1.5,6a6,6,0,0,1,.14,2.88,14.2,14.2,0,0,1-.62,1.36l0,.05C103.54,146.61,58,145,55.6,136.58Z"/></g></g></svg>