<svg xmlns="http://www.w3.org/2000/svg" viewBox="0 0 65.16 167.51"><defs><style>.cls-1{fill:#194500;stroke:#000;stroke-miterlimit:10;}</style></defs><title>weed3</title><g id="Layer_2" data-name="Layer 2"><g id="Layer_1-2" data-name="Layer 1"><path class="cls-1" d="M13.59,164.5c-1.34-2.32,1.41-5.39,3-9,8.32-18.9-17.81-46.63-16-48,1.16-.88,14,8.9,20,26,4.89,14,2.74,26,3,26,.95.07,14-160,14-160s-10.07,152.92-9,153c.37,0,1-18.31,5-42C43,54.4,63.21,14,64.59,14.5c1.94.68-38.08,80.87-28,124,.9,3.84,4.23,16.11-2,23C28.82,167.89,15.88,168.49,13.59,164.5Z"/></g></g></svg>